<svg width="286" height="112" viewBox="0 0 286 112" fill="none" xmlns="http://www.w3.org/2000/svg">
<rect x="1.96233" y="2.03456" width="267.684" height="92.1745" rx="19.2142" transform="matrix(0.999848 0.0174524 -0.0186847 0.999825 2.45238 10.4383)" fill="#D900C6"/>
<rect x="1.96233" y="2.03456" width="267.684" height="92.1745" rx="19.2142" transform="matrix(0.999848 0.0174524 -0.0186847 0.999825 2.45238 10.4383)" stroke="white" stroke-width="4"/>
<ellipse cx="7.14746" cy="7.07373" rx="7.14746" ry="7.07373" transform="matrix(0.989925 0.141595 -0.145282 0.98939 243.357 33.1387)" fill="white"/>
<ellipse cx="7.14746" cy="7.07373" rx="7.14746" ry="7.07373" transform="matrix(0.989925 0.141595 -0.145282 0.98939 241.811 74.4458)" fill="white"/>
<g clip-path="url(#clip0_343_30)">
<path fill-rule="evenodd" clip-rule="evenodd" d="M92.202 58.4017L92.3643 49.1028L57.8468 48.5003L57.6845 57.7992L92.202 58.4017ZM36.3537 57.4269C35.9452 55.4908 35.7589 53.4349 35.7969 51.2605L35.8057 50.752C35.8917 45.8284 37.1434 41.514 39.573 37.8491C41.9906 34.1306 45.4013 31.2859 49.7662 29.3144C54.1441 27.3431 59.2021 26.4008 64.9657 26.5014C70.7294 26.6021 75.5115 27.3949 79.648 28.8857C83.8232 30.3773 86.9929 32.4535 89.1567 35.1278C91.3722 37.8031 92.4553 40.9269 92.3931 44.4859L92.388 44.7803L79.5813 44.5567L79.5864 44.2624C79.6041 43.2455 78.9618 42.2707 77.6589 41.3781C76.3568 40.4318 74.5993 39.665 72.3859 39.0911C70.1853 38.5173 67.7993 38.208 65.2534 38.1636C59.8257 38.0688 55.71 39.0944 52.8932 41.2402C50.0765 43.3859 48.6244 46.586 48.5502 50.8407L48.5348 51.7237C48.495 54.0044 48.8469 55.9826 49.5904 57.6579L36.3537 57.4269Z" fill="white"/>
<path fill-rule="evenodd" clip-rule="evenodd" d="M153.057 59.4637L153.219 50.1648L118.701 49.5623L118.539 58.8612L153.057 59.4637ZM97.2085 58.4889C96.7999 56.5528 96.6137 54.4969 96.6516 52.3225L96.6605 51.8141C96.7464 46.8905 97.9981 42.576 100.428 38.9112C102.845 35.1926 106.256 32.3479 110.621 30.3764C114.999 28.4051 120.057 27.4629 125.82 27.5635C131.584 27.6641 136.366 28.4569 140.503 29.9477C144.678 31.4393 147.848 33.5155 150.011 36.1899C152.227 38.8651 153.31 41.989 153.248 45.5479L153.243 45.8423L140.436 45.6188L140.441 45.3244C140.459 44.3075 139.817 43.3327 138.514 42.4401C137.212 41.4939 135.454 40.727 133.241 40.1531C131.04 39.5793 128.654 39.27 126.108 39.2256C120.68 39.1308 116.565 40.1564 113.748 42.3022C110.931 44.4479 109.479 47.648 109.405 51.9027L109.389 52.7858C109.35 55.0664 109.702 57.0446 110.445 58.72L97.2085 58.4889Z" fill="white"/>
<path fill-rule="evenodd" clip-rule="evenodd" d="M158.082 59.5519L171.318 59.7829C170.575 58.1076 170.223 56.1294 170.263 53.8487L170.279 52.9657C170.353 48.711 171.805 45.5109 174.622 43.3652C177.438 41.2194 181.554 40.1938 186.982 40.2886C189.528 40.333 191.914 40.6423 194.114 41.2161C196.327 41.79 198.084 42.5568 199.387 43.5031C200.69 44.3957 201.332 45.3705 201.315 46.3874L201.31 46.6817L214.116 46.9053L214.121 46.6109C214.183 43.0519 213.1 39.9281 210.884 37.2528C208.72 34.5785 205.552 32.5023 201.376 31.0107C197.24 29.5199 192.457 28.7271 186.694 28.6264C180.93 28.5258 175.873 29.4681 171.494 31.4394C167.129 33.4109 163.718 36.2556 161.301 39.9741C158.871 43.639 157.62 47.9534 157.534 52.877L157.525 53.3855C157.487 55.5599 157.673 57.6158 158.082 59.5519Z" fill="white"/>
<path d="M44.0993 71.3451C43.0692 72.3397 42.5405 73.6236 42.513 75.1964C42.4855 76.7693 42.9692 78.0707 43.9639 79.1008C44.9767 80.1311 46.2153 80.6591 47.6796 80.6847C48.8006 80.7042 49.7998 80.4414 50.6774 79.8961C51.5548 79.3508 52.1644 78.62 52.5059 77.7036L46.4315 77.5976L46.5035 73.4757L57.5676 73.6688C57.6317 74.1401 57.6552 74.8639 57.6382 75.8402C57.5899 78.6062 56.5916 80.8855 54.6434 82.678C52.7133 84.4707 50.3652 85.343 47.5992 85.2947C44.8332 85.2464 42.5084 84.2654 40.6249 82.3518C38.7598 80.4204 37.8525 78.0085 37.903 75.1159C37.9535 72.2234 38.9442 69.8535 40.8753 68.0065C42.8248 66.1417 45.1825 65.2334 47.9485 65.2817C49.8648 65.3151 51.6012 65.8156 53.1577 66.7832C54.7322 67.7511 55.9031 69.0464 56.6705 70.6693L52.4836 72.7663C52.0649 71.891 51.444 71.202 50.6208 70.6993C49.798 70.1787 48.8805 69.9094 47.868 69.8917C46.4037 69.8662 45.1475 70.3506 44.0993 71.3451ZM71.1526 71.8173C70.1226 72.812 69.5937 74.0958 69.5662 75.6686C69.5388 77.2415 70.0225 78.5429 71.0172 79.573C72.0301 80.6034 73.2687 81.1313 74.7329 81.1569C75.8539 81.1764 76.8531 80.9136 77.7307 80.3683C78.6081 79.823 79.2177 79.0922 79.5592 78.1758L73.4848 78.0698L73.5567 73.9479L84.6209 74.1411C84.685 74.6123 84.7085 75.3361 84.6915 76.3124C84.6432 79.0784 83.6449 81.3577 81.6967 83.1502C79.7666 84.943 77.4185 85.8152 74.6525 85.7669C71.8865 85.7187 69.5617 84.7376 67.6782 82.824C65.8131 80.8926 64.9058 78.4808 64.9563 75.5881C65.0068 72.6956 65.9976 70.3257 67.9286 68.4787C69.8781 66.6139 72.2359 65.7056 75.0018 65.7539C76.9181 65.7873 78.6545 66.2878 80.211 67.2554C81.7855 68.2233 82.9564 69.5186 83.7238 71.1416L79.5369 73.2385C79.1182 72.3632 78.4973 71.6742 77.6741 71.1716C76.8513 70.6509 75.9338 70.3816 74.9213 70.364C73.457 70.3384 72.2008 70.8228 71.1526 71.8173ZM89.4737 77.4809L99.6429 77.6584L99.5681 81.943L89.3989 81.7655L89.4737 77.4809ZM89.4958 85.5378L84.1807 85.445L91.617 66.5864L97.6913 66.6924L104.519 85.8L99.204 85.7072L94.6531 71.3594L89.4958 85.5378ZM116.843 67.0267L116.764 71.5826L111.34 71.4879L111.088 85.9147L106.478 85.8342L106.73 71.4074L101.307 71.3128L101.386 66.7569L116.843 67.0267ZM122.5 74.314L131.069 74.4636L130.989 79.0194L122.42 78.8698L122.373 81.5545L131.593 81.7154L131.514 86.2712L117.684 86.0298L118.015 67.0472L131.845 67.2886L131.766 71.8444L122.546 71.6835L122.5 74.314ZM140.33 82.0035C139.489 80.4517 139.085 78.7447 139.117 76.8826C139.15 75.0205 139.613 73.3377 140.507 71.8343C141.402 70.3128 142.616 69.1313 144.15 68.2901C145.684 67.4307 147.373 67.0171 149.217 67.0493C151.278 67.0853 153.13 67.6873 154.774 68.8553C156.436 70.0055 157.683 71.5644 158.516 73.5321L153.824 75.0777C153.409 74.0216 152.781 73.1968 151.941 72.6035C151.102 71.9921 150.158 71.6772 149.11 71.6589C147.609 71.6327 146.343 72.1351 145.313 73.166C144.282 74.1788 143.754 75.4444 143.727 76.9631C143.701 78.4817 144.185 79.7741 145.179 80.8403C146.173 81.8884 147.412 82.4255 148.894 82.4514C149.997 82.4706 150.988 82.1714 151.867 81.5538C152.745 80.9362 153.412 80.0708 153.864 78.9575L158.528 80.6394C157.661 82.6497 156.359 84.2364 154.621 85.3996C152.901 86.545 150.983 87.0993 148.868 87.0624C147.024 87.0302 145.35 86.567 143.847 85.6727C142.343 84.7603 141.171 83.5373 140.33 82.0035ZM164.022 77.263C163.994 78.854 164.477 80.1735 165.472 81.2217C166.466 82.2517 167.705 82.7797 169.187 82.8056C170.669 82.8314 171.926 82.347 172.956 81.3524C173.986 80.3395 174.516 79.0377 174.544 77.4467C174.571 75.892 174.078 74.6084 173.064 73.5962C172.069 72.566 170.84 72.0382 169.375 72.0127C167.911 71.9871 166.655 72.4715 165.607 73.466C164.577 74.4426 164.049 75.7084 164.022 77.263ZM159.411 77.1826C159.462 74.2901 160.452 71.9293 162.383 70.1003C164.333 68.2536 166.69 67.3543 169.456 67.4026C172.222 67.4509 174.538 68.4317 176.403 70.345C178.287 72.2406 179.203 74.6346 179.153 77.5272C179.102 80.4379 178.103 82.8256 176.153 84.6904C174.221 86.5555 171.873 87.4639 169.106 87.4156C166.341 87.3674 164.016 86.3774 162.133 84.4457C160.268 82.5143 159.361 80.0933 159.411 77.1826ZM180.345 87.1236L180.676 68.1409L185.909 68.2323L192.134 79.9239L192.336 68.3445L196.946 68.4249L196.615 87.4076L191.382 87.3162L185.156 75.6246L184.954 87.204L180.345 87.1236ZM203.335 75.725L211.903 75.8745L211.824 80.4304L203.255 80.2808L203.129 87.5213L198.519 87.4408L198.85 68.4582L212.68 68.6996L212.6 73.2554L203.381 73.0945L203.335 75.725Z" fill="white"/>
</g>
<rect x="252.255" y="1.255" width="32.49" height="33.49" rx="16.245" fill="white"/>
<rect x="252.255" y="1.255" width="32.49" height="33.49" rx="16.245" stroke="#D900C6" stroke-width="2.51"/>
<path d="M266.978 19.3259H258.324L259.018 20.0388L261.791 21.4652H265.558L266.978 19.3259ZM276.437 17.5433C276.437 17.5433 275.657 18.613 275.917 19.3259H272.192L270.713 21.4652H276.35L277.91 21.3759L278.43 19.7714L276.437 17.5433ZM263.698 23.7827H268.637L267.511 25.922H262.658L263.698 23.7827ZM263.611 10.4119L265.171 12.2838H269.504L268.031 10.0557L263.611 10.4119ZM258.584 13.9776C258.584 13.9776 261.097 13.7995 261.791 15.0473L262.224 14.6905L261.271 12.2838L258.671 11.8383L258.584 13.9776Z" fill="#C0EAFF"/>
<path d="M277.172 21.926H270.896C270.758 21.926 270.626 21.8696 270.528 21.7693C270.431 21.669 270.376 21.533 270.376 21.3911C270.376 21.2493 270.431 21.1133 270.528 21.013C270.626 20.9127 270.758 20.8563 270.896 20.8563H277.172C277.345 20.8558 277.514 20.8024 277.657 20.7028C277.8 20.6032 277.911 20.4619 277.975 20.2971C278.04 20.1323 278.055 19.9514 278.019 19.7776C277.983 19.6038 277.898 19.4449 277.774 19.3214L273.899 15.485H262.079C262.011 15.485 261.943 15.4712 261.88 15.4443C261.817 15.4174 261.76 15.378 261.712 15.3284C261.663 15.2787 261.625 15.2197 261.599 15.1548C261.573 15.09 261.559 15.0204 261.559 14.9502V14.5116C261.562 14.1504 261.478 13.794 261.316 13.4736C261.154 13.1531 260.918 12.8783 260.629 12.6729C260.392 12.4995 260.123 12.3774 259.838 12.3141C259.553 12.2507 259.259 12.2474 258.974 12.3044V19.5192L261.863 20.8563H262.902C263.04 20.8563 263.173 20.9127 263.27 21.013C263.368 21.1133 263.422 21.2493 263.422 21.3911C263.422 21.533 263.368 21.669 263.27 21.7693C263.173 21.8696 263.04 21.926 262.902 21.926H261.751C261.677 21.926 261.605 21.9099 261.537 21.8789L258.24 20.3525C258.149 20.3101 258.071 20.2415 258.017 20.155C257.963 20.0685 257.934 19.9677 257.934 19.8647V11.899C257.934 11.6743 258.07 11.4732 258.276 11.3962C258.762 11.2107 259.285 11.1502 259.799 11.2201C260.313 11.2899 260.803 11.4879 261.226 11.7968C261.639 12.0907 261.979 12.4813 262.218 12.9364C262.456 13.3916 262.586 13.8984 262.598 14.4153H274.108C274.243 14.4153 274.372 14.4688 274.469 14.5651L278.494 18.5512C278.679 18.7343 278.826 18.9537 278.926 19.1964C279.027 19.439 279.079 19.6999 279.079 19.9637C279.079 20.4839 278.878 20.9827 278.52 21.3506C278.163 21.7185 277.678 21.9254 277.172 21.926Z" fill="#1F87DD"/>
<path d="M267.267 26.3323H262.575C262.478 26.3322 262.384 26.3047 262.302 26.2526C262.22 26.2005 262.153 26.1261 262.11 26.0375C262.067 25.9489 262.048 25.8496 262.057 25.7509C262.065 25.6521 262.1 25.5577 262.158 25.4781L266.722 19.1794C266.762 19.1212 266.813 19.0718 266.872 19.0342C266.931 18.9966 266.996 18.9714 267.065 18.9603C267.133 18.9491 267.203 18.9522 267.271 18.9693C267.338 18.9864 267.401 19.0171 267.457 19.0598C267.513 19.1024 267.559 19.156 267.594 19.2175C267.63 19.279 267.652 19.3471 267.662 19.4178C267.671 19.4885 267.666 19.5604 267.648 19.6292C267.63 19.698 267.598 19.7624 267.555 19.8185L263.61 25.2631H267.021L271.732 19.3565C271.82 19.2504 271.946 19.1843 272.081 19.1721C272.216 19.16 272.351 19.2028 272.456 19.2914C272.561 19.38 272.628 19.5074 272.643 19.6463C272.658 19.7852 272.619 19.9246 272.536 20.0346L267.669 26.1371C267.62 26.1981 267.559 26.2473 267.489 26.2811C267.42 26.3148 267.344 26.3323 267.267 26.3323ZM271.885 15.2864C271.808 15.2865 271.732 15.269 271.663 15.2351C271.593 15.2013 271.532 15.1519 271.483 15.0906L268.011 10.7371H264.6L266.357 13.1615C266.4 13.2176 266.431 13.282 266.449 13.3508C266.468 13.4196 266.472 13.4915 266.463 13.5622C266.454 13.6329 266.431 13.701 266.396 13.7625C266.361 13.824 266.314 13.8776 266.258 13.9203C266.203 13.9629 266.139 13.9937 266.072 14.0108C266.005 14.0278 265.935 14.0309 265.866 14.0197C265.798 14.0086 265.732 13.9835 265.673 13.9458C265.614 13.9082 265.563 13.8588 265.523 13.8006L263.148 10.5221C263.09 10.4426 263.055 10.3482 263.046 10.2493C263.038 10.1505 263.056 10.0512 263.099 9.96248C263.143 9.87381 263.209 9.79929 263.291 9.74727C263.373 9.69526 263.468 9.6678 263.565 9.66797H268.257C268.334 9.668 268.41 9.68557 268.48 9.71941C268.549 9.75326 268.611 9.80255 268.659 9.86372L272.288 14.413C272.35 14.4913 272.39 14.5863 272.402 14.6868C272.414 14.7874 272.398 14.8894 272.356 14.9809C272.313 15.0725 272.247 15.1498 272.164 15.2039C272.08 15.258 271.984 15.2866 271.885 15.2864Z" fill="#1F87DD"/>
<path d="M269.351 12.4642H264.881C264.743 12.4642 264.611 12.4078 264.513 12.3075C264.416 12.2072 264.361 12.0712 264.361 11.9294C264.361 11.7875 264.416 11.6515 264.513 11.5512C264.611 11.4509 264.743 11.3945 264.881 11.3945H269.351C269.489 11.3945 269.621 11.4509 269.719 11.5512C269.816 11.6515 269.871 11.7875 269.871 11.9294C269.871 12.0712 269.816 12.2072 269.719 12.3075C269.621 12.4078 269.489 12.4642 269.351 12.4642ZM268.671 24.5108H264.201C264.063 24.5108 263.931 24.4544 263.833 24.3541C263.736 24.2538 263.681 24.1178 263.681 23.9759C263.681 23.8341 263.736 23.698 263.833 23.5977C263.931 23.4974 264.063 23.4411 264.201 23.4411H268.671C268.809 23.4411 268.941 23.4974 269.039 23.5977C269.136 23.698 269.191 23.8341 269.191 23.9759C269.191 24.1178 269.136 24.2538 269.039 24.3541C268.941 24.4544 268.809 24.5108 268.671 24.5108ZM266.942 17.7088H266.484C266.346 17.7088 266.214 17.6524 266.116 17.5521C266.019 17.4518 265.964 17.3158 265.964 17.1739C265.964 17.0321 266.019 16.896 266.116 16.7957C266.214 16.6954 266.346 16.6391 266.484 16.6391H266.942C267.08 16.6391 267.212 16.6954 267.309 16.7957C267.407 16.896 267.462 17.0321 267.462 17.1739C267.462 17.3158 267.407 17.4518 267.309 17.5521C267.212 17.6524 267.08 17.7088 266.942 17.7088ZM269.91 17.7088H269.453C269.315 17.7088 269.182 17.6524 269.085 17.5521C268.987 17.4518 268.933 17.3158 268.933 17.1739C268.933 17.0321 268.987 16.896 269.085 16.7957C269.182 16.6954 269.315 16.6391 269.453 16.6391H269.91C270.048 16.6391 270.18 16.6954 270.278 16.7957C270.375 16.896 270.43 17.0321 270.43 17.1739C270.43 17.3158 270.375 17.4518 270.278 17.5521C270.18 17.6524 270.048 17.7088 269.91 17.7088ZM263.974 17.7088H263.516C263.378 17.7088 263.246 17.6524 263.148 17.5521C263.051 17.4518 262.996 17.3158 262.996 17.1739C262.996 17.0321 263.051 16.896 263.148 16.7957C263.246 16.6954 263.378 16.6391 263.516 16.6391H263.974C264.112 16.6391 264.244 16.6954 264.341 16.7957C264.439 16.896 264.494 17.0321 264.494 17.1739C264.494 17.3158 264.439 17.4518 264.341 17.5521C264.244 17.6524 264.112 17.7088 263.974 17.7088ZM276.129 17.7088H272.791C272.653 17.7088 272.521 17.6524 272.424 17.5521C272.326 17.4518 272.271 17.3158 272.271 17.1739C272.271 17.0321 272.326 16.896 272.424 16.7957C272.521 16.6954 272.653 16.6391 272.791 16.6391H276.129C276.267 16.6391 276.399 16.6954 276.496 16.7957C276.594 16.896 276.649 17.0321 276.649 17.1739C276.649 17.3158 276.594 17.4518 276.496 17.5521C276.399 17.6524 276.267 17.7088 276.129 17.7088Z" fill="#1F87DD"/>
<defs>
<clipPath id="clip0_343_30">
<rect width="179.665" height="70.9204" fill="white" transform="translate(36.2378 26) rotate(1)"/>
</clipPath>
</defs>
</svg>
