<svg width="1300" height="1483" viewBox="0 0 1300 1483" fill="none" xmlns="http://www.w3.org/2000/svg">
<g opacity="0.94" filter="url(#filter0_f_2110_22)">
<circle cx="740.859" cy="741.468" r="240.733" transform="rotate(0.030205 740.859 741.468)" fill="#D900C6"/>
</g>
<path d="M672.78 782.86C672.693 782.827 672.6 782.724 672.605 782.626C672.574 782.449 672.699 782.298 672.848 782.257C743.22 769.308 823.243 751.022 882.646 697.437C906.387 676.021 922.275 652.749 929.879 628.214C938.85 599.304 934.954 568.61 919.699 548.161C912.801 538.883 903.18 530.967 891.172 524.578C854.129 504.948 806.692 508.139 770.21 532.662C770.079 532.744 769.855 532.723 769.784 532.563C769.673 532.42 769.711 532.236 769.854 532.126C787.68 520.118 808.567 512.979 830.28 511.5C852.061 510.014 873.221 514.321 891.465 523.995C903.56 530.418 913.227 538.385 920.19 547.755C935.555 568.347 939.482 599.217 930.461 628.341C922.824 652.962 906.891 676.35 883.059 697.829C823.513 751.525 743.381 769.834 672.94 782.79C672.907 782.876 672.838 782.883 672.78 782.86Z" fill="white" fill-opacity="0.8"/>
<path d="M672.78 782.86C672.693 782.827 672.618 782.764 672.594 782.655C672.552 782.506 672.659 782.316 672.808 782.274C732.607 765.914 800.828 743.873 853.73 689.055C874.867 667.158 889.5 643.863 897.265 619.855C906.404 591.54 904.852 562.255 893.175 543.461C887.907 534.948 880.286 527.876 870.576 522.412C840.586 505.589 800.595 511.341 768.612 536.949C768.469 537.059 768.274 537.049 768.163 536.907C768.052 536.764 768.09 536.58 768.204 536.459C783.839 523.931 801.818 515.894 820.096 513.246C838.511 510.586 856.057 513.589 870.829 521.847C880.654 527.355 888.34 534.519 893.672 543.123C905.419 562.077 907.002 591.54 897.825 620.039C890.055 644.145 875.371 667.487 854.161 689.488C801.173 744.438 732.843 766.503 672.964 782.899C672.935 782.888 672.838 782.883 672.78 782.86Z" fill="white" fill-opacity="0.8"/>
<path d="M672.78 782.86C672.693 782.827 672.647 782.775 672.611 782.695C672.541 782.535 672.608 782.362 672.768 782.292C722.011 762.56 778.397 736.85 824.707 680.864C843.239 658.486 856.614 635.265 864.499 611.801C873.783 584.139 874.564 556.291 866.466 539.152C862.799 531.395 857.205 525.176 849.754 520.657C826.863 506.691 794.296 514.895 766.832 541.53C766.718 541.651 766.523 541.642 766.401 541.528C766.279 541.414 766.288 541.219 766.402 541.097C794.07 514.277 826.914 506.047 850.065 520.114C857.591 524.696 863.307 531.028 867.009 538.866C875.149 556.154 874.41 584.151 865.059 611.986C857.151 635.507 843.743 658.814 825.16 681.239C778.747 737.317 722.27 763.092 672.987 782.841C672.935 782.888 672.866 782.894 672.78 782.86Z" fill="white" fill-opacity="0.8"/>
<path d="M672.78 782.86C672.722 782.838 672.676 782.787 672.629 782.735C672.547 782.604 672.597 782.391 672.728 782.31C711.308 759.397 755.809 730.23 795.411 673.462C811.241 650.764 823.324 627.704 831.274 604.929C840.687 578.047 843.717 551.768 839.174 536.342C837.126 529.379 833.48 524.05 828.329 520.457C812.485 509.395 787.432 519.988 764.538 547.436C764.424 547.557 764.217 547.577 764.095 547.463C763.973 547.349 763.942 547.171 764.067 547.021C787.16 519.319 812.529 508.682 828.668 519.926C833.924 523.592 837.652 529.053 839.753 536.136C844.32 551.671 841.303 578.087 831.845 605.084C823.844 627.906 811.779 651.006 795.897 673.75C756.221 730.622 711.67 759.836 673.038 782.795C672.976 782.87 672.866 782.894 672.78 782.86Z" fill="white" fill-opacity="0.8"/>
<path d="M672.78 782.86C672.751 782.849 672.693 782.827 672.676 782.787C672.554 782.673 672.563 782.478 672.677 782.356C700.534 756.505 733.02 724.129 765.716 666.999C778.808 644.165 789.491 621.457 797.49 599.497C806.925 573.585 812.136 549.049 811.115 535.422C810.635 529.3 808.965 524.872 806.102 522.234C804.045 520.341 801.512 519.589 798.514 519.949C788.876 521.146 775.076 534.254 761.605 554.984C761.52 555.117 761.343 555.147 761.169 555.08C761.036 554.995 760.977 554.806 761.073 554.645C774.831 533.43 788.433 520.576 798.427 519.319C801.603 518.928 804.349 519.729 806.528 521.736C809.513 524.488 811.265 529.048 811.747 535.336C812.792 549.072 807.547 573.694 798.079 599.692C790.068 621.681 779.374 644.419 766.271 667.281C733.512 724.486 701.015 756.891 673.107 782.788C673.033 782.892 672.895 782.905 672.78 782.86Z" fill="white" fill-opacity="0.8"/>
<path d="M672.78 782.86C672.751 782.849 672.751 782.849 672.722 782.838C672.589 782.753 672.529 782.564 672.625 782.402C689.491 754.304 709.586 719.601 734.942 663.4C745.053 640.967 754.175 619.111 762.033 598.455C771.295 574.101 778.52 551.74 780.931 540.143C781.996 534.92 782.223 531.427 781.596 529.791C781.282 528.972 780.862 528.942 780.695 528.943C778.181 528.829 770.392 538.867 756.777 567.499C756.721 567.643 756.48 567.749 756.358 567.635C756.185 567.568 756.126 567.379 756.222 567.217C767.874 542.697 777.046 528.156 780.706 528.317C781.166 528.33 781.773 528.566 782.146 529.573C782.815 531.358 782.612 534.96 781.513 540.27C779.119 551.907 771.855 574.285 762.582 598.669C754.713 619.353 745.619 641.22 735.48 663.642C710.112 719.872 690.006 754.603 673.14 782.702C673.085 782.846 672.924 782.916 672.78 782.86Z" fill="white" fill-opacity="0.8"/>
<path d="M672.78 782.86C672.635 782.804 672.554 782.673 672.581 782.518C679.119 750.374 687.703 711.166 706.966 652.598C714.674 629.165 722.699 606.883 730.834 586.368C740.454 562.12 750.231 540.717 756.292 530.505C759.066 525.846 761.359 523.023 763.047 522.187C764.002 521.695 764.626 521.971 764.956 522.232C767.794 524.595 764.715 541.503 756.759 567.459C756.692 567.632 756.532 567.702 756.376 567.675C756.376 567.675 756.376 567.675 756.347 567.664C756.203 567.608 756.103 567.436 756.159 567.292C765.443 536.978 766.463 524.343 764.542 522.701C764.42 522.587 764.089 522.326 763.305 522.718C761.727 523.531 759.536 526.261 756.807 530.804C750.728 540.977 741.003 562.333 731.383 586.581C723.247 607.096 715.194 629.367 707.526 652.782C688.303 711.333 679.701 750.5 673.163 782.644C673.136 782.8 672.953 782.928 672.798 782.9C672.809 782.872 672.809 782.872 672.78 782.86Z" fill="white" fill-opacity="0.8"/>
<path d="M672.78 782.86C672.664 782.815 672.6 782.724 672.587 782.587C669.47 744.669 667.372 698.825 681.833 634.478C687.601 608.766 695.061 584.773 703.996 563.143C714.55 537.599 727.314 515.865 737.358 506.438C741.959 502.124 746.329 499.942 750.39 499.928C753.352 499.918 755.93 501.151 757.998 503.613C764.505 511.247 765.85 529.941 761.708 554.891C761.681 555.047 761.527 555.186 761.343 555.147C761.158 555.109 761.047 554.966 761.085 554.782C765.142 530.395 763.81 511.408 757.508 504.019C755.539 501.729 753.163 500.574 750.379 500.554C746.486 500.566 742.264 502.706 737.777 506.899C727.825 516.263 715.094 537.91 704.573 563.367C695.661 584.939 688.201 608.933 682.444 634.616C668.027 698.847 670.108 744.652 673.208 782.529C673.209 782.696 673.084 782.846 672.918 782.848C672.878 782.865 672.838 782.883 672.78 782.86Z" fill="white" fill-opacity="0.8"/>
<path d="M672.78 782.86C672.693 782.827 672.618 782.764 672.594 782.655C659.552 739.656 646.447 688.01 655.57 619.268C659.208 591.767 665.901 566.581 675.405 544.343C686.653 518.041 702.26 496.516 716.146 488.15C722.477 484.342 728.914 482.831 735.267 483.674C754.792 486.285 766.299 511.248 764.634 547.274C764.636 547.441 764.482 547.58 764.315 547.581C764.148 547.583 764.009 547.429 764.007 547.263C765.676 511.569 754.361 486.881 735.159 484.295C728.933 483.468 722.645 484.938 716.434 488.693C702.668 497.006 687.163 518.438 675.96 544.625C666.479 566.805 659.797 591.963 656.181 619.406C647.074 688.021 660.184 739.57 673.208 782.529C673.249 782.678 673.171 782.88 672.993 782.91C672.935 782.888 672.838 782.883 672.78 782.86Z" fill="white" fill-opacity="0.8"/>
<path d="M672.78 782.86C672.722 782.838 672.647 782.775 672.611 782.695C649.585 734.855 625.292 677.702 628.937 605.009C630.396 575.932 636.209 549.674 646.254 526.983C658.135 500.165 676.501 478.982 694.177 471.724C702.24 468.423 710.691 467.628 719.337 469.328C745.941 474.591 764.627 502.806 766.922 541.299C766.924 541.466 766.799 541.616 766.632 541.618C766.465 541.619 766.314 541.494 766.312 541.328C764.032 503.138 745.562 475.14 719.228 469.949C710.71 468.265 702.356 469.065 694.414 472.313C676.869 479.49 658.645 500.562 646.82 527.236C636.798 549.87 630.989 576.03 629.553 605.05C625.923 677.616 650.164 734.649 673.172 782.449C673.243 782.609 673.176 782.782 673.016 782.852C672.964 782.899 672.866 782.894 672.78 782.86Z" fill="white" fill-opacity="0.8"/>
<path d="M672.78 782.86C672.722 782.838 672.676 782.787 672.629 782.735C639.522 730.216 604.009 667.809 602.014 591.499C601.208 560.979 606.143 533.816 616.685 510.788C629.125 483.556 650.182 462.889 671.673 456.847C681.415 454.099 691.922 454.003 702.888 456.572C719.402 460.434 734.362 470.092 746.123 484.476C757.848 498.78 765.669 516.806 768.764 536.643C768.794 536.821 768.67 536.971 768.492 537.002C768.314 537.032 768.163 536.907 768.132 536.729C761.824 496.246 736.165 465.023 702.722 457.171C691.882 454.617 681.473 454.719 671.841 457.442C650.539 463.425 629.624 483.982 617.251 511.041C606.772 533.994 601.852 561.03 602.652 591.482C604.645 667.626 640.123 729.952 673.195 782.391C673.277 782.523 673.227 782.736 673.096 782.817C672.976 782.87 672.866 782.894 672.78 782.86Z" fill="white" fill-opacity="0.8"/>
<path d="M672.78 782.86C672.722 782.838 672.664 782.815 672.658 782.747C629.437 725.635 582.681 658.032 575 578.22C571.919 546.285 575.954 518.275 586.941 494.955C599.947 467.38 623.684 447.256 648.921 442.437C660.371 440.254 672.893 440.874 686.152 444.301C706.113 449.469 724.66 460.587 739.726 476.387C754.717 492.125 765.307 511.492 770.38 532.397C770.411 532.574 770.315 532.736 770.137 532.766C769.988 532.808 769.797 532.701 769.755 532.552C759.426 489.843 726.526 455.443 685.975 444.928C672.813 441.506 660.39 440.891 649.008 443.068C623.978 447.868 600.394 467.852 587.456 495.255C576.514 518.459 572.512 546.382 575.57 578.209C583.22 657.843 629.929 725.395 673.086 782.415C673.196 782.558 673.158 782.742 673.016 782.852C673.004 782.881 672.895 782.905 672.78 782.86Z" fill="white" fill-opacity="0.8"/>
<path d="M672.78 782.86C672.722 782.838 672.664 782.815 672.658 782.747C629.437 725.635 582.681 658.032 575 578.22C572.467 551.803 574.815 527.879 582.022 507.103C582.089 506.931 582.249 506.86 582.423 506.927C582.567 506.984 582.666 507.155 582.599 507.328C575.426 528.017 573.072 551.872 575.61 578.191C583.253 657.757 629.887 725.246 673.015 782.255C743.318 769.312 823.283 751.005 882.635 697.466C902.275 679.763 916.642 660.575 925.318 640.468C925.373 640.324 925.574 640.236 925.718 640.292C925.863 640.349 925.951 640.549 925.895 640.693C917.186 660.885 902.768 680.12 883.066 697.898C823.519 751.594 743.388 769.903 672.947 782.859C672.907 782.876 672.838 782.883 672.78 782.86Z" fill="white" fill-opacity="0.8"/>
<path d="M684.924 751.601C684.866 751.579 684.819 751.527 684.773 751.476C680.338 745.011 675.734 738.382 671.306 731.986C648.546 699.204 625.026 665.297 607.062 631.46C600.382 618.884 594.736 606.81 590.296 595.568C585.785 584.167 582.542 573.523 580.318 563.076C576.881 546.687 576.448 531.631 579.013 518.27C579.766 514.45 580.761 510.692 581.993 507.092C582.06 506.919 582.22 506.849 582.394 506.916C582.538 506.972 582.638 507.144 582.57 507.317C581.321 510.876 580.337 514.606 579.596 518.396C577.035 531.66 577.461 546.647 580.892 562.968C583.098 573.374 586.352 583.989 590.846 595.351C595.286 606.592 600.903 618.656 607.566 631.192C625.54 665 649.043 698.866 671.774 731.637C676.156 737.982 680.724 744.531 685.141 750.956C692.737 749.198 700.499 747.439 708.015 745.717C746.908 736.886 787.15 727.749 823.223 714.971C836.601 710.221 848.917 705.124 859.753 699.817C870.738 694.469 880.276 688.823 888.957 682.646C902.495 672.951 912.927 662.182 920.004 650.64C922.016 647.343 923.808 643.927 925.3 640.428C925.356 640.284 925.556 640.196 925.701 640.252C925.845 640.309 925.933 640.509 925.877 640.653C924.385 644.152 922.582 647.596 920.53 650.91C913.431 662.51 902.908 673.343 889.319 683.085C880.626 689.291 871.059 694.925 860.034 700.291C849.169 705.587 836.842 710.712 823.424 715.48C787.3 728.305 747.058 737.441 708.136 746.261C700.551 747.99 692.72 749.755 685.055 751.519C685.05 751.617 684.981 751.623 684.924 751.601Z" fill="white" fill-opacity="0.8"/>
<path d="M697.079 720.313C697.021 720.29 696.974 720.239 696.928 720.188C681.54 695.376 664.187 670.663 647.372 646.788C637.121 632.195 627.42 618.413 618.307 604.825C610.457 593.121 604.032 582.966 598.648 573.812C592.959 564.074 588.687 555.65 585.643 548.002C580.652 535.353 578.839 524.535 580.151 514.998C580.507 512.285 581.135 509.643 582.011 507.132C582.078 506.959 582.238 506.889 582.411 506.956C582.556 507.012 582.655 507.184 582.588 507.356C581.723 509.839 581.107 512.451 580.745 515.096C579.466 524.547 581.255 535.256 586.192 547.784C589.219 555.393 593.462 563.806 599.163 573.514C604.547 582.668 610.971 592.824 618.792 604.517C627.905 618.104 637.578 631.875 647.828 646.468C664.597 670.291 681.915 694.925 697.285 719.697C725.318 711.786 754.753 705.315 783.177 699.049C800.591 695.204 817.053 691.585 832.948 687.713C846.64 684.378 858.236 681.223 868.359 678.093C879.118 674.779 887.928 671.437 895.297 667.867C907.427 661.968 915.976 655.275 921.384 647.429C922.901 645.233 924.211 642.89 925.26 640.446C925.316 640.302 925.516 640.214 925.66 640.27C925.805 640.326 925.893 640.526 925.837 640.67C924.777 643.143 923.457 645.515 921.888 647.757C916.377 655.697 907.777 662.436 895.556 668.398C888.158 671.957 879.308 675.317 868.537 678.659C858.385 681.778 846.79 684.933 833.087 688.297C817.191 692.169 800.73 695.788 783.316 699.634C754.822 705.906 725.307 712.412 697.234 720.34C697.223 720.369 697.136 720.335 697.079 720.313Z" fill="white" fill-opacity="0.8"/>
<path d="M709.222 689.053C709.165 689.031 709.089 688.969 709.071 688.928C690.777 655.858 665.535 620.653 629.592 578.173C622.012 569.194 614.424 560.41 607.041 552.037C601.055 545.202 595.384 538.755 591.007 532.91C584.402 524.077 581.304 517.336 581.272 511.686C581.26 510.09 581.52 508.566 582.022 507.103C582.089 506.931 582.249 506.86 582.423 506.927C582.567 506.984 582.666 507.155 582.599 507.328C582.12 508.733 581.883 510.199 581.888 511.727C581.911 517.141 585.045 523.962 591.504 532.572C595.852 538.406 601.523 544.853 607.491 551.648C614.892 560.061 622.48 568.845 630.059 577.824C665.927 620.241 691.163 655.378 709.457 688.448C745.268 676.43 787.646 667.527 842.713 660.437C854.298 658.935 865.855 657.589 877.034 656.362C886.053 655.389 894.56 654.45 901.706 653.081C912.255 651.078 919.172 648.161 922.873 644.194C923.908 643.071 924.723 641.829 925.318 640.468C925.373 640.324 925.574 640.236 925.718 640.292C925.863 640.349 925.951 640.549 925.895 640.693C925.278 642.111 924.44 643.41 923.355 644.58C919.528 648.697 912.721 651.59 901.845 653.665C894.67 655.023 886.134 655.951 877.103 656.952C865.936 658.151 854.396 659.537 842.812 661.039C787.647 668.124 745.258 677.056 709.407 689.092C709.367 689.11 709.309 689.087 709.222 689.053Z" fill="white" fill-opacity="0.8"/>
<path d="M721.366 657.794C721.308 657.772 721.233 657.709 721.198 657.629C703.337 621.047 674.054 582.382 640.876 551.52C631.697 542.981 623.119 535.802 615.445 530.234C608.338 525.086 602.177 521.267 596.412 517.8L594.773 516.799C588.18 512.811 583.815 510.187 582.474 508.506C582.02 507.965 581.876 507.478 582.015 507.034C582.082 506.862 582.243 506.791 582.416 506.859C582.56 506.915 582.66 507.086 582.593 507.259C582.492 507.518 582.72 507.872 582.953 508.128C584.23 509.718 588.785 512.45 595.084 516.256L596.722 517.258C602.459 520.713 608.677 524.555 615.784 529.703C623.488 535.282 632.065 542.461 641.273 551.012C674.452 581.873 703.716 620.498 721.617 657.063C759.508 642.172 807.173 633.433 852.483 633.063C865.049 632.971 876.223 633.466 885.684 634.522C894.345 635.499 901.555 636.874 908.148 638.209L910.062 638.587C917.278 640.031 922.454 641.08 924.498 640.78C924.814 640.737 925.221 640.63 925.351 640.382C925.407 640.238 925.607 640.15 925.752 640.206C925.896 640.262 925.985 640.462 925.929 640.606C925.761 641.039 925.298 641.29 924.597 641.382C922.473 641.717 917.481 640.707 909.965 639.18L908.051 638.801C901.457 637.466 894.277 636.102 885.645 635.136C876.224 634.063 865.05 633.568 852.513 633.672C807.173 634.03 759.468 642.787 721.624 657.729C721.522 657.821 721.453 657.828 721.366 657.794Z" fill="white" fill-opacity="0.8"/>
<path d="M733.51 626.535C733.423 626.501 733.377 626.45 733.341 626.37C716.854 587.536 686.487 549.61 652.15 524.897C641.942 517.549 632.422 512.027 623.826 508.489C616.356 505.388 608.997 503.457 601.834 502.73C593.589 501.882 586.934 502.844 584.021 505.294C583.326 505.886 582.861 506.567 582.599 507.328C582.532 507.501 582.372 507.571 582.199 507.504C582.065 507.419 581.955 507.276 582.022 507.103C582.318 506.257 582.855 505.471 583.642 504.815C586.668 502.244 593.513 501.222 601.914 502.098C609.134 502.847 616.551 504.8 624.061 507.884C632.686 511.433 642.264 516.978 652.489 524.365C686.855 549.089 717.193 587.004 733.761 625.803C772.187 608.335 820.182 600.885 862.209 605.805C874.768 607.269 885.549 609.633 894.308 612.837C901.912 615.592 908.749 619.21 914.553 623.52C921.341 628.545 925.701 633.919 926.198 637.859C926.336 638.874 926.213 639.788 925.849 640.642C925.793 640.786 925.592 640.874 925.448 640.817C925.303 640.761 925.215 640.561 925.271 640.417C925.591 639.679 925.68 638.852 925.595 637.957C925.1 634.183 920.84 628.98 914.184 624.041C908.398 619.77 901.648 616.186 894.073 613.442C885.371 610.261 874.62 607.908 862.1 606.426C820.056 601.466 772.068 608.985 733.688 626.504C733.694 626.573 733.597 626.568 733.51 626.535Z" fill="white" fill-opacity="0.8"/>
<path d="M745.654 595.275C745.567 595.242 745.492 595.179 745.456 595.099C730.898 554.892 699.452 517.774 663.405 498.233C652.205 492.158 641.714 488.281 632.23 486.685C623.564 485.209 615.164 485.527 607.261 487.563C597.351 490.146 589.497 495.219 585.204 501.907C584.123 503.576 583.251 505.393 582.599 507.328C582.532 507.501 582.372 507.571 582.199 507.504C582.065 507.419 581.955 507.276 582.022 507.103C582.696 505.111 583.608 503.276 584.7 501.578C589.067 494.786 597.034 489.592 607.122 486.979C615.106 484.907 623.592 484.623 632.327 486.093C641.909 487.693 652.458 491.593 663.705 497.719C699.781 517.272 731.237 554.361 745.922 594.584C783.91 574.824 832.155 568.697 871.969 578.627C884.391 581.728 894.818 585.945 902.967 591.233C910.432 596.056 916.46 602.012 920.963 608.901C926.642 617.639 929.013 626.85 927.649 634.809C927.308 636.798 926.703 638.785 925.895 640.693C925.839 640.837 925.639 640.925 925.494 640.869C925.35 640.813 925.262 640.612 925.318 640.468C926.114 638.589 926.697 636.661 927.027 634.7C928.375 626.867 926.034 617.834 920.437 609.227C915.981 602.39 910 596.485 902.61 591.724C894.536 586.498 884.149 582.264 871.814 579.197C832.029 569.278 783.773 575.433 745.889 595.267C745.838 595.314 745.74 595.309 745.654 595.275Z" fill="white" fill-opacity="0.8"/>
<path d="M925.494 640.869C925.321 640.801 925.262 640.612 925.318 640.468C926.619 637.459 927.668 634.418 928.447 631.471C931.598 619.598 930.967 606.421 926.731 594.397C923.438 584.993 918.184 576.785 911.158 569.977C903.73 562.747 893.813 556.706 881.742 552.017C881.655 551.983 881.597 551.961 881.511 551.927C843.515 537.233 795.07 541.989 758.062 564.019C757.891 564.119 757.66 564.029 757.6 563.84C745.17 522.603 712.63 486.419 674.69 471.581C674.603 471.547 674.546 471.524 674.459 471.491C662.359 466.79 650.994 464.563 640.633 464.882C630.824 465.15 621.425 467.7 612.659 472.385C601.388 478.385 592.056 487.691 586.375 498.549C584.961 501.249 583.681 504.2 582.611 507.299C582.543 507.472 582.383 507.542 582.21 507.475C582.065 507.419 581.966 507.247 582.033 507.075C583.115 503.947 584.406 500.967 585.831 498.238C591.597 487.247 601.02 477.877 612.383 471.813C621.24 467.064 630.737 464.519 640.655 464.228C651.113 463.913 662.566 466.174 674.723 470.897C674.81 470.931 674.867 470.953 674.954 470.987C693.713 478.308 711.389 490.812 726.116 507.143C740.843 523.475 751.893 542.855 758.117 563.278C776.457 552.431 797.732 545.576 819.622 543.469C841.511 541.362 862.993 544.07 881.775 551.333C881.861 551.367 881.919 551.39 882.006 551.423C894.163 556.146 904.127 562.238 911.642 569.502C918.732 576.401 924.021 584.689 927.35 594.173C931.639 606.317 932.265 619.592 929.098 631.592C928.308 634.567 927.248 637.637 925.935 640.675C925.839 640.837 925.668 640.936 925.494 640.869Z" fill="white" fill-opacity="0.8"/>
<path d="M582.199 507.504C582.054 507.448 581.955 507.276 582.022 507.103C583.516 502.743 585.13 498.761 586.941 494.955C599.947 467.38 623.684 447.256 648.921 442.437C660.371 440.254 672.893 440.874 686.152 444.301C706.113 449.469 724.66 460.587 739.726 476.387C754.624 492.023 765.183 511.212 770.255 531.95C788.014 520.115 808.769 513.057 830.286 511.568C852.068 510.083 873.227 514.39 891.471 524.064C903.566 530.487 913.234 538.454 920.196 547.823C935.561 568.415 939.488 599.286 930.467 628.41C929.216 632.4 927.73 636.399 925.895 640.693C925.839 640.837 925.639 640.925 925.494 640.869C925.35 640.813 925.262 640.612 925.318 640.468C927.141 636.203 928.656 632.216 929.867 628.243C938.839 599.332 934.942 568.639 919.688 548.19C912.79 538.911 903.169 530.996 891.161 524.606C854.118 504.977 806.681 508.168 770.199 532.691C770.028 532.79 769.768 532.689 769.737 532.512C759.408 489.803 726.508 455.402 685.957 444.888C672.796 441.466 660.372 440.851 648.991 443.028C623.961 447.828 600.377 467.812 587.438 495.215C585.667 499.003 584.065 502.956 582.542 507.305C582.572 507.483 582.383 507.542 582.199 507.504Z" fill="white" fill-opacity="0.8"/>
<path d="M672.78 782.86C672.607 782.793 672.536 782.633 672.603 782.46L756.21 567.246C756.278 567.073 756.438 567.003 756.611 567.07C756.784 567.137 756.855 567.297 756.788 567.47L673.181 782.684C673.125 782.828 672.953 782.928 672.78 782.86Z" fill="white" fill-opacity="0.8"/>
<path d="M672.612 783.292C672.468 783.236 672.363 783.163 672.281 783.031C629.014 725.869 582.223 658.185 574.547 578.275C571.47 546.243 575.498 518.164 586.519 494.758C599.569 467.067 623.45 446.833 648.835 441.973C660.355 439.783 672.945 440.397 686.262 443.846C726.853 454.343 759.838 488.61 770.546 531.201C807.197 507.009 854.625 504.013 891.697 523.654C903.85 530.1 913.593 538.129 920.573 547.539C936.02 568.262 939.988 599.282 930.912 628.549C923.241 653.257 907.257 676.691 883.363 698.246C823.725 752.005 743.513 770.35 673.032 783.323C672.894 783.336 672.756 783.349 672.612 783.292ZM697.655 449.167C693.815 447.675 689.884 446.414 685.876 445.354C672.772 441.954 660.417 441.333 649.116 443.475C624.235 448.233 600.783 468.136 587.9 495.394C576.991 518.512 573.024 546.349 576.075 578.106C583.699 657.465 630.164 724.79 673.228 781.708C743.393 768.778 823.162 750.46 882.349 697.089C906.028 675.749 921.864 652.523 929.463 628.086C938.39 599.291 934.513 568.804 919.352 548.457C912.489 539.259 902.926 531.366 890.964 525.027C854.112 505.505 806.824 508.654 770.474 533.096C770.069 533.37 769.404 533.112 769.29 532.636C760.043 494.327 732.539 462.719 697.655 449.167Z" fill="white" fill-opacity="0.8"/>
<g filter="url(#filter1_f_2110_22)">
<path d="M672.78 782.86C672.693 782.827 672.6 782.724 672.605 782.626C672.574 782.449 672.699 782.298 672.848 782.257C743.22 769.308 823.243 751.022 882.646 697.437C906.387 676.021 922.275 652.749 929.879 628.214C938.85 599.304 934.954 568.61 919.699 548.161C912.801 538.883 903.18 530.967 891.172 524.578C854.129 504.948 806.692 508.139 770.21 532.662C770.079 532.744 769.855 532.723 769.784 532.563C769.673 532.42 769.711 532.236 769.854 532.126C787.68 520.118 808.567 512.979 830.28 511.5C852.061 510.014 873.221 514.321 891.465 523.995C903.56 530.418 913.227 538.385 920.19 547.755C935.555 568.347 939.482 599.217 930.461 628.341C922.824 652.962 906.891 676.35 883.059 697.829C823.513 751.525 743.381 769.834 672.94 782.79C672.907 782.876 672.838 782.883 672.78 782.86Z" fill="#D900C6" fill-opacity="0.66"/>
<path d="M672.78 782.86C672.693 782.827 672.618 782.764 672.594 782.655C672.552 782.506 672.659 782.316 672.808 782.274C732.607 765.914 800.828 743.873 853.73 689.055C874.867 667.158 889.5 643.863 897.265 619.855C906.404 591.54 904.852 562.255 893.175 543.461C887.907 534.948 880.286 527.876 870.576 522.412C840.586 505.589 800.595 511.341 768.612 536.949C768.469 537.059 768.274 537.049 768.163 536.907C768.052 536.764 768.09 536.58 768.204 536.459C783.839 523.931 801.818 515.894 820.096 513.246C838.511 510.586 856.057 513.589 870.829 521.847C880.654 527.355 888.34 534.519 893.672 543.123C905.419 562.077 907.002 591.54 897.825 620.039C890.055 644.145 875.371 667.487 854.161 689.488C801.173 744.438 732.843 766.503 672.964 782.899C672.935 782.888 672.838 782.883 672.78 782.86Z" fill="#D900C6" fill-opacity="0.66"/>
<path d="M672.78 782.86C672.693 782.827 672.647 782.775 672.611 782.695C672.541 782.535 672.608 782.362 672.768 782.292C722.011 762.56 778.397 736.85 824.707 680.864C843.239 658.486 856.614 635.265 864.499 611.801C873.783 584.139 874.564 556.291 866.466 539.152C862.799 531.395 857.205 525.176 849.754 520.657C826.863 506.691 794.296 514.895 766.832 541.53C766.718 541.651 766.523 541.642 766.401 541.528C766.279 541.414 766.288 541.219 766.402 541.097C794.07 514.277 826.914 506.047 850.065 520.114C857.591 524.696 863.307 531.028 867.009 538.866C875.149 556.154 874.41 584.151 865.059 611.986C857.151 635.507 843.743 658.814 825.16 681.239C778.747 737.317 722.27 763.092 672.987 782.841C672.935 782.888 672.866 782.894 672.78 782.86Z" fill="#D900C6" fill-opacity="0.66"/>
<path d="M672.78 782.86C672.722 782.838 672.676 782.787 672.629 782.735C672.547 782.604 672.597 782.391 672.728 782.31C711.308 759.397 755.809 730.23 795.411 673.462C811.241 650.764 823.324 627.704 831.274 604.929C840.687 578.047 843.717 551.768 839.174 536.342C837.126 529.379 833.48 524.05 828.329 520.457C812.485 509.395 787.432 519.988 764.538 547.436C764.424 547.557 764.217 547.577 764.095 547.463C763.973 547.349 763.942 547.171 764.067 547.021C787.16 519.319 812.529 508.682 828.668 519.926C833.924 523.592 837.652 529.053 839.753 536.136C844.32 551.671 841.303 578.087 831.845 605.084C823.844 627.906 811.779 651.006 795.897 673.75C756.221 730.622 711.67 759.836 673.038 782.795C672.976 782.87 672.866 782.894 672.78 782.86Z" fill="#D900C6" fill-opacity="0.66"/>
<path d="M672.78 782.86C672.751 782.849 672.693 782.827 672.676 782.787C672.554 782.673 672.563 782.478 672.677 782.356C700.534 756.505 733.02 724.129 765.716 666.999C778.808 644.165 789.491 621.457 797.49 599.497C806.925 573.585 812.136 549.049 811.115 535.422C810.635 529.3 808.965 524.872 806.102 522.234C804.045 520.341 801.512 519.589 798.514 519.949C788.876 521.146 775.076 534.254 761.605 554.984C761.52 555.117 761.343 555.147 761.169 555.08C761.036 554.995 760.977 554.806 761.073 554.645C774.831 533.43 788.433 520.576 798.427 519.319C801.603 518.928 804.349 519.729 806.528 521.736C809.513 524.488 811.265 529.048 811.747 535.336C812.792 549.072 807.547 573.694 798.079 599.692C790.068 621.681 779.374 644.419 766.271 667.281C733.512 724.486 701.015 756.891 673.107 782.788C673.033 782.892 672.895 782.905 672.78 782.86Z" fill="#D900C6" fill-opacity="0.66"/>
<path d="M672.78 782.86C672.751 782.849 672.751 782.849 672.722 782.838C672.589 782.753 672.529 782.564 672.625 782.402C689.491 754.304 709.586 719.601 734.942 663.4C745.053 640.967 754.175 619.111 762.033 598.455C771.295 574.101 778.52 551.74 780.931 540.143C781.996 534.92 782.223 531.427 781.596 529.791C781.282 528.972 780.862 528.942 780.695 528.943C778.181 528.829 770.392 538.867 756.777 567.499C756.721 567.643 756.48 567.749 756.358 567.635C756.185 567.568 756.126 567.379 756.222 567.217C767.874 542.697 777.046 528.156 780.706 528.317C781.166 528.33 781.773 528.566 782.146 529.573C782.815 531.358 782.612 534.96 781.513 540.27C779.119 551.907 771.855 574.285 762.582 598.669C754.713 619.353 745.619 641.22 735.48 663.642C710.112 719.872 690.006 754.603 673.14 782.702C673.085 782.846 672.924 782.916 672.78 782.86Z" fill="#D900C6" fill-opacity="0.66"/>
<path d="M672.78 782.86C672.635 782.804 672.554 782.673 672.581 782.518C679.119 750.374 687.703 711.166 706.966 652.598C714.674 629.165 722.699 606.883 730.834 586.368C740.454 562.12 750.231 540.717 756.292 530.505C759.066 525.846 761.359 523.023 763.047 522.187C764.002 521.695 764.626 521.971 764.956 522.232C767.794 524.595 764.715 541.503 756.759 567.459C756.692 567.632 756.532 567.702 756.376 567.675C756.376 567.675 756.376 567.675 756.347 567.664C756.203 567.608 756.103 567.436 756.159 567.292C765.443 536.978 766.463 524.343 764.542 522.701C764.42 522.587 764.089 522.326 763.305 522.718C761.727 523.531 759.536 526.261 756.807 530.804C750.728 540.977 741.003 562.333 731.383 586.581C723.247 607.096 715.194 629.367 707.526 652.782C688.303 711.333 679.701 750.5 673.163 782.644C673.136 782.8 672.953 782.928 672.798 782.9C672.809 782.872 672.809 782.872 672.78 782.86Z" fill="#D900C6" fill-opacity="0.66"/>
<path d="M672.78 782.86C672.664 782.815 672.6 782.724 672.587 782.587C669.47 744.669 667.372 698.825 681.833 634.478C687.601 608.766 695.061 584.773 703.996 563.143C714.55 537.599 727.314 515.865 737.358 506.438C741.959 502.124 746.329 499.942 750.39 499.928C753.352 499.918 755.93 501.151 757.998 503.613C764.505 511.247 765.85 529.941 761.708 554.891C761.681 555.047 761.527 555.186 761.343 555.147C761.158 555.109 761.047 554.966 761.085 554.782C765.142 530.395 763.81 511.408 757.508 504.019C755.539 501.729 753.163 500.574 750.379 500.554C746.486 500.566 742.264 502.706 737.777 506.899C727.825 516.263 715.094 537.91 704.573 563.367C695.661 584.939 688.201 608.933 682.444 634.616C668.027 698.847 670.108 744.652 673.208 782.529C673.209 782.696 673.084 782.846 672.918 782.848C672.878 782.865 672.838 782.883 672.78 782.86Z" fill="#D900C6" fill-opacity="0.66"/>
<path d="M672.78 782.86C672.693 782.827 672.618 782.764 672.594 782.655C659.552 739.656 646.447 688.01 655.57 619.268C659.208 591.767 665.901 566.581 675.405 544.343C686.653 518.041 702.26 496.516 716.146 488.15C722.477 484.342 728.914 482.831 735.267 483.674C754.792 486.285 766.299 511.248 764.634 547.274C764.636 547.441 764.482 547.58 764.315 547.581C764.148 547.583 764.009 547.429 764.007 547.263C765.676 511.569 754.361 486.881 735.159 484.295C728.933 483.468 722.645 484.938 716.434 488.693C702.668 497.006 687.163 518.438 675.96 544.625C666.479 566.805 659.797 591.963 656.181 619.406C647.074 688.021 660.184 739.57 673.208 782.529C673.249 782.678 673.171 782.88 672.993 782.91C672.935 782.888 672.838 782.883 672.78 782.86Z" fill="#D900C6" fill-opacity="0.66"/>
<path d="M672.78 782.86C672.722 782.838 672.647 782.775 672.611 782.695C649.585 734.855 625.292 677.702 628.937 605.009C630.396 575.932 636.209 549.674 646.254 526.983C658.135 500.165 676.501 478.982 694.177 471.724C702.24 468.423 710.691 467.628 719.337 469.328C745.941 474.591 764.627 502.806 766.922 541.299C766.924 541.466 766.799 541.616 766.632 541.618C766.465 541.619 766.314 541.494 766.312 541.328C764.032 503.138 745.562 475.14 719.228 469.949C710.71 468.265 702.356 469.065 694.414 472.313C676.869 479.49 658.645 500.562 646.82 527.236C636.798 549.87 630.989 576.03 629.553 605.05C625.923 677.616 650.164 734.649 673.172 782.449C673.243 782.609 673.176 782.782 673.016 782.852C672.964 782.899 672.866 782.894 672.78 782.86Z" fill="#D900C6" fill-opacity="0.66"/>
<path d="M672.78 782.86C672.722 782.838 672.676 782.787 672.629 782.735C639.522 730.216 604.009 667.809 602.014 591.499C601.208 560.979 606.143 533.816 616.685 510.788C629.125 483.556 650.182 462.889 671.673 456.847C681.415 454.099 691.922 454.003 702.888 456.572C719.402 460.434 734.362 470.092 746.123 484.476C757.848 498.78 765.669 516.806 768.764 536.643C768.794 536.821 768.67 536.971 768.492 537.002C768.314 537.032 768.163 536.907 768.132 536.729C761.824 496.246 736.165 465.023 702.722 457.171C691.882 454.617 681.473 454.719 671.841 457.442C650.539 463.425 629.624 483.982 617.251 511.041C606.772 533.994 601.852 561.03 602.652 591.482C604.645 667.626 640.123 729.952 673.195 782.391C673.277 782.523 673.227 782.736 673.096 782.817C672.976 782.87 672.866 782.894 672.78 782.86Z" fill="#D900C6" fill-opacity="0.66"/>
<path d="M672.78 782.86C672.722 782.838 672.664 782.815 672.658 782.747C629.437 725.635 582.681 658.032 575 578.22C571.919 546.285 575.954 518.275 586.941 494.955C599.947 467.38 623.684 447.256 648.921 442.437C660.371 440.254 672.893 440.874 686.152 444.301C706.113 449.469 724.66 460.587 739.726 476.387C754.717 492.125 765.307 511.492 770.38 532.397C770.411 532.574 770.315 532.736 770.137 532.766C769.988 532.808 769.797 532.701 769.755 532.552C759.426 489.843 726.526 455.443 685.975 444.928C672.813 441.506 660.39 440.891 649.008 443.068C623.978 447.868 600.394 467.852 587.456 495.255C576.514 518.459 572.512 546.382 575.57 578.209C583.22 657.843 629.929 725.395 673.086 782.415C673.196 782.558 673.158 782.742 673.016 782.852C673.004 782.881 672.895 782.905 672.78 782.86Z" fill="#D900C6" fill-opacity="0.66"/>
<path d="M672.78 782.86C672.722 782.838 672.664 782.815 672.658 782.747C629.437 725.635 582.681 658.032 575 578.22C572.467 551.803 574.815 527.879 582.022 507.103C582.089 506.931 582.249 506.86 582.423 506.927C582.567 506.984 582.666 507.155 582.599 507.328C575.426 528.017 573.072 551.872 575.61 578.191C583.253 657.757 629.887 725.246 673.015 782.255C743.318 769.312 823.283 751.005 882.635 697.466C902.275 679.763 916.642 660.575 925.318 640.468C925.373 640.324 925.574 640.236 925.718 640.292C925.863 640.349 925.951 640.549 925.895 640.693C917.186 660.885 902.768 680.12 883.066 697.898C823.519 751.594 743.388 769.903 672.947 782.859C672.907 782.876 672.838 782.883 672.78 782.86Z" fill="#D900C6" fill-opacity="0.66"/>
<path d="M684.924 751.601C684.866 751.579 684.819 751.527 684.773 751.476C680.338 745.011 675.734 738.382 671.306 731.986C648.546 699.204 625.026 665.297 607.062 631.46C600.382 618.884 594.736 606.81 590.296 595.568C585.785 584.167 582.542 573.523 580.318 563.076C576.881 546.687 576.448 531.631 579.013 518.27C579.766 514.45 580.761 510.692 581.993 507.092C582.06 506.919 582.22 506.849 582.394 506.916C582.538 506.972 582.638 507.144 582.57 507.317C581.321 510.876 580.337 514.606 579.596 518.396C577.035 531.66 577.461 546.647 580.892 562.968C583.098 573.374 586.352 583.989 590.846 595.351C595.286 606.592 600.903 618.656 607.566 631.192C625.54 665 649.043 698.866 671.774 731.637C676.156 737.982 680.724 744.531 685.141 750.956C692.737 749.198 700.499 747.439 708.015 745.717C746.908 736.886 787.15 727.749 823.223 714.971C836.601 710.221 848.917 705.124 859.753 699.817C870.738 694.469 880.276 688.823 888.957 682.646C902.495 672.951 912.927 662.182 920.004 650.64C922.016 647.343 923.808 643.927 925.3 640.428C925.356 640.284 925.556 640.196 925.701 640.252C925.845 640.309 925.933 640.509 925.877 640.653C924.385 644.152 922.582 647.596 920.53 650.91C913.431 662.51 902.908 673.343 889.319 683.085C880.626 689.291 871.059 694.925 860.034 700.291C849.169 705.587 836.842 710.712 823.424 715.48C787.3 728.305 747.058 737.441 708.136 746.261C700.551 747.99 692.72 749.755 685.055 751.519C685.05 751.617 684.981 751.623 684.924 751.601Z" fill="#D900C6" fill-opacity="0.66"/>
<path d="M697.079 720.313C697.021 720.29 696.974 720.239 696.928 720.188C681.54 695.376 664.187 670.663 647.372 646.788C637.121 632.195 627.42 618.413 618.307 604.825C610.457 593.121 604.032 582.966 598.648 573.812C592.959 564.074 588.687 555.65 585.643 548.002C580.652 535.353 578.839 524.535 580.151 514.998C580.507 512.285 581.135 509.643 582.011 507.132C582.078 506.959 582.238 506.889 582.411 506.956C582.556 507.012 582.655 507.184 582.588 507.356C581.723 509.839 581.107 512.451 580.745 515.096C579.466 524.547 581.255 535.256 586.192 547.784C589.219 555.393 593.462 563.806 599.163 573.514C604.547 582.668 610.971 592.824 618.792 604.517C627.905 618.104 637.578 631.875 647.828 646.468C664.597 670.291 681.915 694.925 697.285 719.697C725.318 711.786 754.753 705.315 783.177 699.049C800.591 695.204 817.053 691.585 832.948 687.713C846.64 684.378 858.236 681.223 868.359 678.093C879.118 674.779 887.928 671.437 895.297 667.867C907.427 661.968 915.976 655.275 921.384 647.429C922.901 645.233 924.211 642.89 925.26 640.446C925.316 640.302 925.516 640.214 925.66 640.27C925.805 640.326 925.893 640.526 925.837 640.67C924.777 643.143 923.457 645.515 921.888 647.757C916.377 655.697 907.777 662.436 895.556 668.398C888.158 671.957 879.308 675.317 868.537 678.659C858.385 681.778 846.79 684.933 833.087 688.297C817.191 692.169 800.73 695.788 783.316 699.634C754.822 705.906 725.307 712.412 697.234 720.34C697.223 720.369 697.136 720.335 697.079 720.313Z" fill="#D900C6" fill-opacity="0.66"/>
<path d="M709.222 689.053C709.165 689.031 709.089 688.969 709.071 688.928C690.777 655.858 665.535 620.653 629.592 578.173C622.012 569.194 614.424 560.41 607.041 552.037C601.055 545.202 595.384 538.755 591.007 532.91C584.402 524.077 581.304 517.336 581.272 511.686C581.26 510.09 581.52 508.566 582.022 507.103C582.089 506.931 582.249 506.86 582.423 506.927C582.567 506.984 582.666 507.155 582.599 507.328C582.12 508.733 581.883 510.199 581.888 511.727C581.911 517.141 585.045 523.962 591.504 532.572C595.852 538.406 601.523 544.853 607.491 551.648C614.892 560.061 622.48 568.845 630.059 577.824C665.927 620.241 691.163 655.378 709.457 688.448C745.268 676.43 787.646 667.527 842.713 660.437C854.298 658.935 865.855 657.589 877.034 656.362C886.053 655.389 894.56 654.45 901.706 653.081C912.255 651.078 919.172 648.161 922.873 644.194C923.908 643.071 924.723 641.829 925.318 640.468C925.373 640.324 925.574 640.236 925.718 640.292C925.863 640.349 925.951 640.549 925.895 640.693C925.278 642.111 924.44 643.41 923.355 644.58C919.528 648.697 912.721 651.59 901.845 653.665C894.67 655.023 886.134 655.951 877.103 656.952C865.936 658.151 854.396 659.537 842.812 661.039C787.647 668.124 745.258 677.056 709.407 689.092C709.367 689.11 709.309 689.087 709.222 689.053Z" fill="#D900C6" fill-opacity="0.66"/>
<path d="M721.366 657.794C721.308 657.772 721.233 657.709 721.198 657.629C703.337 621.047 674.054 582.382 640.876 551.52C631.697 542.981 623.119 535.802 615.445 530.234C608.338 525.086 602.177 521.267 596.412 517.8L594.773 516.799C588.18 512.811 583.815 510.187 582.474 508.506C582.02 507.965 581.876 507.478 582.015 507.034C582.082 506.862 582.243 506.791 582.416 506.859C582.56 506.915 582.66 507.086 582.593 507.259C582.492 507.518 582.72 507.872 582.953 508.128C584.23 509.718 588.785 512.45 595.084 516.256L596.722 517.258C602.459 520.713 608.677 524.555 615.784 529.703C623.488 535.282 632.065 542.461 641.273 551.012C674.452 581.873 703.716 620.498 721.617 657.063C759.508 642.172 807.173 633.433 852.483 633.063C865.049 632.971 876.223 633.466 885.684 634.522C894.345 635.499 901.555 636.874 908.148 638.209L910.062 638.587C917.278 640.031 922.454 641.08 924.498 640.78C924.814 640.737 925.221 640.63 925.351 640.382C925.407 640.238 925.607 640.15 925.752 640.206C925.896 640.262 925.985 640.462 925.929 640.606C925.761 641.039 925.298 641.29 924.597 641.382C922.473 641.717 917.481 640.707 909.965 639.18L908.051 638.801C901.457 637.466 894.277 636.102 885.645 635.136C876.224 634.063 865.05 633.568 852.513 633.672C807.173 634.03 759.468 642.787 721.624 657.729C721.522 657.821 721.453 657.828 721.366 657.794Z" fill="#D900C6" fill-opacity="0.66"/>
<path d="M733.51 626.535C733.423 626.501 733.377 626.45 733.341 626.37C716.854 587.536 686.487 549.61 652.15 524.897C641.942 517.549 632.422 512.027 623.826 508.489C616.356 505.388 608.997 503.457 601.834 502.73C593.589 501.882 586.934 502.844 584.021 505.294C583.326 505.886 582.861 506.567 582.599 507.328C582.532 507.501 582.372 507.571 582.199 507.504C582.065 507.419 581.955 507.276 582.022 507.103C582.318 506.257 582.855 505.471 583.642 504.815C586.668 502.244 593.513 501.222 601.914 502.098C609.134 502.847 616.551 504.8 624.061 507.884C632.686 511.433 642.264 516.978 652.489 524.365C686.855 549.089 717.193 587.004 733.761 625.803C772.187 608.335 820.182 600.885 862.209 605.805C874.768 607.269 885.549 609.633 894.308 612.837C901.912 615.592 908.749 619.21 914.553 623.52C921.341 628.545 925.701 633.919 926.198 637.859C926.336 638.874 926.213 639.788 925.849 640.642C925.793 640.786 925.592 640.874 925.448 640.817C925.303 640.761 925.215 640.561 925.271 640.417C925.591 639.679 925.68 638.852 925.595 637.957C925.1 634.183 920.84 628.98 914.184 624.041C908.398 619.77 901.648 616.186 894.073 613.442C885.371 610.261 874.62 607.908 862.1 606.426C820.056 601.466 772.068 608.985 733.688 626.504C733.694 626.573 733.597 626.568 733.51 626.535Z" fill="#D900C6" fill-opacity="0.66"/>
<path d="M745.654 595.275C745.567 595.242 745.492 595.179 745.456 595.099C730.898 554.892 699.452 517.774 663.405 498.233C652.205 492.158 641.714 488.281 632.23 486.685C623.564 485.209 615.164 485.527 607.261 487.563C597.351 490.146 589.497 495.219 585.204 501.907C584.123 503.576 583.251 505.393 582.599 507.328C582.532 507.501 582.372 507.571 582.199 507.504C582.065 507.419 581.955 507.276 582.022 507.103C582.696 505.111 583.608 503.276 584.7 501.578C589.067 494.786 597.034 489.592 607.122 486.979C615.106 484.907 623.592 484.623 632.327 486.093C641.909 487.693 652.458 491.593 663.705 497.719C699.781 517.272 731.237 554.361 745.922 594.584C783.91 574.824 832.155 568.697 871.969 578.627C884.391 581.728 894.818 585.945 902.967 591.233C910.432 596.056 916.46 602.012 920.963 608.901C926.642 617.639 929.013 626.85 927.649 634.809C927.308 636.798 926.703 638.785 925.895 640.693C925.839 640.837 925.639 640.925 925.494 640.869C925.35 640.813 925.262 640.612 925.318 640.468C926.114 638.589 926.697 636.661 927.027 634.7C928.375 626.867 926.034 617.834 920.437 609.227C915.981 602.39 910 596.485 902.61 591.724C894.536 586.498 884.149 582.264 871.814 579.197C832.029 569.278 783.773 575.433 745.889 595.267C745.838 595.314 745.74 595.309 745.654 595.275Z" fill="#D900C6" fill-opacity="0.66"/>
<path d="M925.494 640.869C925.321 640.801 925.262 640.612 925.318 640.468C926.619 637.459 927.668 634.418 928.447 631.471C931.598 619.598 930.967 606.421 926.731 594.397C923.438 584.993 918.184 576.785 911.158 569.977C903.73 562.747 893.813 556.706 881.742 552.017C881.655 551.983 881.597 551.961 881.511 551.927C843.515 537.233 795.07 541.989 758.062 564.019C757.891 564.119 757.66 564.029 757.6 563.84C745.17 522.603 712.63 486.419 674.69 471.581C674.603 471.547 674.546 471.524 674.459 471.491C662.359 466.79 650.994 464.563 640.633 464.882C630.824 465.15 621.425 467.7 612.659 472.385C601.388 478.385 592.056 487.691 586.375 498.549C584.961 501.249 583.681 504.2 582.611 507.299C582.543 507.472 582.383 507.542 582.21 507.475C582.065 507.419 581.966 507.247 582.033 507.075C583.115 503.947 584.406 500.967 585.831 498.238C591.597 487.247 601.02 477.877 612.383 471.813C621.24 467.064 630.737 464.519 640.655 464.228C651.113 463.913 662.566 466.174 674.723 470.897C674.81 470.931 674.867 470.953 674.954 470.987C693.713 478.308 711.389 490.812 726.116 507.143C740.843 523.475 751.893 542.855 758.117 563.278C776.457 552.431 797.732 545.576 819.622 543.469C841.511 541.362 862.993 544.07 881.775 551.333C881.861 551.367 881.919 551.39 882.006 551.423C894.163 556.146 904.127 562.238 911.642 569.502C918.732 576.401 924.021 584.689 927.35 594.173C931.639 606.317 932.265 619.592 929.098 631.592C928.308 634.567 927.248 637.637 925.935 640.675C925.839 640.837 925.668 640.936 925.494 640.869Z" fill="#D900C6" fill-opacity="0.66"/>
<path d="M582.199 507.504C582.054 507.448 581.955 507.276 582.022 507.103C583.516 502.743 585.13 498.761 586.941 494.955C599.947 467.38 623.684 447.256 648.921 442.437C660.371 440.254 672.893 440.874 686.152 444.301C706.113 449.469 724.66 460.587 739.726 476.387C754.624 492.023 765.183 511.212 770.255 531.95C788.014 520.115 808.769 513.057 830.286 511.568C852.068 510.083 873.227 514.39 891.471 524.064C903.566 530.487 913.234 538.454 920.196 547.823C935.561 568.415 939.488 599.286 930.467 628.41C929.216 632.4 927.73 636.399 925.895 640.693C925.839 640.837 925.639 640.925 925.494 640.869C925.35 640.813 925.262 640.612 925.318 640.468C927.141 636.203 928.656 632.216 929.867 628.243C938.839 599.332 934.942 568.639 919.688 548.19C912.79 538.911 903.169 530.996 891.161 524.606C854.118 504.977 806.681 508.168 770.199 532.691C770.028 532.79 769.768 532.689 769.737 532.512C759.408 489.803 726.508 455.402 685.957 444.888C672.796 441.466 660.372 440.851 648.991 443.028C623.961 447.828 600.377 467.812 587.438 495.215C585.667 499.003 584.065 502.956 582.542 507.305C582.572 507.483 582.383 507.542 582.199 507.504Z" fill="#D900C6" fill-opacity="0.66"/>
<path d="M672.78 782.86C672.607 782.793 672.536 782.633 672.603 782.46L756.21 567.246C756.278 567.073 756.438 567.003 756.611 567.07C756.784 567.137 756.855 567.297 756.788 567.47L673.181 782.684C673.125 782.828 672.953 782.928 672.78 782.86Z" fill="#D900C6" fill-opacity="0.66"/>
<path d="M672.612 783.292C672.468 783.236 672.363 783.163 672.281 783.031C629.014 725.869 582.223 658.185 574.547 578.275C571.47 546.243 575.498 518.164 586.519 494.758C599.569 467.067 623.45 446.833 648.835 441.973C660.355 439.783 672.945 440.397 686.262 443.846C726.853 454.343 759.838 488.61 770.546 531.201C807.197 507.009 854.625 504.013 891.697 523.654C903.85 530.1 913.593 538.129 920.573 547.539C936.02 568.262 939.988 599.282 930.912 628.549C923.241 653.257 907.257 676.691 883.363 698.246C823.725 752.005 743.513 770.35 673.032 783.323C672.894 783.336 672.756 783.349 672.612 783.292ZM697.655 449.167C693.815 447.675 689.884 446.414 685.876 445.354C672.772 441.954 660.417 441.333 649.116 443.475C624.235 448.233 600.783 468.136 587.9 495.394C576.991 518.512 573.024 546.349 576.075 578.106C583.699 657.465 630.164 724.79 673.228 781.708C743.393 768.778 823.162 750.46 882.349 697.089C906.028 675.749 921.864 652.523 929.463 628.086C938.39 599.291 934.513 568.804 919.352 548.457C912.489 539.259 902.926 531.366 890.964 525.027C854.112 505.505 806.824 508.654 770.474 533.096C770.069 533.37 769.404 533.112 769.29 532.636C760.043 494.327 732.539 462.719 697.655 449.167Z" fill="#D900C6" fill-opacity="0.66"/>
</g>
<g filter="url(#filter2_f_2110_22)">
<path d="M672.78 782.86C672.693 782.827 672.6 782.724 672.605 782.626C672.574 782.449 672.699 782.298 672.848 782.257C743.22 769.308 823.243 751.022 882.646 697.437C906.387 676.021 922.275 652.749 929.879 628.214C938.85 599.304 934.954 568.61 919.699 548.161C912.801 538.883 903.18 530.967 891.172 524.578C854.129 504.948 806.692 508.139 770.21 532.662C770.079 532.744 769.855 532.723 769.784 532.563C769.673 532.42 769.711 532.236 769.854 532.126C787.68 520.118 808.567 512.979 830.28 511.5C852.061 510.014 873.221 514.321 891.465 523.995C903.56 530.418 913.227 538.385 920.19 547.755C935.555 568.347 939.482 599.217 930.461 628.341C922.824 652.962 906.891 676.35 883.059 697.829C823.513 751.525 743.381 769.834 672.94 782.79C672.907 782.876 672.838 782.883 672.78 782.86Z" fill="#D900C6" fill-opacity="0.66"/>
<path d="M672.78 782.86C672.693 782.827 672.618 782.764 672.594 782.655C672.552 782.506 672.659 782.316 672.808 782.274C732.607 765.914 800.828 743.873 853.73 689.055C874.867 667.158 889.5 643.863 897.265 619.855C906.404 591.54 904.852 562.255 893.175 543.461C887.907 534.948 880.286 527.876 870.576 522.412C840.586 505.589 800.595 511.341 768.612 536.949C768.469 537.059 768.274 537.049 768.163 536.907C768.052 536.764 768.09 536.58 768.204 536.459C783.839 523.931 801.818 515.894 820.096 513.246C838.511 510.586 856.057 513.589 870.829 521.847C880.654 527.355 888.34 534.519 893.672 543.123C905.419 562.077 907.002 591.54 897.825 620.039C890.055 644.145 875.371 667.487 854.161 689.488C801.173 744.438 732.843 766.503 672.964 782.899C672.935 782.888 672.838 782.883 672.78 782.86Z" fill="#D900C6" fill-opacity="0.66"/>
<path d="M672.78 782.86C672.693 782.827 672.647 782.775 672.611 782.695C672.541 782.535 672.608 782.362 672.768 782.292C722.011 762.56 778.397 736.85 824.707 680.864C843.239 658.486 856.614 635.265 864.499 611.801C873.783 584.139 874.564 556.291 866.466 539.152C862.799 531.395 857.205 525.176 849.754 520.657C826.863 506.691 794.296 514.895 766.832 541.53C766.718 541.651 766.523 541.642 766.401 541.528C766.279 541.414 766.288 541.219 766.402 541.097C794.07 514.277 826.914 506.047 850.065 520.114C857.591 524.696 863.307 531.028 867.009 538.866C875.149 556.154 874.41 584.151 865.059 611.986C857.151 635.507 843.743 658.814 825.16 681.239C778.747 737.317 722.27 763.092 672.987 782.841C672.935 782.888 672.866 782.894 672.78 782.86Z" fill="#D900C6" fill-opacity="0.66"/>
<path d="M672.78 782.86C672.722 782.838 672.676 782.787 672.629 782.735C672.547 782.604 672.597 782.391 672.728 782.31C711.308 759.397 755.809 730.23 795.411 673.462C811.241 650.764 823.324 627.704 831.274 604.929C840.687 578.047 843.717 551.768 839.174 536.342C837.126 529.379 833.48 524.05 828.329 520.457C812.485 509.395 787.432 519.988 764.538 547.436C764.424 547.557 764.217 547.577 764.095 547.463C763.973 547.349 763.942 547.171 764.067 547.021C787.16 519.319 812.529 508.682 828.668 519.926C833.924 523.592 837.652 529.053 839.753 536.136C844.32 551.671 841.303 578.087 831.845 605.084C823.844 627.906 811.779 651.006 795.897 673.75C756.221 730.622 711.67 759.836 673.038 782.795C672.976 782.87 672.866 782.894 672.78 782.86Z" fill="#D900C6" fill-opacity="0.66"/>
<path d="M672.78 782.86C672.751 782.849 672.693 782.827 672.676 782.787C672.554 782.673 672.563 782.478 672.677 782.356C700.534 756.505 733.02 724.129 765.716 666.999C778.808 644.165 789.491 621.457 797.49 599.497C806.925 573.585 812.136 549.049 811.115 535.422C810.635 529.3 808.965 524.872 806.102 522.234C804.045 520.341 801.512 519.589 798.514 519.949C788.876 521.146 775.076 534.254 761.605 554.984C761.52 555.117 761.343 555.147 761.169 555.08C761.036 554.995 760.977 554.806 761.073 554.645C774.831 533.43 788.433 520.576 798.427 519.319C801.603 518.928 804.349 519.729 806.528 521.736C809.513 524.488 811.265 529.048 811.747 535.336C812.792 549.072 807.547 573.694 798.079 599.692C790.068 621.681 779.374 644.419 766.271 667.281C733.512 724.486 701.015 756.891 673.107 782.788C673.033 782.892 672.895 782.905 672.78 782.86Z" fill="#D900C6" fill-opacity="0.66"/>
<path d="M672.78 782.86C672.751 782.849 672.751 782.849 672.722 782.838C672.589 782.753 672.529 782.564 672.625 782.402C689.491 754.304 709.586 719.601 734.942 663.4C745.053 640.967 754.175 619.111 762.033 598.455C771.295 574.101 778.52 551.74 780.931 540.143C781.996 534.92 782.223 531.427 781.596 529.791C781.282 528.972 780.862 528.942 780.695 528.943C778.181 528.829 770.392 538.867 756.777 567.499C756.721 567.643 756.48 567.749 756.358 567.635C756.185 567.568 756.126 567.379 756.222 567.217C767.874 542.697 777.046 528.156 780.706 528.317C781.166 528.33 781.773 528.566 782.146 529.573C782.815 531.358 782.612 534.96 781.513 540.27C779.119 551.907 771.855 574.285 762.582 598.669C754.713 619.353 745.619 641.22 735.48 663.642C710.112 719.872 690.006 754.603 673.14 782.702C673.085 782.846 672.924 782.916 672.78 782.86Z" fill="#D900C6" fill-opacity="0.66"/>
<path d="M672.78 782.86C672.635 782.804 672.554 782.673 672.581 782.518C679.119 750.374 687.703 711.166 706.966 652.598C714.674 629.165 722.699 606.883 730.834 586.368C740.454 562.12 750.231 540.717 756.292 530.505C759.066 525.846 761.359 523.023 763.047 522.187C764.002 521.695 764.626 521.971 764.956 522.232C767.794 524.595 764.715 541.503 756.759 567.459C756.692 567.632 756.532 567.702 756.376 567.675C756.376 567.675 756.376 567.675 756.347 567.664C756.203 567.608 756.103 567.436 756.159 567.292C765.443 536.978 766.463 524.343 764.542 522.701C764.42 522.587 764.089 522.326 763.305 522.718C761.727 523.531 759.536 526.261 756.807 530.804C750.728 540.977 741.003 562.333 731.383 586.581C723.247 607.096 715.194 629.367 707.526 652.782C688.303 711.333 679.701 750.5 673.163 782.644C673.136 782.8 672.953 782.928 672.798 782.9C672.809 782.872 672.809 782.872 672.78 782.86Z" fill="#D900C6" fill-opacity="0.66"/>
<path d="M672.78 782.86C672.664 782.815 672.6 782.724 672.587 782.587C669.47 744.669 667.372 698.825 681.833 634.478C687.601 608.766 695.061 584.773 703.996 563.143C714.55 537.599 727.314 515.865 737.358 506.438C741.959 502.124 746.329 499.942 750.39 499.928C753.352 499.918 755.93 501.151 757.998 503.613C764.505 511.247 765.85 529.941 761.708 554.891C761.681 555.047 761.527 555.186 761.343 555.147C761.158 555.109 761.047 554.966 761.085 554.782C765.142 530.395 763.81 511.408 757.508 504.019C755.539 501.729 753.163 500.574 750.379 500.554C746.486 500.566 742.264 502.706 737.777 506.899C727.825 516.263 715.094 537.91 704.573 563.367C695.661 584.939 688.201 608.933 682.444 634.616C668.027 698.847 670.108 744.652 673.208 782.529C673.209 782.696 673.084 782.846 672.918 782.848C672.878 782.865 672.838 782.883 672.78 782.86Z" fill="#D900C6" fill-opacity="0.66"/>
<path d="M672.78 782.86C672.693 782.827 672.618 782.764 672.594 782.655C659.552 739.656 646.447 688.01 655.57 619.268C659.208 591.767 665.901 566.581 675.405 544.343C686.653 518.041 702.26 496.516 716.146 488.15C722.477 484.342 728.914 482.831 735.267 483.674C754.792 486.285 766.299 511.248 764.634 547.274C764.636 547.441 764.482 547.58 764.315 547.581C764.148 547.583 764.009 547.429 764.007 547.263C765.676 511.569 754.361 486.881 735.159 484.295C728.933 483.468 722.645 484.938 716.434 488.693C702.668 497.006 687.163 518.438 675.96 544.625C666.479 566.805 659.797 591.963 656.181 619.406C647.074 688.021 660.184 739.57 673.208 782.529C673.249 782.678 673.171 782.88 672.993 782.91C672.935 782.888 672.838 782.883 672.78 782.86Z" fill="#D900C6" fill-opacity="0.66"/>
<path d="M672.78 782.86C672.722 782.838 672.647 782.775 672.611 782.695C649.585 734.855 625.292 677.702 628.937 605.009C630.396 575.932 636.209 549.674 646.254 526.983C658.135 500.165 676.501 478.982 694.177 471.724C702.24 468.423 710.691 467.628 719.337 469.328C745.941 474.591 764.627 502.806 766.922 541.299C766.924 541.466 766.799 541.616 766.632 541.618C766.465 541.619 766.314 541.494 766.312 541.328C764.032 503.138 745.562 475.14 719.228 469.949C710.71 468.265 702.356 469.065 694.414 472.313C676.869 479.49 658.645 500.562 646.82 527.236C636.798 549.87 630.989 576.03 629.553 605.05C625.923 677.616 650.164 734.649 673.172 782.449C673.243 782.609 673.176 782.782 673.016 782.852C672.964 782.899 672.866 782.894 672.78 782.86Z" fill="#D900C6" fill-opacity="0.66"/>
<path d="M672.78 782.86C672.722 782.838 672.676 782.787 672.629 782.735C639.522 730.216 604.009 667.809 602.014 591.499C601.208 560.979 606.143 533.816 616.685 510.788C629.125 483.556 650.182 462.889 671.673 456.847C681.415 454.099 691.922 454.003 702.888 456.572C719.402 460.434 734.362 470.092 746.123 484.476C757.848 498.78 765.669 516.806 768.764 536.643C768.794 536.821 768.67 536.971 768.492 537.002C768.314 537.032 768.163 536.907 768.132 536.729C761.824 496.246 736.165 465.023 702.722 457.171C691.882 454.617 681.473 454.719 671.841 457.442C650.539 463.425 629.624 483.982 617.251 511.041C606.772 533.994 601.852 561.03 602.652 591.482C604.645 667.626 640.123 729.952 673.195 782.391C673.277 782.523 673.227 782.736 673.096 782.817C672.976 782.87 672.866 782.894 672.78 782.86Z" fill="#D900C6" fill-opacity="0.66"/>
<path d="M672.78 782.86C672.722 782.838 672.664 782.815 672.658 782.747C629.437 725.635 582.681 658.032 575 578.22C571.919 546.285 575.954 518.275 586.941 494.955C599.947 467.38 623.684 447.256 648.921 442.437C660.371 440.254 672.893 440.874 686.152 444.301C706.113 449.469 724.66 460.587 739.726 476.387C754.717 492.125 765.307 511.492 770.38 532.397C770.411 532.574 770.315 532.736 770.137 532.766C769.988 532.808 769.797 532.701 769.755 532.552C759.426 489.843 726.526 455.443 685.975 444.928C672.813 441.506 660.39 440.891 649.008 443.068C623.978 447.868 600.394 467.852 587.456 495.255C576.514 518.459 572.512 546.382 575.57 578.209C583.22 657.843 629.929 725.395 673.086 782.415C673.196 782.558 673.158 782.742 673.016 782.852C673.004 782.881 672.895 782.905 672.78 782.86Z" fill="#D900C6" fill-opacity="0.66"/>
<path d="M672.78 782.86C672.722 782.838 672.664 782.815 672.658 782.747C629.437 725.635 582.681 658.032 575 578.22C572.467 551.803 574.815 527.879 582.022 507.103C582.089 506.931 582.249 506.86 582.423 506.927C582.567 506.984 582.666 507.155 582.599 507.328C575.426 528.017 573.072 551.872 575.61 578.191C583.253 657.757 629.887 725.246 673.015 782.255C743.318 769.312 823.283 751.005 882.635 697.466C902.275 679.763 916.642 660.575 925.318 640.468C925.373 640.324 925.574 640.236 925.718 640.292C925.863 640.349 925.951 640.549 925.895 640.693C917.186 660.885 902.768 680.12 883.066 697.898C823.519 751.594 743.388 769.903 672.947 782.859C672.907 782.876 672.838 782.883 672.78 782.86Z" fill="#D900C6" fill-opacity="0.66"/>
<path d="M684.924 751.601C684.866 751.579 684.819 751.527 684.773 751.476C680.338 745.011 675.734 738.382 671.306 731.986C648.546 699.204 625.026 665.297 607.062 631.46C600.382 618.884 594.736 606.81 590.296 595.568C585.785 584.167 582.542 573.523 580.318 563.076C576.881 546.687 576.448 531.631 579.013 518.27C579.766 514.45 580.761 510.692 581.993 507.092C582.06 506.919 582.22 506.849 582.394 506.916C582.538 506.972 582.638 507.144 582.57 507.317C581.321 510.876 580.337 514.606 579.596 518.396C577.035 531.66 577.461 546.647 580.892 562.968C583.098 573.374 586.352 583.989 590.846 595.351C595.286 606.592 600.903 618.656 607.566 631.192C625.54 665 649.043 698.866 671.774 731.637C676.156 737.982 680.724 744.531 685.141 750.956C692.737 749.198 700.499 747.439 708.015 745.717C746.908 736.886 787.15 727.749 823.223 714.971C836.601 710.221 848.917 705.124 859.753 699.817C870.738 694.469 880.276 688.823 888.957 682.646C902.495 672.951 912.927 662.182 920.004 650.64C922.016 647.343 923.808 643.927 925.3 640.428C925.356 640.284 925.556 640.196 925.701 640.252C925.845 640.309 925.933 640.509 925.877 640.653C924.385 644.152 922.582 647.596 920.53 650.91C913.431 662.51 902.908 673.343 889.319 683.085C880.626 689.291 871.059 694.925 860.034 700.291C849.169 705.587 836.842 710.712 823.424 715.48C787.3 728.305 747.058 737.441 708.136 746.261C700.551 747.99 692.72 749.755 685.055 751.519C685.05 751.617 684.981 751.623 684.924 751.601Z" fill="#D900C6" fill-opacity="0.66"/>
<path d="M697.079 720.313C697.021 720.29 696.974 720.239 696.928 720.188C681.54 695.376 664.187 670.663 647.372 646.788C637.121 632.195 627.42 618.413 618.307 604.825C610.457 593.121 604.032 582.966 598.648 573.812C592.959 564.074 588.687 555.65 585.643 548.002C580.652 535.353 578.839 524.535 580.151 514.998C580.507 512.285 581.135 509.643 582.011 507.132C582.078 506.959 582.238 506.889 582.411 506.956C582.556 507.012 582.655 507.184 582.588 507.356C581.723 509.839 581.107 512.451 580.745 515.096C579.466 524.547 581.255 535.256 586.192 547.784C589.219 555.393 593.462 563.806 599.163 573.514C604.547 582.668 610.971 592.824 618.792 604.517C627.905 618.104 637.578 631.875 647.828 646.468C664.597 670.291 681.915 694.925 697.285 719.697C725.318 711.786 754.753 705.315 783.177 699.049C800.591 695.204 817.053 691.585 832.948 687.713C846.64 684.378 858.236 681.223 868.359 678.093C879.118 674.779 887.928 671.437 895.297 667.867C907.427 661.968 915.976 655.275 921.384 647.429C922.901 645.233 924.211 642.89 925.26 640.446C925.316 640.302 925.516 640.214 925.66 640.27C925.805 640.326 925.893 640.526 925.837 640.67C924.777 643.143 923.457 645.515 921.888 647.757C916.377 655.697 907.777 662.436 895.556 668.398C888.158 671.957 879.308 675.317 868.537 678.659C858.385 681.778 846.79 684.933 833.087 688.297C817.191 692.169 800.73 695.788 783.316 699.634C754.822 705.906 725.307 712.412 697.234 720.34C697.223 720.369 697.136 720.335 697.079 720.313Z" fill="#D900C6" fill-opacity="0.66"/>
<path d="M709.222 689.053C709.165 689.031 709.089 688.969 709.071 688.928C690.777 655.858 665.535 620.653 629.592 578.173C622.012 569.194 614.424 560.41 607.041 552.037C601.055 545.202 595.384 538.755 591.007 532.91C584.402 524.077 581.304 517.336 581.272 511.686C581.26 510.09 581.52 508.566 582.022 507.103C582.089 506.931 582.249 506.86 582.423 506.927C582.567 506.984 582.666 507.155 582.599 507.328C582.12 508.733 581.883 510.199 581.888 511.727C581.911 517.141 585.045 523.962 591.504 532.572C595.852 538.406 601.523 544.853 607.491 551.648C614.892 560.061 622.48 568.845 630.059 577.824C665.927 620.241 691.163 655.378 709.457 688.448C745.268 676.43 787.646 667.527 842.713 660.437C854.298 658.935 865.855 657.589 877.034 656.362C886.053 655.389 894.56 654.45 901.706 653.081C912.255 651.078 919.172 648.161 922.873 644.194C923.908 643.071 924.723 641.829 925.318 640.468C925.373 640.324 925.574 640.236 925.718 640.292C925.863 640.349 925.951 640.549 925.895 640.693C925.278 642.111 924.44 643.41 923.355 644.58C919.528 648.697 912.721 651.59 901.845 653.665C894.67 655.023 886.134 655.951 877.103 656.952C865.936 658.151 854.396 659.537 842.812 661.039C787.647 668.124 745.258 677.056 709.407 689.092C709.367 689.11 709.309 689.087 709.222 689.053Z" fill="#D900C6" fill-opacity="0.66"/>
<path d="M721.366 657.794C721.308 657.772 721.233 657.709 721.198 657.629C703.337 621.047 674.054 582.382 640.876 551.52C631.697 542.981 623.119 535.802 615.445 530.234C608.338 525.086 602.177 521.267 596.412 517.8L594.773 516.799C588.18 512.811 583.815 510.187 582.474 508.506C582.02 507.965 581.876 507.478 582.015 507.034C582.082 506.862 582.243 506.791 582.416 506.859C582.56 506.915 582.66 507.086 582.593 507.259C582.492 507.518 582.72 507.872 582.953 508.128C584.23 509.718 588.785 512.45 595.084 516.256L596.722 517.258C602.459 520.713 608.677 524.555 615.784 529.703C623.488 535.282 632.065 542.461 641.273 551.012C674.452 581.873 703.716 620.498 721.617 657.063C759.508 642.172 807.173 633.433 852.483 633.063C865.049 632.971 876.223 633.466 885.684 634.522C894.345 635.499 901.555 636.874 908.148 638.209L910.062 638.587C917.278 640.031 922.454 641.08 924.498 640.78C924.814 640.737 925.221 640.63 925.351 640.382C925.407 640.238 925.607 640.15 925.752 640.206C925.896 640.262 925.985 640.462 925.929 640.606C925.761 641.039 925.298 641.29 924.597 641.382C922.473 641.717 917.481 640.707 909.965 639.18L908.051 638.801C901.457 637.466 894.277 636.102 885.645 635.136C876.224 634.063 865.05 633.568 852.513 633.672C807.173 634.03 759.468 642.787 721.624 657.729C721.522 657.821 721.453 657.828 721.366 657.794Z" fill="#D900C6" fill-opacity="0.66"/>
<path d="M733.51 626.535C733.423 626.501 733.377 626.45 733.341 626.37C716.854 587.536 686.487 549.61 652.15 524.897C641.942 517.549 632.422 512.027 623.826 508.489C616.356 505.388 608.997 503.457 601.834 502.73C593.589 501.882 586.934 502.844 584.021 505.294C583.326 505.886 582.861 506.567 582.599 507.328C582.532 507.501 582.372 507.571 582.199 507.504C582.065 507.419 581.955 507.276 582.022 507.103C582.318 506.257 582.855 505.471 583.642 504.815C586.668 502.244 593.513 501.222 601.914 502.098C609.134 502.847 616.551 504.8 624.061 507.884C632.686 511.433 642.264 516.978 652.489 524.365C686.855 549.089 717.193 587.004 733.761 625.803C772.187 608.335 820.182 600.885 862.209 605.805C874.768 607.269 885.549 609.633 894.308 612.837C901.912 615.592 908.749 619.21 914.553 623.52C921.341 628.545 925.701 633.919 926.198 637.859C926.336 638.874 926.213 639.788 925.849 640.642C925.793 640.786 925.592 640.874 925.448 640.817C925.303 640.761 925.215 640.561 925.271 640.417C925.591 639.679 925.68 638.852 925.595 637.957C925.1 634.183 920.84 628.98 914.184 624.041C908.398 619.77 901.648 616.186 894.073 613.442C885.371 610.261 874.62 607.908 862.1 606.426C820.056 601.466 772.068 608.985 733.688 626.504C733.694 626.573 733.597 626.568 733.51 626.535Z" fill="#D900C6" fill-opacity="0.66"/>
<path d="M745.654 595.275C745.567 595.242 745.492 595.179 745.456 595.099C730.898 554.892 699.452 517.774 663.405 498.233C652.205 492.158 641.714 488.281 632.23 486.685C623.564 485.209 615.164 485.527 607.261 487.563C597.351 490.146 589.497 495.219 585.204 501.907C584.123 503.576 583.251 505.393 582.599 507.328C582.532 507.501 582.372 507.571 582.199 507.504C582.065 507.419 581.955 507.276 582.022 507.103C582.696 505.111 583.608 503.276 584.7 501.578C589.067 494.786 597.034 489.592 607.122 486.979C615.106 484.907 623.592 484.623 632.327 486.093C641.909 487.693 652.458 491.593 663.705 497.719C699.781 517.272 731.237 554.361 745.922 594.584C783.91 574.824 832.155 568.697 871.969 578.627C884.391 581.728 894.818 585.945 902.967 591.233C910.432 596.056 916.46 602.012 920.963 608.901C926.642 617.639 929.013 626.85 927.649 634.809C927.308 636.798 926.703 638.785 925.895 640.693C925.839 640.837 925.639 640.925 925.494 640.869C925.35 640.813 925.262 640.612 925.318 640.468C926.114 638.589 926.697 636.661 927.027 634.7C928.375 626.867 926.034 617.834 920.437 609.227C915.981 602.39 910 596.485 902.61 591.724C894.536 586.498 884.149 582.264 871.814 579.197C832.029 569.278 783.773 575.433 745.889 595.267C745.838 595.314 745.74 595.309 745.654 595.275Z" fill="#D900C6" fill-opacity="0.66"/>
<path d="M925.494 640.869C925.321 640.801 925.262 640.612 925.318 640.468C926.619 637.459 927.668 634.418 928.447 631.471C931.598 619.598 930.967 606.421 926.731 594.397C923.438 584.993 918.184 576.785 911.158 569.977C903.73 562.747 893.813 556.706 881.742 552.017C881.655 551.983 881.597 551.961 881.511 551.927C843.515 537.233 795.07 541.989 758.062 564.019C757.891 564.119 757.66 564.029 757.6 563.84C745.17 522.603 712.63 486.419 674.69 471.581C674.603 471.547 674.546 471.524 674.459 471.491C662.359 466.79 650.994 464.563 640.633 464.882C630.824 465.15 621.425 467.7 612.659 472.385C601.388 478.385 592.056 487.691 586.375 498.549C584.961 501.249 583.681 504.2 582.611 507.299C582.543 507.472 582.383 507.542 582.21 507.475C582.065 507.419 581.966 507.247 582.033 507.075C583.115 503.947 584.406 500.967 585.831 498.238C591.597 487.247 601.02 477.877 612.383 471.813C621.24 467.064 630.737 464.519 640.655 464.228C651.113 463.913 662.566 466.174 674.723 470.897C674.81 470.931 674.867 470.953 674.954 470.987C693.713 478.308 711.389 490.812 726.116 507.143C740.843 523.475 751.893 542.855 758.117 563.278C776.457 552.431 797.732 545.576 819.622 543.469C841.511 541.362 862.993 544.07 881.775 551.333C881.861 551.367 881.919 551.39 882.006 551.423C894.163 556.146 904.127 562.238 911.642 569.502C918.732 576.401 924.021 584.689 927.35 594.173C931.639 606.317 932.265 619.592 929.098 631.592C928.308 634.567 927.248 637.637 925.935 640.675C925.839 640.837 925.668 640.936 925.494 640.869Z" fill="#D900C6" fill-opacity="0.66"/>
<path d="M582.199 507.504C582.054 507.448 581.955 507.276 582.022 507.103C583.516 502.743 585.13 498.761 586.941 494.955C599.947 467.38 623.684 447.256 648.921 442.437C660.371 440.254 672.893 440.874 686.152 444.301C706.113 449.469 724.66 460.587 739.726 476.387C754.624 492.023 765.183 511.212 770.255 531.95C788.014 520.115 808.769 513.057 830.286 511.568C852.068 510.083 873.227 514.39 891.471 524.064C903.566 530.487 913.234 538.454 920.196 547.823C935.561 568.415 939.488 599.286 930.467 628.41C929.216 632.4 927.73 636.399 925.895 640.693C925.839 640.837 925.639 640.925 925.494 640.869C925.35 640.813 925.262 640.612 925.318 640.468C927.141 636.203 928.656 632.216 929.867 628.243C938.839 599.332 934.942 568.639 919.688 548.19C912.79 538.911 903.169 530.996 891.161 524.606C854.118 504.977 806.681 508.168 770.199 532.691C770.028 532.79 769.768 532.689 769.737 532.512C759.408 489.803 726.508 455.402 685.957 444.888C672.796 441.466 660.372 440.851 648.991 443.028C623.961 447.828 600.377 467.812 587.438 495.215C585.667 499.003 584.065 502.956 582.542 507.305C582.572 507.483 582.383 507.542 582.199 507.504Z" fill="#D900C6" fill-opacity="0.66"/>
<path d="M672.78 782.86C672.607 782.793 672.536 782.633 672.603 782.46L756.21 567.246C756.278 567.073 756.438 567.003 756.611 567.07C756.784 567.137 756.855 567.297 756.788 567.47L673.181 782.684C673.125 782.828 672.953 782.928 672.78 782.86Z" fill="#D900C6" fill-opacity="0.66"/>
<path d="M672.612 783.292C672.468 783.236 672.363 783.163 672.281 783.031C629.014 725.869 582.223 658.185 574.547 578.275C571.47 546.243 575.498 518.164 586.519 494.758C599.569 467.067 623.45 446.833 648.835 441.973C660.355 439.783 672.945 440.397 686.262 443.846C726.853 454.343 759.838 488.61 770.546 531.201C807.197 507.009 854.625 504.013 891.697 523.654C903.85 530.1 913.593 538.129 920.573 547.539C936.02 568.262 939.988 599.282 930.912 628.549C923.241 653.257 907.257 676.691 883.363 698.246C823.725 752.005 743.513 770.35 673.032 783.323C672.894 783.336 672.756 783.349 672.612 783.292ZM697.655 449.167C693.815 447.675 689.884 446.414 685.876 445.354C672.772 441.954 660.417 441.333 649.116 443.475C624.235 448.233 600.783 468.136 587.9 495.394C576.991 518.512 573.024 546.349 576.075 578.106C583.699 657.465 630.164 724.79 673.228 781.708C743.393 768.778 823.162 750.46 882.349 697.089C906.028 675.749 921.864 652.523 929.463 628.086C938.39 599.291 934.513 568.804 919.352 548.457C912.489 539.259 902.926 531.366 890.964 525.027C854.112 505.505 806.824 508.654 770.474 533.096C770.069 533.37 769.404 533.112 769.29 532.636C760.043 494.327 732.539 462.719 697.655 449.167Z" fill="#D900C6" fill-opacity="0.66"/>
</g>
<g filter="url(#filter3_f_2110_22)">
<path d="M672.78 782.86C672.693 782.827 672.6 782.724 672.605 782.626C672.574 782.449 672.699 782.298 672.848 782.257C743.22 769.308 823.243 751.022 882.646 697.437C906.387 676.021 922.275 652.749 929.879 628.214C938.85 599.304 934.954 568.61 919.699 548.161C912.801 538.883 903.18 530.967 891.172 524.578C854.129 504.948 806.692 508.139 770.21 532.662C770.079 532.744 769.855 532.723 769.784 532.563C769.673 532.42 769.711 532.236 769.854 532.126C787.68 520.118 808.567 512.979 830.28 511.5C852.061 510.014 873.221 514.321 891.465 523.995C903.56 530.418 913.227 538.385 920.19 547.755C935.555 568.347 939.482 599.217 930.461 628.341C922.824 652.962 906.891 676.35 883.059 697.829C823.513 751.525 743.381 769.834 672.94 782.79C672.907 782.876 672.838 782.883 672.78 782.86Z" fill="#D900C6" fill-opacity="0.66"/>
<path d="M672.78 782.86C672.693 782.827 672.618 782.764 672.594 782.655C672.552 782.506 672.659 782.316 672.808 782.274C732.607 765.914 800.828 743.873 853.73 689.055C874.867 667.158 889.5 643.863 897.265 619.855C906.404 591.54 904.852 562.255 893.175 543.461C887.907 534.948 880.286 527.876 870.576 522.412C840.586 505.589 800.595 511.341 768.612 536.949C768.469 537.059 768.274 537.049 768.163 536.907C768.052 536.764 768.09 536.58 768.204 536.459C783.839 523.931 801.818 515.894 820.096 513.246C838.511 510.586 856.057 513.589 870.829 521.847C880.654 527.355 888.34 534.519 893.672 543.123C905.419 562.077 907.002 591.54 897.825 620.039C890.055 644.145 875.371 667.487 854.161 689.488C801.173 744.438 732.843 766.503 672.964 782.899C672.935 782.888 672.838 782.883 672.78 782.86Z" fill="#D900C6" fill-opacity="0.66"/>
<path d="M672.78 782.86C672.693 782.827 672.647 782.775 672.611 782.695C672.541 782.535 672.608 782.362 672.768 782.292C722.011 762.56 778.397 736.85 824.707 680.864C843.239 658.486 856.614 635.265 864.499 611.801C873.783 584.139 874.564 556.291 866.466 539.152C862.799 531.395 857.205 525.176 849.754 520.657C826.863 506.691 794.296 514.895 766.832 541.53C766.718 541.651 766.523 541.642 766.401 541.528C766.279 541.414 766.288 541.219 766.402 541.097C794.07 514.277 826.914 506.047 850.065 520.114C857.591 524.696 863.307 531.028 867.009 538.866C875.149 556.154 874.41 584.151 865.059 611.986C857.151 635.507 843.743 658.814 825.16 681.239C778.747 737.317 722.27 763.092 672.987 782.841C672.935 782.888 672.866 782.894 672.78 782.86Z" fill="#D900C6" fill-opacity="0.66"/>
<path d="M672.78 782.86C672.722 782.838 672.676 782.787 672.629 782.735C672.547 782.604 672.597 782.391 672.728 782.31C711.308 759.397 755.809 730.23 795.411 673.462C811.241 650.764 823.324 627.704 831.274 604.929C840.687 578.047 843.717 551.768 839.174 536.342C837.126 529.379 833.48 524.05 828.329 520.457C812.485 509.395 787.432 519.988 764.538 547.436C764.424 547.557 764.217 547.577 764.095 547.463C763.973 547.349 763.942 547.171 764.067 547.021C787.16 519.319 812.529 508.682 828.668 519.926C833.924 523.592 837.652 529.053 839.753 536.136C844.32 551.671 841.303 578.087 831.845 605.084C823.844 627.906 811.779 651.006 795.897 673.75C756.221 730.622 711.67 759.836 673.038 782.795C672.976 782.87 672.866 782.894 672.78 782.86Z" fill="#D900C6" fill-opacity="0.66"/>
<path d="M672.78 782.86C672.751 782.849 672.693 782.827 672.676 782.787C672.554 782.673 672.563 782.478 672.677 782.356C700.534 756.505 733.02 724.129 765.716 666.999C778.808 644.165 789.491 621.457 797.49 599.497C806.925 573.585 812.136 549.049 811.115 535.422C810.635 529.3 808.965 524.872 806.102 522.234C804.045 520.341 801.512 519.589 798.514 519.949C788.876 521.146 775.076 534.254 761.605 554.984C761.52 555.117 761.343 555.147 761.169 555.08C761.036 554.995 760.977 554.806 761.073 554.645C774.831 533.43 788.433 520.576 798.427 519.319C801.603 518.928 804.349 519.729 806.528 521.736C809.513 524.488 811.265 529.048 811.747 535.336C812.792 549.072 807.547 573.694 798.079 599.692C790.068 621.681 779.374 644.419 766.271 667.281C733.512 724.486 701.015 756.891 673.107 782.788C673.033 782.892 672.895 782.905 672.78 782.86Z" fill="#D900C6" fill-opacity="0.66"/>
<path d="M672.78 782.86C672.751 782.849 672.751 782.849 672.722 782.838C672.589 782.753 672.529 782.564 672.625 782.402C689.491 754.304 709.586 719.601 734.942 663.4C745.053 640.967 754.175 619.111 762.033 598.455C771.295 574.101 778.52 551.74 780.931 540.143C781.996 534.92 782.223 531.427 781.596 529.791C781.282 528.972 780.862 528.942 780.695 528.943C778.181 528.829 770.392 538.867 756.777 567.499C756.721 567.643 756.48 567.749 756.358 567.635C756.185 567.568 756.126 567.379 756.222 567.217C767.874 542.697 777.046 528.156 780.706 528.317C781.166 528.33 781.773 528.566 782.146 529.573C782.815 531.358 782.612 534.96 781.513 540.27C779.119 551.907 771.855 574.285 762.582 598.669C754.713 619.353 745.619 641.22 735.48 663.642C710.112 719.872 690.006 754.603 673.14 782.702C673.085 782.846 672.924 782.916 672.78 782.86Z" fill="#D900C6" fill-opacity="0.66"/>
<path d="M672.78 782.86C672.635 782.804 672.554 782.673 672.581 782.518C679.119 750.374 687.703 711.166 706.966 652.598C714.674 629.165 722.699 606.883 730.834 586.368C740.454 562.12 750.231 540.717 756.292 530.505C759.066 525.846 761.359 523.023 763.047 522.187C764.002 521.695 764.626 521.971 764.956 522.232C767.794 524.595 764.715 541.503 756.759 567.459C756.692 567.632 756.532 567.702 756.376 567.675C756.376 567.675 756.376 567.675 756.347 567.664C756.203 567.608 756.103 567.436 756.159 567.292C765.443 536.978 766.463 524.343 764.542 522.701C764.42 522.587 764.089 522.326 763.305 522.718C761.727 523.531 759.536 526.261 756.807 530.804C750.728 540.977 741.003 562.333 731.383 586.581C723.247 607.096 715.194 629.367 707.526 652.782C688.303 711.333 679.701 750.5 673.163 782.644C673.136 782.8 672.953 782.928 672.798 782.9C672.809 782.872 672.809 782.872 672.78 782.86Z" fill="#D900C6" fill-opacity="0.66"/>
<path d="M672.78 782.86C672.664 782.815 672.6 782.724 672.587 782.587C669.47 744.669 667.372 698.825 681.833 634.478C687.601 608.766 695.061 584.773 703.996 563.143C714.55 537.599 727.314 515.865 737.358 506.438C741.959 502.124 746.329 499.942 750.39 499.928C753.352 499.918 755.93 501.151 757.998 503.613C764.505 511.247 765.85 529.941 761.708 554.891C761.681 555.047 761.527 555.186 761.343 555.147C761.158 555.109 761.047 554.966 761.085 554.782C765.142 530.395 763.81 511.408 757.508 504.019C755.539 501.729 753.163 500.574 750.379 500.554C746.486 500.566 742.264 502.706 737.777 506.899C727.825 516.263 715.094 537.91 704.573 563.367C695.661 584.939 688.201 608.933 682.444 634.616C668.027 698.847 670.108 744.652 673.208 782.529C673.209 782.696 673.084 782.846 672.918 782.848C672.878 782.865 672.838 782.883 672.78 782.86Z" fill="#D900C6" fill-opacity="0.66"/>
<path d="M672.78 782.86C672.693 782.827 672.618 782.764 672.594 782.655C659.552 739.656 646.447 688.01 655.57 619.268C659.208 591.767 665.901 566.581 675.405 544.343C686.653 518.041 702.26 496.516 716.146 488.15C722.477 484.342 728.914 482.831 735.267 483.674C754.792 486.285 766.299 511.248 764.634 547.274C764.636 547.441 764.482 547.58 764.315 547.581C764.148 547.583 764.009 547.429 764.007 547.263C765.676 511.569 754.361 486.881 735.159 484.295C728.933 483.468 722.645 484.938 716.434 488.693C702.668 497.006 687.163 518.438 675.96 544.625C666.479 566.805 659.797 591.963 656.181 619.406C647.074 688.021 660.184 739.57 673.208 782.529C673.249 782.678 673.171 782.88 672.993 782.91C672.935 782.888 672.838 782.883 672.78 782.86Z" fill="#D900C6" fill-opacity="0.66"/>
<path d="M672.78 782.86C672.722 782.838 672.647 782.775 672.611 782.695C649.585 734.855 625.292 677.702 628.937 605.009C630.396 575.932 636.209 549.674 646.254 526.983C658.135 500.165 676.501 478.982 694.177 471.724C702.24 468.423 710.691 467.628 719.337 469.328C745.941 474.591 764.627 502.806 766.922 541.299C766.924 541.466 766.799 541.616 766.632 541.618C766.465 541.619 766.314 541.494 766.312 541.328C764.032 503.138 745.562 475.14 719.228 469.949C710.71 468.265 702.356 469.065 694.414 472.313C676.869 479.49 658.645 500.562 646.82 527.236C636.798 549.87 630.989 576.03 629.553 605.05C625.923 677.616 650.164 734.649 673.172 782.449C673.243 782.609 673.176 782.782 673.016 782.852C672.964 782.899 672.866 782.894 672.78 782.86Z" fill="#D900C6" fill-opacity="0.66"/>
<path d="M672.78 782.86C672.722 782.838 672.676 782.787 672.629 782.735C639.522 730.216 604.009 667.809 602.014 591.499C601.208 560.979 606.143 533.816 616.685 510.788C629.125 483.556 650.182 462.889 671.673 456.847C681.415 454.099 691.922 454.003 702.888 456.572C719.402 460.434 734.362 470.092 746.123 484.476C757.848 498.78 765.669 516.806 768.764 536.643C768.794 536.821 768.67 536.971 768.492 537.002C768.314 537.032 768.163 536.907 768.132 536.729C761.824 496.246 736.165 465.023 702.722 457.171C691.882 454.617 681.473 454.719 671.841 457.442C650.539 463.425 629.624 483.982 617.251 511.041C606.772 533.994 601.852 561.03 602.652 591.482C604.645 667.626 640.123 729.952 673.195 782.391C673.277 782.523 673.227 782.736 673.096 782.817C672.976 782.87 672.866 782.894 672.78 782.86Z" fill="#D900C6" fill-opacity="0.66"/>
<path d="M672.78 782.86C672.722 782.838 672.664 782.815 672.658 782.747C629.437 725.635 582.681 658.032 575 578.22C571.919 546.285 575.954 518.275 586.941 494.955C599.947 467.38 623.684 447.256 648.921 442.437C660.371 440.254 672.893 440.874 686.152 444.301C706.113 449.469 724.66 460.587 739.726 476.387C754.717 492.125 765.307 511.492 770.38 532.397C770.411 532.574 770.315 532.736 770.137 532.766C769.988 532.808 769.797 532.701 769.755 532.552C759.426 489.843 726.526 455.443 685.975 444.928C672.813 441.506 660.39 440.891 649.008 443.068C623.978 447.868 600.394 467.852 587.456 495.255C576.514 518.459 572.512 546.382 575.57 578.209C583.22 657.843 629.929 725.395 673.086 782.415C673.196 782.558 673.158 782.742 673.016 782.852C673.004 782.881 672.895 782.905 672.78 782.86Z" fill="#D900C6" fill-opacity="0.66"/>
<path d="M672.78 782.86C672.722 782.838 672.664 782.815 672.658 782.747C629.437 725.635 582.681 658.032 575 578.22C572.467 551.803 574.815 527.879 582.022 507.103C582.089 506.931 582.249 506.86 582.423 506.927C582.567 506.984 582.666 507.155 582.599 507.328C575.426 528.017 573.072 551.872 575.61 578.191C583.253 657.757 629.887 725.246 673.015 782.255C743.318 769.312 823.283 751.005 882.635 697.466C902.275 679.763 916.642 660.575 925.318 640.468C925.373 640.324 925.574 640.236 925.718 640.292C925.863 640.349 925.951 640.549 925.895 640.693C917.186 660.885 902.768 680.12 883.066 697.898C823.519 751.594 743.388 769.903 672.947 782.859C672.907 782.876 672.838 782.883 672.78 782.86Z" fill="#D900C6" fill-opacity="0.66"/>
<path d="M684.924 751.601C684.866 751.579 684.819 751.527 684.773 751.476C680.338 745.011 675.734 738.382 671.306 731.986C648.546 699.204 625.026 665.297 607.062 631.46C600.382 618.884 594.736 606.81 590.296 595.568C585.785 584.167 582.542 573.523 580.318 563.076C576.881 546.687 576.448 531.631 579.013 518.27C579.766 514.45 580.761 510.692 581.993 507.092C582.06 506.919 582.22 506.849 582.394 506.916C582.538 506.972 582.638 507.144 582.57 507.317C581.321 510.876 580.337 514.606 579.596 518.396C577.035 531.66 577.461 546.647 580.892 562.968C583.098 573.374 586.352 583.989 590.846 595.351C595.286 606.592 600.903 618.656 607.566 631.192C625.54 665 649.043 698.866 671.774 731.637C676.156 737.982 680.724 744.531 685.141 750.956C692.737 749.198 700.499 747.439 708.015 745.717C746.908 736.886 787.15 727.749 823.223 714.971C836.601 710.221 848.917 705.124 859.753 699.817C870.738 694.469 880.276 688.823 888.957 682.646C902.495 672.951 912.927 662.182 920.004 650.64C922.016 647.343 923.808 643.927 925.3 640.428C925.356 640.284 925.556 640.196 925.701 640.252C925.845 640.309 925.933 640.509 925.877 640.653C924.385 644.152 922.582 647.596 920.53 650.91C913.431 662.51 902.908 673.343 889.319 683.085C880.626 689.291 871.059 694.925 860.034 700.291C849.169 705.587 836.842 710.712 823.424 715.48C787.3 728.305 747.058 737.441 708.136 746.261C700.551 747.99 692.72 749.755 685.055 751.519C685.05 751.617 684.981 751.623 684.924 751.601Z" fill="#D900C6" fill-opacity="0.66"/>
<path d="M697.079 720.313C697.021 720.29 696.974 720.239 696.928 720.188C681.54 695.376 664.187 670.663 647.372 646.788C637.121 632.195 627.42 618.413 618.307 604.825C610.457 593.121 604.032 582.966 598.648 573.812C592.959 564.074 588.687 555.65 585.643 548.002C580.652 535.353 578.839 524.535 580.151 514.998C580.507 512.285 581.135 509.643 582.011 507.132C582.078 506.959 582.238 506.889 582.411 506.956C582.556 507.012 582.655 507.184 582.588 507.356C581.723 509.839 581.107 512.451 580.745 515.096C579.466 524.547 581.255 535.256 586.192 547.784C589.219 555.393 593.462 563.806 599.163 573.514C604.547 582.668 610.971 592.824 618.792 604.517C627.905 618.104 637.578 631.875 647.828 646.468C664.597 670.291 681.915 694.925 697.285 719.697C725.318 711.786 754.753 705.315 783.177 699.049C800.591 695.204 817.053 691.585 832.948 687.713C846.64 684.378 858.236 681.223 868.359 678.093C879.118 674.779 887.928 671.437 895.297 667.867C907.427 661.968 915.976 655.275 921.384 647.429C922.901 645.233 924.211 642.89 925.26 640.446C925.316 640.302 925.516 640.214 925.66 640.27C925.805 640.326 925.893 640.526 925.837 640.67C924.777 643.143 923.457 645.515 921.888 647.757C916.377 655.697 907.777 662.436 895.556 668.398C888.158 671.957 879.308 675.317 868.537 678.659C858.385 681.778 846.79 684.933 833.087 688.297C817.191 692.169 800.73 695.788 783.316 699.634C754.822 705.906 725.307 712.412 697.234 720.34C697.223 720.369 697.136 720.335 697.079 720.313Z" fill="#D900C6" fill-opacity="0.66"/>
<path d="M709.222 689.053C709.165 689.031 709.089 688.969 709.071 688.928C690.777 655.858 665.535 620.653 629.592 578.173C622.012 569.194 614.424 560.41 607.041 552.037C601.055 545.202 595.384 538.755 591.007 532.91C584.402 524.077 581.304 517.336 581.272 511.686C581.26 510.09 581.52 508.566 582.022 507.103C582.089 506.931 582.249 506.86 582.423 506.927C582.567 506.984 582.666 507.155 582.599 507.328C582.12 508.733 581.883 510.199 581.888 511.727C581.911 517.141 585.045 523.962 591.504 532.572C595.852 538.406 601.523 544.853 607.491 551.648C614.892 560.061 622.48 568.845 630.059 577.824C665.927 620.241 691.163 655.378 709.457 688.448C745.268 676.43 787.646 667.527 842.713 660.437C854.298 658.935 865.855 657.589 877.034 656.362C886.053 655.389 894.56 654.45 901.706 653.081C912.255 651.078 919.172 648.161 922.873 644.194C923.908 643.071 924.723 641.829 925.318 640.468C925.373 640.324 925.574 640.236 925.718 640.292C925.863 640.349 925.951 640.549 925.895 640.693C925.278 642.111 924.44 643.41 923.355 644.58C919.528 648.697 912.721 651.59 901.845 653.665C894.67 655.023 886.134 655.951 877.103 656.952C865.936 658.151 854.396 659.537 842.812 661.039C787.647 668.124 745.258 677.056 709.407 689.092C709.367 689.11 709.309 689.087 709.222 689.053Z" fill="#D900C6" fill-opacity="0.66"/>
<path d="M721.366 657.794C721.308 657.772 721.233 657.709 721.198 657.629C703.337 621.047 674.054 582.382 640.876 551.52C631.697 542.981 623.119 535.802 615.445 530.234C608.338 525.086 602.177 521.267 596.412 517.8L594.773 516.799C588.18 512.811 583.815 510.187 582.474 508.506C582.02 507.965 581.876 507.478 582.015 507.034C582.082 506.862 582.243 506.791 582.416 506.859C582.56 506.915 582.66 507.086 582.593 507.259C582.492 507.518 582.72 507.872 582.953 508.128C584.23 509.718 588.785 512.45 595.084 516.256L596.722 517.258C602.459 520.713 608.677 524.555 615.784 529.703C623.488 535.282 632.065 542.461 641.273 551.012C674.452 581.873 703.716 620.498 721.617 657.063C759.508 642.172 807.173 633.433 852.483 633.063C865.049 632.971 876.223 633.466 885.684 634.522C894.345 635.499 901.555 636.874 908.148 638.209L910.062 638.587C917.278 640.031 922.454 641.08 924.498 640.78C924.814 640.737 925.221 640.63 925.351 640.382C925.407 640.238 925.607 640.15 925.752 640.206C925.896 640.262 925.985 640.462 925.929 640.606C925.761 641.039 925.298 641.29 924.597 641.382C922.473 641.717 917.481 640.707 909.965 639.18L908.051 638.801C901.457 637.466 894.277 636.102 885.645 635.136C876.224 634.063 865.05 633.568 852.513 633.672C807.173 634.03 759.468 642.787 721.624 657.729C721.522 657.821 721.453 657.828 721.366 657.794Z" fill="#D900C6" fill-opacity="0.66"/>
<path d="M733.51 626.535C733.423 626.501 733.377 626.45 733.341 626.37C716.854 587.536 686.487 549.61 652.15 524.897C641.942 517.549 632.422 512.027 623.826 508.489C616.356 505.388 608.997 503.457 601.834 502.73C593.589 501.882 586.934 502.844 584.021 505.294C583.326 505.886 582.861 506.567 582.599 507.328C582.532 507.501 582.372 507.571 582.199 507.504C582.065 507.419 581.955 507.276 582.022 507.103C582.318 506.257 582.855 505.471 583.642 504.815C586.668 502.244 593.513 501.222 601.914 502.098C609.134 502.847 616.551 504.8 624.061 507.884C632.686 511.433 642.264 516.978 652.489 524.365C686.855 549.089 717.193 587.004 733.761 625.803C772.187 608.335 820.182 600.885 862.209 605.805C874.768 607.269 885.549 609.633 894.308 612.837C901.912 615.592 908.749 619.21 914.553 623.52C921.341 628.545 925.701 633.919 926.198 637.859C926.336 638.874 926.213 639.788 925.849 640.642C925.793 640.786 925.592 640.874 925.448 640.817C925.303 640.761 925.215 640.561 925.271 640.417C925.591 639.679 925.68 638.852 925.595 637.957C925.1 634.183 920.84 628.98 914.184 624.041C908.398 619.77 901.648 616.186 894.073 613.442C885.371 610.261 874.62 607.908 862.1 606.426C820.056 601.466 772.068 608.985 733.688 626.504C733.694 626.573 733.597 626.568 733.51 626.535Z" fill="#D900C6" fill-opacity="0.66"/>
<path d="M745.654 595.275C745.567 595.242 745.492 595.179 745.456 595.099C730.898 554.892 699.452 517.774 663.405 498.233C652.205 492.158 641.714 488.281 632.23 486.685C623.564 485.209 615.164 485.527 607.261 487.563C597.351 490.146 589.497 495.219 585.204 501.907C584.123 503.576 583.251 505.393 582.599 507.328C582.532 507.501 582.372 507.571 582.199 507.504C582.065 507.419 581.955 507.276 582.022 507.103C582.696 505.111 583.608 503.276 584.7 501.578C589.067 494.786 597.034 489.592 607.122 486.979C615.106 484.907 623.592 484.623 632.327 486.093C641.909 487.693 652.458 491.593 663.705 497.719C699.781 517.272 731.237 554.361 745.922 594.584C783.91 574.824 832.155 568.697 871.969 578.627C884.391 581.728 894.818 585.945 902.967 591.233C910.432 596.056 916.46 602.012 920.963 608.901C926.642 617.639 929.013 626.85 927.649 634.809C927.308 636.798 926.703 638.785 925.895 640.693C925.839 640.837 925.639 640.925 925.494 640.869C925.35 640.813 925.262 640.612 925.318 640.468C926.114 638.589 926.697 636.661 927.027 634.7C928.375 626.867 926.034 617.834 920.437 609.227C915.981 602.39 910 596.485 902.61 591.724C894.536 586.498 884.149 582.264 871.814 579.197C832.029 569.278 783.773 575.433 745.889 595.267C745.838 595.314 745.74 595.309 745.654 595.275Z" fill="#D900C6" fill-opacity="0.66"/>
<path d="M925.494 640.869C925.321 640.801 925.262 640.612 925.318 640.468C926.619 637.459 927.668 634.418 928.447 631.471C931.598 619.598 930.967 606.421 926.731 594.397C923.438 584.993 918.184 576.785 911.158 569.977C903.73 562.747 893.813 556.706 881.742 552.017C881.655 551.983 881.597 551.961 881.511 551.927C843.515 537.233 795.07 541.989 758.062 564.019C757.891 564.119 757.66 564.029 757.6 563.84C745.17 522.603 712.63 486.419 674.69 471.581C674.603 471.547 674.546 471.524 674.459 471.491C662.359 466.79 650.994 464.563 640.633 464.882C630.824 465.15 621.425 467.7 612.659 472.385C601.388 478.385 592.056 487.691 586.375 498.549C584.961 501.249 583.681 504.2 582.611 507.299C582.543 507.472 582.383 507.542 582.21 507.475C582.065 507.419 581.966 507.247 582.033 507.075C583.115 503.947 584.406 500.967 585.831 498.238C591.597 487.247 601.02 477.877 612.383 471.813C621.24 467.064 630.737 464.519 640.655 464.228C651.113 463.913 662.566 466.174 674.723 470.897C674.81 470.931 674.867 470.953 674.954 470.987C693.713 478.308 711.389 490.812 726.116 507.143C740.843 523.475 751.893 542.855 758.117 563.278C776.457 552.431 797.732 545.576 819.622 543.469C841.511 541.362 862.993 544.07 881.775 551.333C881.861 551.367 881.919 551.39 882.006 551.423C894.163 556.146 904.127 562.238 911.642 569.502C918.732 576.401 924.021 584.689 927.35 594.173C931.639 606.317 932.265 619.592 929.098 631.592C928.308 634.567 927.248 637.637 925.935 640.675C925.839 640.837 925.668 640.936 925.494 640.869Z" fill="#D900C6" fill-opacity="0.66"/>
<path d="M582.199 507.504C582.054 507.448 581.955 507.276 582.022 507.103C583.516 502.743 585.13 498.761 586.941 494.955C599.947 467.38 623.684 447.256 648.921 442.437C660.371 440.254 672.893 440.874 686.152 444.301C706.113 449.469 724.66 460.587 739.726 476.387C754.624 492.023 765.183 511.212 770.255 531.95C788.014 520.115 808.769 513.057 830.286 511.568C852.068 510.083 873.227 514.39 891.471 524.064C903.566 530.487 913.234 538.454 920.196 547.823C935.561 568.415 939.488 599.286 930.467 628.41C929.216 632.4 927.73 636.399 925.895 640.693C925.839 640.837 925.639 640.925 925.494 640.869C925.35 640.813 925.262 640.612 925.318 640.468C927.141 636.203 928.656 632.216 929.867 628.243C938.839 599.332 934.942 568.639 919.688 548.19C912.79 538.911 903.169 530.996 891.161 524.606C854.118 504.977 806.681 508.168 770.199 532.691C770.028 532.79 769.768 532.689 769.737 532.512C759.408 489.803 726.508 455.402 685.957 444.888C672.796 441.466 660.372 440.851 648.991 443.028C623.961 447.828 600.377 467.812 587.438 495.215C585.667 499.003 584.065 502.956 582.542 507.305C582.572 507.483 582.383 507.542 582.199 507.504Z" fill="#D900C6" fill-opacity="0.66"/>
<path d="M672.78 782.86C672.607 782.793 672.536 782.633 672.603 782.46L756.21 567.246C756.278 567.073 756.438 567.003 756.611 567.07C756.784 567.137 756.855 567.297 756.788 567.47L673.181 782.684C673.125 782.828 672.953 782.928 672.78 782.86Z" fill="#D900C6" fill-opacity="0.66"/>
<path d="M672.612 783.292C672.468 783.236 672.363 783.163 672.281 783.031C629.014 725.869 582.223 658.185 574.547 578.275C571.47 546.243 575.498 518.164 586.519 494.758C599.569 467.067 623.45 446.833 648.835 441.973C660.355 439.783 672.945 440.397 686.262 443.846C726.853 454.343 759.838 488.61 770.546 531.201C807.197 507.009 854.625 504.013 891.697 523.654C903.85 530.1 913.593 538.129 920.573 547.539C936.02 568.262 939.988 599.282 930.912 628.549C923.241 653.257 907.257 676.691 883.363 698.246C823.725 752.005 743.513 770.35 673.032 783.323C672.894 783.336 672.756 783.349 672.612 783.292ZM697.655 449.167C693.815 447.675 689.884 446.414 685.876 445.354C672.772 441.954 660.417 441.333 649.116 443.475C624.235 448.233 600.783 468.136 587.9 495.394C576.991 518.512 573.024 546.349 576.075 578.106C583.699 657.465 630.164 724.79 673.228 781.708C743.393 768.778 823.162 750.46 882.349 697.089C906.028 675.749 921.864 652.523 929.463 628.086C938.39 599.291 934.513 568.804 919.352 548.457C912.489 539.259 902.926 531.366 890.964 525.027C854.112 505.505 806.824 508.654 770.474 533.096C770.069 533.37 769.404 533.112 769.29 532.636C760.043 494.327 732.539 462.719 697.655 449.167Z" fill="#D900C6" fill-opacity="0.66"/>
</g>
<defs>
<filter id="filter0_f_2110_22" x="0.126465" y="0.735817" width="1481.47" height="1481.47" filterUnits="userSpaceOnUse" color-interpolation-filters="sRGB">
<feFlood flood-opacity="0" result="BackgroundImageFix"/>
<feBlend mode="normal" in="SourceGraphic" in2="BackgroundImageFix" result="shape"/>
<feGaussianBlur stdDeviation="250" result="effect1_foregroundBlur_2110_22"/>
</filter>
<filter id="filter1_f_2110_22" x="563.546" y="430.692" width="382.17" height="362.642" filterUnits="userSpaceOnUse" color-interpolation-filters="sRGB">
<feFlood flood-opacity="0" result="BackgroundImageFix"/>
<feBlend mode="normal" in="SourceGraphic" in2="BackgroundImageFix" result="shape"/>
<feGaussianBlur stdDeviation="5" result="effect1_foregroundBlur_2110_22"/>
</filter>
<filter id="filter2_f_2110_22" x="543.546" y="410.692" width="422.17" height="402.642" filterUnits="userSpaceOnUse" color-interpolation-filters="sRGB">
<feFlood flood-opacity="0" result="BackgroundImageFix"/>
<feBlend mode="normal" in="SourceGraphic" in2="BackgroundImageFix" result="shape"/>
<feGaussianBlur stdDeviation="15" result="effect1_foregroundBlur_2110_22"/>
</filter>
<filter id="filter3_f_2110_22" x="523.546" y="390.692" width="462.17" height="442.642" filterUnits="userSpaceOnUse" color-interpolation-filters="sRGB">
<feFlood flood-opacity="0" result="BackgroundImageFix"/>
<feBlend mode="normal" in="SourceGraphic" in2="BackgroundImageFix" result="shape"/>
<feGaussianBlur stdDeviation="25" result="effect1_foregroundBlur_2110_22"/>
</filter>
</defs>
</svg>
