<svg width="602" height="608" viewBox="0 0 602 608" fill="none" xmlns="http://www.w3.org/2000/svg">
<g filter="url(#filter0_d_460_146)">
<path d="M103.739 334.595L103.079 335.332L102.003 337.6L101.968 338.039L102.048 338.754L102.289 339.149L105.24 343.108L104.203 343.81L102.354 343.978L101.525 343.466L100.971 343.521L100.068 344.135L98.2013 345.109L97.4412 347.89L98.4071 350.583L99.0634 351.669L100.151 354.188L101.417 355.232L102.876 356.729L104.137 357.891L104.642 358.809L104.647 359.519L105.002 359.73L105.408 359.575L106.1 358.376L107.443 357.839L109.017 357.654L109.467 358.018L108.976 358.881L108.163 361.325L107.981 363.508L108.598 364.854L109.766 367.845L110.281 368.223L110.905 368.17L113.424 365.594L115.112 362.543L116.134 359.957L116.775 359.515L118.548 362.389L118.567 362.39L119.569 364.217L119.918 364.372L121.493 365.361L122.794 368.508L123.618 371.269L124.114 372.483L125.049 375.333L126.247 378.533L127.209 380.62L127.822 381.124L130.232 384.387L131.102 385.151L132.338 388.702L133.254 390.193L134.353 392.328L136.844 396.697L136.942 398.79L135.263 397.802L130.715 394.735L127.568 392.649L123.584 390.172L118.219 387.576L117.198 386.715L115.567 385.599L111.08 382.881L107.714 381.016L103.549 378.511L103.819 375.878L102.864 374.708L103.046 369.904L102.803 369.659L101.533 369.506L101.525 369.304L99.9844 361.939L97.5018 355.438L93.2242 347.048L91.3825 342.482L90.3783 339.265L89.1538 336.932L90.6593 335.412L92.0445 334.587L93.5508 333.415L94.0816 331.692L92.7575 329.017L93.112 328.096L93.8965 328.332L93.7447 327.461L94.4309 325.195L94.6486 323.93L94.7414 322.519L94.9079 321.898L95.5371 323.146L95.9117 323.993L96.6639 324.875L97.3837 325.096L98.6184 325.697L99.6921 326.435L99.8228 327.69L100.578 328.473L101.317 329.044L102.453 329.477L102.903 331.617L103.261 333.627L103.739 334.595Z" fill="#141414" stroke="#141414" stroke-width="3.00748"/>
<path d="M166.045 150.604L166.157 150.735L167.695 151.59L172.835 155.258L174.002 155.28L175.179 155.129L176.302 155.364L177.106 155.879L177.961 157.013L179.052 158.241L180.181 158.932L181.233 159.288L181.946 159.307L182.58 158.826L183.456 158.384L184.559 158.687L190.599 162.615L191.329 163.175L192.173 162.838L193.16 161.822L194.727 161.426L196.628 161.266L199.098 161.918L200.063 161.539L202.198 159.309L205.611 156.841L207.807 156.386L208.09 157.024L207.418 158.572L205.956 160.969L206.315 162.604L207.22 164.348L207.977 165.112L209.24 165.584L212.192 166.147L212.823 166.723L213.845 167.401L214.636 167.788L215.349 169.225L214.75 171.155L213.8 173.499L213.74 180.375L214.209 181.445L216.215 183.756L216.44 184.713L215.349 185.627L214.399 186.228L215.046 187.078L215.436 188.626L215.932 189.83L219.087 190.978L220.32 191.963L221.033 193.208L221.438 196.049L221.806 197.877L222.208 198.013L223.541 197.729L229.823 199.359L231.947 200.002L232.828 198.607L233.297 198.25L233.838 198.18L234.463 198.474L234.979 199.078L235.451 200.243L237.29 199.309L238.622 199.757L243.073 201.375L243.803 202.363L244.211 204.565L245.035 205.551L245.964 206.273L246.504 206.344L249.235 204.231L250.649 203.634L254.732 202.902L259.919 202.698L264.159 202.537L267.769 202.391L269.982 200.294L270.874 200.064L271.909 200.095L273.765 200.923L277.776 202.942L279.794 203.022L283.677 204.054L287.316 205.014L288.968 209.124L290.744 213.337L294.381 217.599L296.332 219.887L298.63 218.092L301.187 216.102L303.533 218.81L305.887 221.529L308.563 224.625L309.4 224.137L311.12 223.828L312.474 224.414L313.557 224.439L314.384 223.89L315.541 223.756L317.041 224.035L317.884 224.482L318.087 225.118L318.94 225.801L320.445 226.536L321.534 226.557L323.072 226.411L322.098 227.912L320.434 228.818L316.262 230.018L315.251 230.811L314.419 232.417L314.76 232.928L310.279 234.113L308.873 234.781L308.435 235.103L306.624 236.674L304.267 239.164L303.27 241.085L302.771 242.643L302.837 243.7L302.963 244.194L303.757 246.798L304.876 250.048L305.75 253.081L306.442 257.8L306.583 260.127L306.535 264.712L304.508 267.355L298.319 271.739L291.453 276.595L284.626 281.436L279.542 285.034L279.059 285.202L271.183 285.427L264.956 285.595L257.171 285.803L249.213 286.002L241.133 286.202L235.256 286.341L227.942 286.296L221.276 286.245L216.005 286.198L210.162 287.213L205.591 287.996L198.93 289.144L193.606 290.056L189.041 290.834L182.009 292.028L179.818 292.591L174.193 295.78L168.944 298.9L163.509 302.127L159.891 304.273L160.278 300.513L158.116 299.276L156.88 300.896L155.846 302.51L152.631 300.456L153.412 299.188L149.316 296.407L145.096 293.53L141.01 290.74L136.821 287.88L138.783 282.071L140.249 277.73L142.293 271.651L144.26 265.785L146.13 260.194L148.187 254.026L150.023 248.507L152.698 244.615L152.818 243.267L151.726 238.784L150.794 234.947L150.331 234.272L147.082 230.454L143.489 225.763L141.887 222.977L140.849 220.18L140.236 218.013L139.07 216.492L137.71 215.093L135.057 213.482L132.288 211.797L130.448 209.467L129.557 208.137L128.386 205.785L128 203.659L128.138 202.027L130.658 198.309L132.158 196.099L132.628 191.345L132.903 188.516L133.04 184.291L133.14 181.175L132.746 180.458L132.544 180.221L133.609 178.695L134.324 174.402L134.122 171.136L134.445 170.556L136.334 170.067L137.446 169.432L139.002 166.798L140.651 166.079L142.184 165.642L142.829 165.153L146.843 163.87L147.712 163.389L149.362 162.243L151.694 160.375L152.467 158.314L152.833 156.652L153.576 156.053L154.44 155.638L155.318 155.464L156.316 155.623L157.266 156.257L159.444 159.004L160.263 159.515L161.096 159.675L161.686 159.337L161.811 158.229L162.171 156.468L162.719 154.417L162.988 152.733L163.286 151.93L164.216 151.215L165.212 150.618L166.045 150.604Z" fill="#141414" stroke="#141414" stroke-width="3.00748"/>
<path d="M159.892 304.272L159.452 307.999L159.139 308.632L157.097 311.757L152.928 318.152L150.133 322.435L146.554 327.909L143.587 332.459L140.644 336.955L137.918 341.126L141.911 341.603L148.006 342.331L152.068 342.809L157.063 343.614L161.52 344.329L166.242 345.08L165.385 347.431L163.97 351.302L163.934 351.82L163.942 352.309L165.157 356.017L166.114 358.935L166.035 359.464L162.906 363.509L159.732 367.592L157.739 370.172L157.481 371.349L158.191 375.384L158.909 379.542L158.105 384.128L157.205 389.213L156.593 390.015L154.075 391.501L149.769 394.043L145.606 396.498L142.762 398.184L139.304 400.22L137.941 397.735L136.845 396.695L134.354 392.326L133.254 390.191L132.339 388.7L131.102 385.149L130.233 384.385L127.823 381.122L127.21 380.618L126.248 378.531L125.05 375.331L124.115 372.481L123.619 371.267L122.795 368.506L121.494 365.359L119.919 364.37L119.569 364.215L118.568 362.388L118.549 362.387L116.775 359.512L115.818 357.962L114.745 355.734L114.275 353.471L110.784 350.173L109.152 348.17L107.773 345.482L105.241 343.106L102.29 339.147L102.049 338.752L101.969 338.037L102.004 337.598L103.08 335.33L103.74 334.593L105.562 333.648L107.104 333.691L110.455 334.671L113.271 333.382L114.72 333.234L116.961 333.351L118.842 332.486L124.26 329.126L125.977 323.396L127.427 318.546L129.069 313.036L130.183 309.282L132.085 302.881L133.403 298.735L135.122 293.272L136.822 287.879L141.011 290.739L145.097 293.529L149.317 296.405L153.413 299.187L152.632 300.454L155.847 302.508L156.881 300.895L158.117 299.274L160.279 300.512L159.892 304.272Z" fill="#141414" stroke="#141414" stroke-width="3.00748"/>
<path d="M94.9089 321.897L94.7424 322.518L94.6496 323.929L94.4319 325.194L93.7458 327.46L93.8976 328.332L93.113 328.096L92.7586 329.016L94.0826 331.691L93.5519 333.415L92.0457 334.586L90.6605 335.411L89.155 336.931L88.7229 335.088L87.9849 332.836L86.743 330.013L86.3419 327.126L83.3815 318.648L82.6067 314.843L79.9778 310.731L79.4422 305.625L80.2775 303.258L80.2916 301.653L79.0765 300.27L81.5528 298.174L83.0845 296.746L82.8723 295.569L84.4212 294.865L85.7561 295.032L85.8149 296.366L85.7116 298.03L85.964 298.224L86.6881 297.737L88.2278 297.276L89.407 297.271L93.6192 299.893L94.1735 301.971L94.2019 304.228L93.812 304.761L93.409 306.236L93.3681 307.821L93.5676 308.626L94.0794 309.103L95.7806 308.792L96.0438 309.029L95.9876 309.442L94.9414 310.083L93.6924 311.026L92.9968 311.629L92.2976 312.451L91.9477 314.142L91.9399 315.072L91.9856 315.625L92.5455 317.037L93.604 317.43L94.7449 317.197L95.0407 317.319L95.1867 317.847L94.8204 318.978L94.7353 320.052L95.0721 320.783L94.9089 321.897Z" fill="#141414" stroke="#141414" stroke-width="3.00748"/>
<path d="M103.817 375.878L103.548 378.511L101.907 377.526L101.275 377.203L101.684 372.266L101.531 369.506L102.801 369.659L103.049 369.909L102.862 374.708L103.817 375.878ZM110.781 350.176L114.272 353.483L114.746 355.742L115.819 357.969L116.777 359.52L116.136 359.962L115.114 362.549L113.431 365.604L110.908 368.175L110.283 368.229L109.768 367.85L108.601 364.859L107.984 363.514L108.17 361.335L108.983 358.892L109.474 358.029L109.024 357.664L107.45 357.849L106.106 358.395L105.41 359.589L105.007 359.75L104.648 359.543L104.639 358.828L104.138 357.915L102.873 356.748L101.417 355.256L100.152 354.212L99.0696 351.688L98.4134 350.603L97.4471 347.91L98.2021 345.133L100.074 344.154L100.977 343.54L101.531 343.486L102.36 343.998L104.209 343.83L105.246 343.128L107.778 345.504L109.162 348.197L110.781 350.176Z" fill="#141414" stroke="#141414" stroke-width="3.00748"/>
<path d="M306.534 264.713L309.56 262.732L313.597 260.088L316.079 258.519L320.742 255.56L324.067 256.937L325.977 258.258L327.814 259.564L330.356 260.015L333.162 257.56L335.649 255.386L338.704 252.693L341.132 250.561L343.208 251.393L344.836 252.597L349.327 254.903L353.772 255.89L355.13 256.472L356.757 257.706L356.876 258.579L357.289 259.349L360.125 259.542L363.765 258.647L365.037 258.119L366.652 257.716L366.514 259.34L369.739 260.07L373.237 260.63L375.506 259.495L380.673 260.431L386.193 259.179L390.739 259.826L390.566 260.061L389.658 260.374L388.502 260.743L388.52 261.285L389.503 262.344L390.829 263.441L392.958 263.549L394.689 263.456L396.391 264.624L398.346 268.589L398.059 268.834L397.264 269.024L396.619 269.461L396.46 269.919L399.159 271.664L401.39 272.861L403.438 273.568L405.909 275.046L407.265 275.422L411.596 275.531L413.92 276.725L417.539 279.549L420.705 280.139L422.787 280.896L424.962 281.19L427.136 282.27L429.276 282.698L430.09 282.57L431.006 282.023L432.008 281.177L432.914 279.821L433.917 278.417L435.472 278.23L436.414 277.253L437.044 277.777L437.068 279.202L438.018 282.03L439.506 281.336L440.801 280.518L441.905 280.159L442.383 279.751L442.757 280.189L444.515 282.137L445.451 282.653L446.551 282.881L448.186 283.227L449.821 283.573L451.457 283.919L453.092 284.265L454.727 284.611L456.368 284.953L457.999 285.294L459.634 285.639L461.265 285.98L462.896 286.321L464.527 286.662L466.158 287.003L467.789 287.344L469.42 287.685L471.056 288.021L472.683 288.357L474.027 288.638L475.349 287.78L475.77 287.508L476.963 286.734L478.81 285.532L481.211 283.98L484.052 282.139L487.216 280.084L490.607 277.888L494.102 275.62L497.602 273.347L500.988 271.155L504.157 269.105L506.994 267.259L509.4 265.703L511.246 264.501L512.439 263.727L512.86 263.455L514.108 262.643L514.29 262.427L514.187 260.4L516.699 261.242L518.781 261.939L521.636 262.898L524.674 263.91L527.575 264.882L529.735 265.598L530.568 267.543L531.481 269.664L532.393 271.784L533.302 273.899L534.205 276.019L535.113 278.134L536.021 280.249L536.925 282.36L537.829 284.47L538.729 286.584L539.632 288.695L540.532 290.8L541.432 292.905L542.326 295.015L543.226 297.12L544.122 299.22L545.017 301.32L546.095 303.848L545.04 305.662L543.343 308.589L541.641 311.522L539.944 314.449L538.247 317.377L536.546 320.309L534.844 323.231L533.147 326.159L531.445 329.091L529.744 332.013L528.038 334.941L526.341 337.868L524.64 340.791L522.934 343.718L521.232 346.64L519.526 349.567L517.825 352.49L516.428 354.892L513.509 358.192L510.672 361.395L507.484 365.003L503.656 369.34L500.649 372.741L496.265 377.7L492.324 382.15L488.636 386.324L484.948 390.498L481.807 394.048L480.175 396.45L478.768 399.871L476.606 405.119L474.394 410.463L473.249 413.232L473.394 417.705L473.463 419.97L473.595 424.063L473.689 427.151L473.801 430.842L474.695 433.44L476.073 437.453L475.695 439.081L474.857 441.485L473.929 443.478L471.471 445.401L468.543 444.713L465.436 443.978L464.045 443.806L463.366 444.316L461.194 446.595L458.581 449.347L454.926 451.917L450.704 454.874L446.746 457.65L444.699 458.944L441.214 459.724L440.379 460L439.698 460.477L436.822 462.879L433.971 465.259L431.484 468.077L428.649 470.243L426.037 472.873L425.462 474.198L424.343 475.11L424.023 476.123L423.591 476.84L422.562 477.082L421.754 477.91L420.194 478.693L418.644 478.579L417.224 478.528L416.06 478.825L414.928 479.355L414.128 480.029L413.489 481.34L413.235 482.297L412.889 485.074L413.261 485.643L414.707 485.89L414.835 486.478L414.338 487.772L415.207 489.372L415.703 490.229L417.08 492.119L418.684 493.162L419.671 493.207L420.208 493.785L420.929 495.242L420.391 496.336L420.738 498.008L420.807 498.863L420.657 500.035L419.728 504.301L418.6 503.244L416.281 502.229L415.175 501.056L413.734 500.162L412.201 499.833L410.018 499.989L408.754 498.752L406.647 498.26L404.441 498.297L402.036 496.936L399.252 494.775L392.889 494.232L385.893 494.682L383.059 493.992L377.8 492.132L374.247 490.14L368.532 489.226L367.311 488.04L365.547 486.829L363.391 485.638L361.816 484.597L353.766 480.966L352.014 480.789L350.058 480.108L348.953 479.231L348.211 478.872L345.335 479.601L341.263 478.653L332.105 479.415L328.976 481.379L325.529 481.796L322.278 481.27L317.739 479.449L311.654 478.477L304.751 475.609L303.984 473.068L302.825 471.811L300.16 470.298L297.854 469.34L295.893 468.245L294.397 465.543L292.377 462.808L291.717 461.004L290.799 459.184L287.733 456.559L285.489 455.662L284.65 454.506L283.227 454.806L281.435 454.298L282.256 453.597L279.368 453.232L278.041 452.788L275.577 451.043L273.404 449.954L267.792 448.057L264.667 446.639L259.58 445.695L254.961 445.728L252.376 446.157L250.751 445.924L249.33 447.084L246.666 447.042L245.56 447.898L244.03 448.829L240.244 447.593L236.872 446.283L231.951 445.023L231.805 443.72L231.307 441.82L229.48 440.332L228.104 439.434L225.257 438.085L217.377 435.388L215.838 435.317L213.676 435.568L210.81 433.922L208.608 432.127L205.516 432.981L195.154 428.536L190.648 427.723L188.229 426.653L183.132 425.839L179.338 423.932L174.422 423.372L168.116 420.49L160.589 418.634L158.434 419.035L154.596 421.718L152.804 422.637L152.333 424.859L151.073 423.627L150.442 420.97L148.489 415.916L145.846 412.268L139.301 400.25L142.759 398.205L145.607 396.524L149.77 394.069L154.076 391.527L156.594 390.041L157.202 389.235L158.102 384.149L158.906 379.563L158.184 375.4L157.474 371.365L157.726 370.192L159.724 367.618L162.893 363.529L166.031 359.485L166.106 358.951L165.149 356.034L163.935 352.325L163.921 351.84L163.958 351.322L165.372 347.451L166.23 345.1L161.508 344.35L157.05 343.634L152.051 342.833L147.984 342.35L141.893 341.627L137.901 341.151L140.621 336.984L143.565 332.479L146.536 327.934L150.111 322.463L152.906 318.181L157.075 311.786L159.116 308.66L159.429 308.028L159.866 304.295L163.483 302.15L168.922 298.928L174.171 295.808L179.792 292.623L181.983 292.06L189.014 290.866L193.58 290.087L198.908 289.172L205.564 288.028L210.131 287.24L215.979 286.229L221.245 286.272L227.911 286.322L235.225 286.367L241.097 286.233L249.181 286.038L257.139 285.839L264.924 285.631L271.151 285.463L279.027 285.238L279.51 285.07L284.59 281.467L291.421 276.631L298.283 271.77L304.477 267.382L306.534 264.713ZM211.828 438.155L211.877 438.479L210.814 438.436L209.823 437.202L209.752 436.079L210.511 437.05L211.541 437.808L211.828 438.155ZM220.543 439.599L220.171 439.917L218.28 439.71L217.039 439.429L215.998 439.412L212.39 440.67L211.442 440.304L211.275 439.271L212.143 439.697L212.976 439.674L216.029 438.714L220.298 438.659L220.873 438.465L220.543 439.599Z" fill="#141414" stroke="#141414" stroke-width="3.00748"/>
<path d="M132.547 180.222L132.749 180.459L133.143 181.176L133.042 184.292L132.905 188.517L132.63 191.346L132.16 196.1L130.661 198.31L128.14 202.028L128.002 203.66L128.388 205.786L129.559 208.138L130.45 209.468L132.29 211.798L135.059 213.483L137.713 215.094L139.072 216.493L140.239 218.014L140.852 220.181L141.889 222.978L143.491 225.764L147.085 230.455L150.334 234.273L150.797 234.948L151.729 238.785L152.821 243.268L152.7 244.616L150.025 248.508L148.189 254.027L146.133 260.195L144.263 265.786L142.296 271.651L140.251 277.731L138.785 282.072L136.823 287.881L135.124 293.275L133.405 298.737L132.086 302.883L130.185 309.284L129.071 313.038L127.428 318.548L125.978 323.398L124.262 329.128L118.844 332.488L116.962 333.354L114.722 333.237L113.273 333.385L110.456 334.673L107.105 333.693L105.563 333.651L103.741 334.596L103.264 333.628L102.906 331.617L102.455 329.477L101.32 329.044L100.581 328.474L99.8252 327.69L99.6945 326.435L98.6208 325.697L97.3861 325.097L96.6663 324.875L95.9141 323.993L95.5395 323.146L94.9103 321.898L95.0735 320.784L94.7367 320.053L94.8218 318.979L95.1881 317.848L95.0421 317.32L94.7463 317.198L93.6054 317.431L92.5469 317.038L91.987 315.626L91.9413 315.073L91.9492 314.143L92.299 312.452L92.9982 311.629L93.6938 311.027L94.9428 310.084L95.989 309.443L96.0452 309.03L95.782 308.793L94.0809 309.104L93.5691 308.627L93.3695 307.822L93.4104 306.237L93.8135 304.762L94.2033 304.229L94.1749 301.972L93.6207 299.894L89.4084 297.272L88.2293 297.277L86.6896 297.738L85.9655 298.225L85.713 298.031L85.8164 296.367L85.7576 295.033L84.4226 294.866L82.8737 295.57L83.0859 296.747L81.5543 298.175L79.0779 300.271L74.7318 297.38L73.1516 295.864L71.5439 293.919L69.8959 290.467L68.43 289.463L67.6477 288.607L66.4245 287.561L62.2489 286.614L59.2024 280.891L58.9556 279.082L60.1079 278.29L63.5335 277.736L63.8717 277.378L63.0178 274.99L63.1626 273.813L64.0928 272.088L61.9974 268.826L62.1702 267.712L62.698 266.74L63.8552 265.648L64.7567 264.583L64.3837 264.013L60.0202 261.877L59.4162 260.904L57.2119 256.882L56.5168 255.16L56.5707 254.356L58.3842 253.105L61.2317 251.72L62.6896 252.174L64.5809 252.075L66.2367 250.558L68.3579 249.036L69.9461 247.776L70.6557 246.109L72.4611 242.584L73.5094 241.028L74.3293 239.449L76.7508 234.127L78.4925 232.894L79.806 232.2L80.9099 231.78L83.8999 231.449L86.5751 231.413L88.0092 230.86L89.9578 229.145L93.0282 226.961L96.5167 223.95L98.2571 221.838L100.325 218.968L103.678 213.452L107.066 204.999L109.335 200.356L110.732 198.842L112.744 197.099L115.117 195.78L117.663 194.113L118.704 193.181L120.912 190.74L123.577 187.335L125.146 185.073L126.846 182.109L127.126 179.345L127.49 178.773L128.353 178.499L128.736 178.346L130.065 178.639L132.547 180.222Z" fill="#141414" stroke="#141414" stroke-width="3.00748"/>
</g>
<path d="M9.06845 305.783V318.431H14.8525V322.583H4.77245V305.783H9.06845ZM19.8529 308.927C19.4049 309.375 18.8689 309.599 18.2449 309.599C17.6209 309.599 17.0769 309.375 16.6129 308.927C16.1649 308.463 15.9409 307.919 15.9409 307.295C15.9409 306.671 16.1649 306.135 16.6129 305.687C17.0769 305.239 17.6209 305.015 18.2449 305.015C18.8689 305.015 19.4049 305.239 19.8529 305.687C20.3169 306.135 20.5489 306.671 20.5489 307.295C20.5489 307.919 20.3169 308.463 19.8529 308.927ZM20.2369 322.583H16.2529V310.583H20.2369V322.583ZM29.9261 310.247C31.5261 310.247 32.8621 310.855 33.9341 312.071C35.0221 313.287 35.5661 314.791 35.5661 316.583C35.5661 318.375 35.0221 319.887 33.9341 321.119C32.8461 322.319 31.5101 322.919 29.9261 322.919C28.4701 322.919 27.3341 322.439 26.5181 321.479V322.583H22.5341V305.783H26.5181V311.687C27.3341 310.727 28.4701 310.247 29.9261 310.247ZM27.2141 318.479C27.6781 318.959 28.2861 319.199 29.0381 319.199C29.7901 319.199 30.3981 318.959 30.8621 318.479C31.3261 317.983 31.5581 317.351 31.5581 316.583C31.5581 315.815 31.3261 315.183 30.8621 314.687C30.3981 314.207 29.7901 313.967 29.0381 313.967C28.2861 313.967 27.6781 314.207 27.2141 314.687C26.7501 315.183 26.5181 315.815 26.5181 316.583C26.5181 317.351 26.7501 317.983 27.2141 318.479ZM45.7718 311.687V310.583H49.7558V322.583H45.7718V321.479C44.9558 322.439 43.8198 322.919 42.3638 322.919C40.7478 322.919 39.4038 322.319 38.3318 321.119C37.2598 319.903 36.7238 318.391 36.7238 316.583C36.7238 314.759 37.2598 313.255 38.3318 312.071C39.4038 310.855 40.7478 310.247 42.3638 310.247C43.8198 310.247 44.9558 310.727 45.7718 311.687ZM41.4278 318.479C41.8758 318.959 42.4838 319.199 43.2518 319.199C44.0198 319.199 44.6278 318.959 45.0758 318.479C45.5398 317.983 45.7718 317.351 45.7718 316.583C45.7718 315.815 45.5398 315.183 45.0758 314.687C44.6278 314.207 44.0198 313.967 43.2518 313.967C42.4838 313.967 41.8758 314.207 41.4278 314.687C40.9638 315.183 40.7318 315.815 40.7318 316.583C40.7318 317.351 40.9638 317.983 41.4278 318.479ZM59.3854 310.247C60.7134 310.247 61.7774 310.703 62.5774 311.615C63.3934 312.511 63.8014 313.775 63.8014 315.407V322.583H59.8174V315.911C59.8174 315.303 59.6574 314.839 59.3374 314.519C59.0174 314.183 58.5774 314.015 58.0174 314.015C57.3934 314.015 56.9054 314.207 56.5534 314.591C56.2174 314.959 56.0494 315.495 56.0494 316.199V322.583H52.0654V310.583H56.0494V311.783C56.7694 310.759 57.8814 310.247 59.3854 310.247Z" fill="white"/>
<path d="M96.0312 319.181L95.3718 319.918L94.2957 322.186L94.2607 322.625L94.3404 323.34L94.5817 323.735L97.5328 327.694L96.4957 328.396L94.646 328.564L93.8176 328.052L93.2636 328.106L92.3603 328.721L90.4937 329.695L89.7337 332.476L90.6996 335.169L91.3559 336.255L92.4435 338.774L93.709 339.818L95.1688 341.315L96.4296 342.477L96.9348 343.395L96.9395 344.105L97.2941 344.316L97.701 344.161L98.3921 342.962L99.7357 342.425L101.31 342.24L101.76 342.604L101.269 343.467L100.456 345.911L100.274 348.094L100.891 349.44L102.058 352.431L102.573 352.809L103.198 352.756L105.717 350.18L107.405 347.129L108.426 344.543L109.067 344.1L110.841 346.975L110.859 346.976L111.861 348.803L112.21 348.958L113.785 349.947L115.086 353.094L115.911 355.855L116.407 357.069L117.341 359.919L118.54 363.119L119.502 365.206L120.115 365.71L122.525 368.973L123.394 369.737L124.63 373.288L125.546 374.779L126.645 376.914L129.137 381.283L129.234 383.376L127.556 382.388L123.007 379.321L119.861 377.235L115.877 374.758L110.512 372.162L109.49 371.301L107.859 370.185L103.373 367.467L100.007 365.602L95.8418 363.097L96.111 360.464L95.1562 359.294L95.3386 354.49L95.0951 354.245L93.825 354.092L93.8175 353.89L92.2768 346.525L89.7943 340.024L85.5167 331.634L83.675 327.068L82.6708 323.851L81.4463 321.518L82.9518 319.998L84.337 319.173L85.8433 318.001L86.374 316.278L85.05 313.603L85.4044 312.682L86.189 312.918L86.0372 312.047L86.7233 309.781L86.9411 308.516L87.0339 307.105L87.2004 306.484L87.8295 307.732L88.2042 308.579L88.9564 309.461L89.6761 309.682L90.9109 310.283L91.9846 311.021L92.1153 312.276L92.8706 313.059L93.6098 313.63L94.7452 314.063L95.1959 316.203L95.5538 318.213L96.0312 319.181Z" fill="#CCCCCC" stroke="white" stroke-width="3.00748"/>
<path d="M158.338 135.19L158.45 135.321L159.988 136.175L165.128 139.843L166.295 139.865L167.472 139.715L168.595 139.95L169.399 140.464L170.254 141.598L171.345 142.826L172.474 143.517L173.526 143.873L174.239 143.892L174.873 143.412L175.749 142.969L176.852 143.273L182.892 147.2L183.622 147.761L184.466 147.424L185.453 146.408L187.02 146.011L188.921 145.852L191.391 146.504L192.356 146.125L194.491 143.894L197.903 141.427L200.1 140.972L200.383 141.61L199.711 143.158L198.249 145.554L198.608 147.189L199.513 148.933L200.269 149.698L201.533 150.169L204.485 150.733L205.116 151.309L206.138 151.986L206.929 152.373L207.642 153.811L207.043 155.741L206.093 158.084L206.033 164.96L206.502 166.031L208.508 168.341L208.733 169.298L207.642 170.212L206.692 170.813L207.339 171.663L207.729 173.211L208.225 174.416L211.38 175.563L212.613 176.549L213.326 177.794L213.731 180.635L214.099 182.463L214.501 182.598L215.834 182.314L222.116 183.945L224.24 184.588L225.121 183.192L225.59 182.835L226.131 182.765L226.756 183.059L227.272 183.664L227.744 184.828L229.583 183.894L230.915 184.343L235.366 185.96L236.096 186.948L236.504 189.15L237.328 190.136L238.257 190.858L238.797 190.929L241.528 188.816L242.942 188.219L247.025 187.487L252.212 187.283L256.452 187.122L260.062 186.977L262.275 184.879L263.167 184.649L264.202 184.68L266.058 185.508L270.069 187.527L272.087 187.608L275.969 188.639L279.609 189.6L281.261 193.709L283.037 197.923L286.673 202.185L288.625 204.472L290.923 202.677L293.48 200.687L295.826 203.395L298.18 206.114L300.856 209.211L301.693 208.723L303.413 208.413L304.767 209L305.849 209.025L306.677 208.475L307.834 208.341L309.334 208.62L310.177 209.068L310.38 209.704L311.233 210.387L312.738 211.122L313.827 211.142L315.364 210.997L314.391 212.498L312.727 213.403L308.555 214.603L307.544 215.397L306.712 217.003L307.052 217.514L302.572 218.698L301.166 219.366L300.728 219.689L298.917 221.259L296.56 223.749L295.563 225.671L295.064 227.228L295.13 228.286L295.256 228.779L296.05 231.383L297.169 234.633L298.043 237.666L298.735 242.386L298.876 244.712L298.828 249.297L296.801 251.941L290.612 256.324L283.746 261.181L276.919 266.021L271.835 269.619L271.352 269.787L263.476 270.012L257.249 270.18L249.464 270.389L241.506 270.588L233.426 270.787L227.549 270.926L220.235 270.881L213.569 270.831L208.298 270.783L202.455 271.799L197.884 272.582L191.223 273.73L185.899 274.641L181.334 275.42L174.302 276.613L172.111 277.177L166.486 280.366L161.237 283.486L155.801 286.713L152.184 288.859L152.571 285.099L150.409 283.861L149.173 285.482L148.139 287.095L144.924 285.041L145.705 283.774L141.609 280.992L137.389 278.116L133.303 275.326L129.114 272.466L131.076 266.657L132.542 262.316L134.586 256.236L136.553 250.371L138.423 244.779L140.48 238.611L142.316 233.093L144.991 229.2L145.111 227.852L144.019 223.369L143.087 219.533L142.624 218.857L139.375 215.039L135.782 210.348L134.18 207.563L133.142 204.765L132.529 202.598L131.363 201.078L130.003 199.678L127.35 198.068L124.581 196.382L122.741 194.052L121.85 192.723L120.679 190.37L120.293 188.245L120.431 186.612L122.951 182.895L124.451 180.684L124.921 175.931L125.196 173.102L125.333 168.876L125.433 165.76L125.039 165.043L124.837 164.806L125.902 163.28L126.617 158.988L126.415 155.721L126.738 155.141L128.627 154.652L129.739 154.017L131.295 151.384L132.944 150.664L134.477 150.227L135.122 149.738L139.136 148.455L140.005 147.975L141.655 146.828L143.987 144.961L144.76 142.899L145.126 141.238L145.869 140.639L146.733 140.224L147.611 140.049L148.609 140.208L149.559 140.843L151.737 143.59L152.556 144.101L153.389 144.261L153.979 143.922L154.104 142.815L154.464 141.054L155.012 139.002L155.281 137.319L155.579 136.516L156.509 135.801L157.505 135.203L158.338 135.19Z" fill="#D900C6" stroke="white" stroke-width="3.00748"/>
<path d="M152.185 288.858L151.744 292.585L151.431 293.218L149.39 296.343L145.221 302.738L142.426 307.021L138.846 312.495L135.88 317.045L132.936 321.541L130.211 325.712L134.203 326.189L140.298 326.917L144.361 327.395L149.356 328.2L153.813 328.915L158.535 329.666L157.677 332.017L156.263 335.887L156.226 336.406L156.235 336.895L157.449 340.603L158.406 343.521L158.327 344.05L155.198 348.095L152.025 352.178L150.031 354.758L149.774 355.935L150.483 359.97L151.202 364.128L150.398 368.714L149.498 373.799L148.885 374.601L146.367 376.087L142.061 378.629L137.898 381.084L135.055 382.77L131.597 384.806L130.234 382.321L129.137 381.281L126.646 376.912L125.547 374.777L124.631 373.286L123.395 369.735L122.526 368.971L120.116 365.708L119.503 365.203L118.54 363.117L117.342 359.917L116.407 357.067L115.912 355.853L115.087 353.092L113.786 349.945L112.211 348.956L111.862 348.801L110.86 346.974L110.841 346.973L109.068 344.098L108.11 342.547L107.037 340.32L106.568 338.057L103.076 334.759L101.445 332.756L100.065 330.068L97.5336 327.692L94.5825 323.733L94.3413 323.338L94.2615 322.623L94.2965 322.184L95.3727 319.916L96.0321 319.179L97.8541 318.234L99.3961 318.277L102.747 319.257L105.564 317.968L107.013 317.82L109.253 317.937L111.135 317.072L116.553 313.711L118.269 307.981L119.719 303.132L121.362 297.622L122.476 293.868L124.377 287.467L125.696 283.321L127.415 277.858L129.114 272.465L133.303 275.325L137.389 278.115L141.61 280.991L145.706 283.773L144.925 285.04L148.139 287.094L149.173 285.481L150.41 283.86L152.571 285.098L152.185 288.858Z" fill="#CCCCCC" stroke="white" stroke-width="3.00748"/>
<path d="M87.2019 306.483L87.0354 307.104L86.9426 308.515L86.7249 309.78L86.0387 312.046L86.1906 312.917L85.406 312.681L85.0515 313.602L86.3756 316.276L85.8448 318L84.3386 319.172L82.9534 319.997L81.448 321.516L81.0159 319.674L80.2779 317.422L79.0359 314.599L78.6349 311.711L75.6744 303.233L74.8997 299.428L72.2707 295.316L71.7352 290.21L72.5705 287.844L72.5846 286.238L71.3694 284.855L73.8458 282.76L75.3775 281.331L75.1652 280.154L76.7141 279.451L78.0491 279.618L78.1079 280.952L78.0046 282.616L78.257 282.81L78.9811 282.322L80.5208 281.862L81.7 281.857L85.9122 284.479L86.4665 286.557L86.4949 288.813L86.105 289.346L85.7019 290.822L85.6611 292.406L85.8606 293.211L86.3724 293.688L88.0736 293.377L88.3368 293.614L88.2806 294.028L87.2343 294.668L85.9854 295.612L85.2898 296.214L84.5906 297.037L84.2407 298.728L84.2329 299.658L84.2786 300.21L84.8385 301.622L85.897 302.016L87.0379 301.782L87.3337 301.904L87.4797 302.433L87.1133 303.564L87.0283 304.638L87.3651 305.368L87.2019 306.483Z" fill="#D900C6" stroke="white" stroke-width="3.00748"/>
<path d="M96.1094 360.463L95.8403 363.096L94.199 362.111L93.5672 361.788L93.976 356.851L93.8234 354.091L95.0935 354.244L95.3413 354.494L95.1546 359.293L96.1094 360.463ZM103.073 334.761L106.564 338.068L107.039 340.327L108.112 342.554L109.069 344.105L108.428 344.547L107.407 347.134L105.724 350.189L103.2 352.76L102.576 352.814L102.061 352.435L100.893 349.444L100.276 348.099L100.462 345.92L101.276 343.477L101.766 342.614L101.316 342.249L99.7424 342.434L98.3982 342.98L97.7025 344.174L97.2999 344.335L96.9406 344.128L96.9315 343.413L96.4306 342.5L95.1655 341.333L93.71 339.841L92.4448 338.797L91.3621 336.273L90.7058 335.188L89.7395 332.495L90.4946 329.718L92.3664 328.739L93.2698 328.125L93.8235 328.071L94.652 328.583L96.5014 328.415L97.5389 327.713L100.07 330.089L101.454 332.782L103.073 334.761Z" fill="#CCCCCC" stroke="white" stroke-width="3.00748"/>
<path d="M298.826 249.298L301.853 247.317L305.89 244.674L308.372 243.105L313.035 240.145L316.359 241.522L318.27 242.844L320.106 244.149L322.649 244.6L325.455 242.146L327.942 239.971L330.996 237.278L333.424 235.146L335.5 235.978L337.129 237.183L341.62 239.489L346.065 240.476L347.423 241.058L349.049 242.291L349.168 243.165L349.582 243.935L352.417 244.127L356.057 243.233L357.33 242.704L358.944 242.302L358.807 243.925L362.032 244.656L365.529 245.215L367.798 244.08L372.966 245.017L378.485 243.764L383.032 244.412L382.858 244.647L381.951 244.96L380.794 245.328L380.812 245.87L381.795 246.93L383.122 248.026L385.25 248.134L386.982 248.041L388.683 249.21L390.638 253.174L390.351 253.419L389.557 253.61L388.911 254.047L388.753 254.504L391.452 256.25L393.682 257.446L395.73 258.153L398.201 259.632L399.557 260.007L403.888 260.116L406.213 261.311L409.832 264.135L412.997 264.724L415.079 265.481L417.254 265.776L419.428 266.855L421.569 267.284L422.382 267.156L423.299 266.608L424.3 265.762L425.206 264.407L426.209 263.002L427.765 262.815L428.706 261.838L429.336 262.363L429.36 263.788L430.311 266.616L431.798 265.921L433.093 265.103L434.197 264.745L434.676 264.336L435.05 264.775L436.807 266.723L437.743 267.238L438.843 267.467L440.479 267.813L442.114 268.159L443.749 268.505L445.384 268.851L447.02 269.196L448.66 269.538L450.291 269.879L451.926 270.225L453.557 270.566L455.188 270.907L456.82 271.247L458.451 271.588L460.081 271.929L461.712 272.27L463.348 272.607L464.975 272.942L466.32 273.223L467.642 272.365L468.062 272.093L469.256 271.319L471.102 270.118L473.503 268.566L476.345 266.725L479.508 264.67L482.9 262.473L486.395 260.205L489.895 257.933L493.281 255.74L496.449 253.69L499.286 251.844L501.692 250.288L503.539 249.087L504.732 248.313L505.153 248.041L506.4 247.229L506.582 247.013L506.479 244.985L508.991 245.828L511.073 246.524L513.928 247.484L516.967 248.495L519.868 249.468L522.028 250.184L522.86 252.129L523.773 254.249L524.686 256.369L525.594 258.485L526.497 260.604L527.405 262.72L528.314 264.835L529.218 266.945L530.122 269.055L531.021 271.17L531.925 273.28L532.824 275.385L533.724 277.491L534.619 279.6L535.519 281.705L536.414 283.805L537.309 285.906L538.387 288.433L537.333 290.247L535.636 293.175L533.934 296.107L532.237 299.035L530.54 301.962L528.838 304.894L527.137 307.817L525.44 310.744L523.738 313.676L522.037 316.599L520.33 319.526L518.633 322.454L516.932 325.376L515.226 328.303L513.525 331.226L511.819 334.153L510.117 337.075L508.72 339.477L505.801 342.777L502.964 345.981L499.777 349.588L495.949 353.925L492.941 357.326L488.557 362.286L484.617 366.736L480.929 370.909L477.24 375.083L474.099 378.634L472.467 381.036L471.06 384.456L468.898 389.705L466.686 395.048L465.542 397.817L465.686 402.291L465.756 404.556L465.888 408.648L465.982 411.736L466.094 415.428L466.988 418.026L468.366 422.038L467.988 423.666L467.15 426.07L466.222 428.063L463.764 429.986L460.836 429.298L457.728 428.563L456.337 428.392L455.658 428.901L453.487 431.18L450.874 433.932L447.218 436.502L442.997 439.46L439.039 442.236L436.992 443.529L433.506 444.309L432.672 444.586L431.991 445.063L429.114 447.465L426.263 449.845L423.776 452.663L420.942 454.829L418.329 457.458L417.755 458.784L416.635 459.695L416.316 460.708L415.883 461.425L414.854 461.668L414.047 462.496L412.486 463.279L410.936 463.165L409.517 463.113L408.352 463.41L407.221 463.941L406.42 464.615L405.782 465.926L405.527 466.883L405.181 469.659L405.554 470.229L407 470.475L407.127 471.063L406.63 472.358L407.499 473.958L407.995 474.814L409.372 476.704L410.976 477.747L411.963 477.793L412.5 478.371L413.221 479.828L412.684 480.922L413.03 482.593L413.099 483.449L412.95 484.621L412.021 488.887L410.893 487.829L408.573 486.814L407.468 485.641L406.026 484.747L404.493 484.419L402.311 484.574L401.046 483.337L398.939 482.846L396.733 482.882L394.328 481.522L391.545 479.361L385.181 478.818L378.185 479.267L375.351 478.577L370.092 476.718L366.539 474.726L360.825 473.812L359.604 472.625L357.84 471.414L355.684 470.224L354.108 469.183L346.059 465.551L344.306 465.375L342.35 464.694L341.245 463.817L340.503 463.457L337.628 464.187L333.555 463.239L324.397 464.001L321.269 465.964L317.821 466.381L314.571 465.855L310.032 464.034L303.947 463.062L297.044 460.194L296.277 457.653L295.118 456.396L292.452 454.883L290.147 453.925L288.185 452.83L286.689 450.128L284.67 447.394L284.009 445.59L283.092 443.769L280.026 441.145L277.781 440.248L276.943 439.091L275.519 439.392L273.728 438.883L274.549 438.183L271.661 437.817L270.334 437.374L267.87 435.628L265.697 434.539L260.084 432.642L256.96 431.225L251.873 430.281L247.253 430.313L244.669 430.742L243.043 430.51L241.623 431.67L238.958 431.627L237.852 432.483L236.323 433.414L232.536 432.179L229.164 430.868L224.243 429.608L224.097 428.305L223.599 426.406L221.772 424.918L220.397 424.019L217.549 422.67L209.67 419.973L208.13 419.903L205.969 420.154L203.102 418.508L200.9 416.713L197.808 417.566L187.446 413.122L182.94 412.309L180.522 411.238L175.425 410.425L171.63 408.517L166.714 407.958L160.409 405.076L152.881 403.219L150.726 403.621L146.889 406.303L145.097 407.223L144.625 409.445L143.365 408.212L142.735 405.556L140.781 400.501L138.139 396.854L131.593 384.836L135.052 382.79L137.899 381.109L142.062 378.655L146.368 376.113L148.886 374.626L149.495 373.82L150.395 368.734L151.199 364.148L150.476 359.985L149.766 355.951L150.019 354.778L152.016 352.203L155.186 348.115L158.324 344.071L158.399 343.537L157.442 340.619L156.227 336.911L156.214 336.426L156.25 335.907L157.664 332.037L158.522 329.686L153.8 328.935L149.343 328.22L144.343 327.418L140.277 326.936L134.185 326.213L130.193 325.736L132.913 321.57L135.858 317.064L138.828 312.519L142.403 307.049L145.198 302.766L149.367 296.372L151.409 293.246L151.722 292.613L152.158 288.881L155.775 286.735L161.215 283.513L166.464 280.393L172.084 277.209L174.275 276.645L181.306 275.452L185.872 274.673L191.201 273.757L197.857 272.614L202.424 271.825L208.271 270.815L213.537 270.857L220.203 270.908L227.517 270.953L233.389 270.818L241.474 270.624L249.432 270.425L257.217 270.216L263.444 270.048L271.319 269.824L271.803 269.655L276.883 266.052L283.714 261.217L290.575 256.355L296.769 251.967L298.826 249.298ZM204.12 422.741L204.17 423.064L203.107 423.022L202.115 421.788L202.044 420.664L202.803 421.636L203.833 422.394L204.12 422.741ZM212.836 424.184L212.463 424.502L210.573 424.296L209.331 424.014L208.29 423.997L204.682 425.256L203.734 424.889L203.567 423.857L204.435 424.283L205.268 424.26L208.322 423.3L212.591 423.244L213.165 423.05L212.836 424.184Z" fill="#D900C6" stroke="white" stroke-width="3.00748"/>
<path d="M124.839 164.807L125.041 165.044L125.435 165.761L125.334 168.877L125.198 173.103L124.922 175.932L124.453 180.685L122.953 182.896L120.433 186.613L120.295 188.246L120.681 190.371L121.852 192.724L122.743 194.053L124.583 196.383L127.352 198.069L130.005 199.679L131.364 201.079L132.531 202.599L133.144 204.766L134.182 207.564L135.784 210.349L139.377 215.04L142.626 218.858L143.089 219.534L144.021 223.37L145.113 227.853L144.993 229.201L142.317 233.094L140.482 238.612L138.425 244.78L136.555 250.372L134.588 256.237L132.544 262.317L131.078 266.658L129.116 272.467L127.416 277.86L125.697 283.323L124.379 287.468L122.477 293.87L121.363 297.624L119.721 303.134L118.271 307.983L116.554 313.713L111.136 317.074L109.255 317.939L107.014 317.822L105.565 317.97L102.749 319.259L99.3977 318.279L97.8556 318.236L96.0337 319.181L95.5562 318.213L95.1983 316.203L94.7476 314.063L93.6122 313.63L92.873 313.059L92.1177 312.276L91.987 311.021L90.9133 310.283L89.6785 309.682L88.9588 309.46L88.2066 308.579L87.8319 307.732L87.2028 306.484L87.366 305.37L87.0292 304.639L87.1142 303.565L87.4806 302.434L87.3346 301.905L87.0388 301.783L85.8979 302.017L84.8394 301.623L84.2795 300.211L84.2338 299.659L84.2416 298.729L84.5915 297.038L85.2907 296.215L85.9863 295.613L87.2353 294.669L88.2815 294.029L88.3377 293.615L88.0745 293.378L86.3733 293.689L85.8615 293.212L85.662 292.407L85.7029 290.823L86.1059 289.347L86.4958 288.814L86.4674 286.558L85.9132 284.48L81.7009 281.858L80.5217 281.863L78.9821 282.323L78.2579 282.81L78.0055 282.617L78.1089 280.953L78.0501 279.619L76.7151 279.452L75.1662 280.155L75.3784 281.332L73.8467 282.761L71.3703 284.856L67.0243 281.965L65.444 280.449L63.8364 278.504L62.1884 275.053L60.7225 274.049L59.9402 273.193L58.717 272.147L54.5414 271.2L51.4949 265.476L51.2481 263.667L52.4004 262.876L55.826 262.321L56.1642 261.963L55.3103 259.575L55.4551 258.398L56.3853 256.673L54.2899 253.411L54.4627 252.298L54.9905 251.325L56.1477 250.234L57.0492 249.168L56.6761 248.599L52.3127 246.463L51.7086 245.489L49.5044 241.467L48.8093 239.745L48.8632 238.942L50.6767 237.69L53.5242 236.306L54.9821 236.759L56.8733 236.661L58.5291 235.144L60.6503 233.621L62.2386 232.362L62.9482 230.694L64.7536 227.169L65.8019 225.613L66.6217 224.035L69.0432 218.713L70.7849 217.479L72.0985 216.785L73.2023 216.366L76.1924 216.035L78.8676 215.998L80.3017 215.445L82.2503 213.73L85.3207 211.546L88.8092 208.535L90.5495 206.424L92.6175 203.554L95.9705 198.038L99.3584 189.585L101.628 184.941L103.025 183.427L105.037 181.685L107.41 180.365L109.956 178.698L110.997 177.766L113.205 175.326L115.869 171.92L117.439 169.659L119.138 166.694L119.418 163.931L119.782 163.359L120.645 163.084L121.028 162.932L122.358 163.225L124.839 164.807Z" fill="#CCCCCC" stroke="white" stroke-width="3.00748"/>
<path d="M256.63 368.037C255.019 368.037 253.666 367.697 252.572 367.017C251.493 366.337 250.732 365.391 250.289 364.179L253.681 362.205C254.258 363.58 255.278 364.267 256.741 364.267C257.953 364.267 258.559 363.92 258.559 363.225C258.559 362.782 258.212 362.412 257.517 362.117C257.28 362.028 256.63 361.828 255.566 361.518C254.058 361.089 252.912 360.491 252.129 359.722C251.346 358.953 250.954 357.933 250.954 356.662C250.954 355.228 251.464 354.068 252.484 353.181C253.533 352.294 254.819 351.851 256.342 351.851C257.643 351.851 258.796 352.161 259.801 352.782C260.806 353.388 261.575 354.26 262.107 355.398L258.781 357.349C258.293 356.196 257.487 355.62 256.364 355.62C255.906 355.62 255.551 355.716 255.3 355.908C255.048 356.086 254.923 356.33 254.923 356.64C254.923 356.98 255.1 357.268 255.455 357.505C255.824 357.741 256.534 358.015 257.583 358.325C258.367 358.562 258.973 358.769 259.402 358.946C259.889 359.153 260.392 359.434 260.909 359.788C261.988 360.498 262.528 361.629 262.528 363.181C262.528 364.703 261.988 365.893 260.909 366.751C259.83 367.608 258.404 368.037 256.63 368.037ZM272.076 357.638V356.618H275.756V367.704H272.076V366.684C271.322 367.571 270.272 368.015 268.927 368.015C267.434 368.015 266.193 367.46 265.202 366.352C264.212 365.228 263.717 363.831 263.717 362.161C263.717 360.476 264.212 359.086 265.202 357.992C266.193 356.869 267.434 356.307 268.927 356.307C270.272 356.307 271.322 356.751 272.076 357.638ZM268.063 363.913C268.476 364.356 269.038 364.578 269.748 364.578C270.457 364.578 271.019 364.356 271.433 363.913C271.861 363.454 272.076 362.87 272.076 362.161C272.076 361.451 271.861 360.868 271.433 360.409C271.019 359.966 270.457 359.744 269.748 359.744C269.038 359.744 268.476 359.966 268.063 360.409C267.634 360.868 267.419 361.451 267.419 362.161C267.419 362.87 267.634 363.454 268.063 363.913ZM284.919 362.516V356.618H288.6V367.704H284.919V366.595C284.254 367.542 283.226 368.015 281.837 368.015C280.61 368.015 279.62 367.601 278.866 366.773C278.127 365.93 277.757 364.755 277.757 363.247V356.618H281.438V362.782C281.438 363.343 281.586 363.78 281.881 364.09C282.177 364.386 282.583 364.533 283.101 364.533C283.677 364.533 284.121 364.363 284.431 364.023C284.756 363.669 284.919 363.166 284.919 362.516ZM298.536 357.638V352.183H302.216V367.704H298.536V366.684C297.782 367.571 296.732 368.015 295.387 368.015C293.894 368.015 292.653 367.46 291.662 366.352C290.672 365.228 290.177 363.831 290.177 362.161C290.177 360.476 290.672 359.086 291.662 357.992C292.653 356.869 293.894 356.307 295.387 356.307C296.732 356.307 297.782 356.751 298.536 357.638ZM294.522 363.913C294.936 364.356 295.498 364.578 296.208 364.578C296.917 364.578 297.479 364.356 297.893 363.913C298.321 363.454 298.536 362.87 298.536 362.161C298.536 361.451 298.321 360.868 297.893 360.409C297.479 359.966 296.917 359.744 296.208 359.744C295.498 359.744 294.936 359.966 294.522 360.409C294.094 360.868 293.879 361.451 293.879 362.161C293.879 362.87 294.094 363.454 294.522 363.913ZM307.676 355.088C307.262 355.502 306.767 355.709 306.191 355.709C305.614 355.709 305.111 355.502 304.683 355.088C304.269 354.659 304.062 354.157 304.062 353.58C304.062 353.004 304.269 352.508 304.683 352.095C305.111 351.681 305.614 351.474 306.191 351.474C306.767 351.474 307.262 351.681 307.676 352.095C308.105 352.508 308.319 353.004 308.319 353.58C308.319 354.157 308.105 354.659 307.676 355.088ZM308.031 367.704H304.35V356.618H308.031V367.704ZM329.079 367.704H324.8L324.134 365.465H318.968L318.303 367.704H314.002L319.123 352.183H323.957L329.079 367.704ZM321.54 356.773L319.988 362.05H323.114L321.54 356.773ZM333.733 356.618V358.68C333.94 357.97 334.346 357.416 334.952 357.017C335.573 356.603 336.275 356.396 337.059 356.396V360.476C336.216 360.343 335.448 360.498 334.753 360.941C334.073 361.385 333.733 362.109 333.733 363.114V367.704H330.052V356.618H333.733ZM345.999 357.638V356.618H349.68V367.704H345.999V366.684C345.245 367.571 344.196 368.015 342.851 368.015C341.358 368.015 340.116 367.46 339.126 366.352C338.135 365.228 337.64 363.831 337.64 362.161C337.64 360.476 338.135 359.086 339.126 357.992C340.116 356.869 341.358 356.307 342.851 356.307C344.196 356.307 345.245 356.751 345.999 357.638ZM341.986 363.913C342.4 364.356 342.961 364.578 343.671 364.578C344.381 364.578 344.942 364.356 345.356 363.913C345.785 363.454 345.999 362.87 345.999 362.161C345.999 361.451 345.785 360.868 345.356 360.409C344.942 359.966 344.381 359.744 343.671 359.744C342.961 359.744 342.4 359.966 341.986 360.409C341.557 360.868 341.343 361.451 341.343 362.161C341.343 362.87 341.557 363.454 341.986 363.913ZM358.643 356.307C360.121 356.307 361.355 356.869 362.346 357.992C363.351 359.116 363.853 360.505 363.853 362.161C363.853 363.816 363.351 365.213 362.346 366.352C361.34 367.46 360.106 368.015 358.643 368.015C357.298 368.015 356.248 367.571 355.494 366.684V367.704H351.814V352.183H355.494V357.638C356.248 356.751 357.298 356.307 358.643 356.307ZM356.137 363.913C356.566 364.356 357.128 364.578 357.822 364.578C358.517 364.578 359.079 364.356 359.507 363.913C359.936 363.454 360.151 362.87 360.151 362.161C360.151 361.451 359.936 360.868 359.507 360.409C359.079 359.966 358.517 359.744 357.822 359.744C357.128 359.744 356.566 359.966 356.137 360.409C355.709 360.868 355.494 361.451 355.494 362.161C355.494 362.87 355.709 363.454 356.137 363.913ZM368.781 355.088C368.367 355.502 367.872 355.709 367.295 355.709C366.719 355.709 366.216 355.502 365.788 355.088C365.374 354.659 365.167 354.157 365.167 353.58C365.167 353.004 365.374 352.508 365.788 352.095C366.216 351.681 366.719 351.474 367.295 351.474C367.872 351.474 368.367 351.681 368.781 352.095C369.21 352.508 369.424 353.004 369.424 353.58C369.424 354.157 369.21 354.659 368.781 355.088ZM369.136 367.704H365.455V356.618H369.136V367.704ZM379.063 357.638V356.618H382.744V367.704H379.063V366.684C378.309 367.571 377.26 368.015 375.915 368.015C374.422 368.015 373.18 367.46 372.19 366.352C371.199 365.228 370.704 363.831 370.704 362.161C370.704 360.476 371.199 359.086 372.19 357.992C373.18 356.869 374.422 356.307 375.915 356.307C377.26 356.307 378.309 356.751 379.063 357.638ZM375.05 363.913C375.464 364.356 376.026 364.578 376.735 364.578C377.445 364.578 378.006 364.356 378.42 363.913C378.849 363.454 379.063 362.87 379.063 362.161C379.063 361.451 378.849 360.868 378.42 360.409C378.006 359.966 377.445 359.744 376.735 359.744C376.026 359.744 375.464 359.966 375.05 360.409C374.621 360.868 374.407 361.451 374.407 362.161C374.407 362.87 374.621 363.454 375.05 363.913Z" fill="white"/>
<path d="M185.117 231.399V215.878H189.086V231.399H185.117ZM195.052 220.313V222.375C195.259 221.665 195.665 221.111 196.271 220.712C196.892 220.298 197.594 220.091 198.378 220.091V224.171C197.535 224.038 196.766 224.193 196.072 224.636C195.392 225.08 195.052 225.804 195.052 226.809V231.399H191.371V220.313H195.052ZM207.318 221.333V220.313H210.999V231.399H207.318V230.379C206.564 231.266 205.515 231.709 204.169 231.709C202.676 231.709 201.435 231.155 200.444 230.046C199.454 228.923 198.959 227.526 198.959 225.856C198.959 224.171 199.454 222.781 200.444 221.687C201.435 220.564 202.676 220.002 204.169 220.002C205.515 220.002 206.564 220.446 207.318 221.333ZM203.305 227.607C203.719 228.051 204.28 228.273 204.99 228.273C205.699 228.273 206.261 228.051 206.675 227.607C207.104 227.149 207.318 226.565 207.318 225.856C207.318 225.146 207.104 224.562 206.675 224.104C206.261 223.661 205.699 223.439 204.99 223.439C204.28 223.439 203.719 223.661 203.305 224.104C202.876 224.562 202.662 225.146 202.662 225.856C202.662 226.565 202.876 227.149 203.305 227.607ZM220.938 221.333V220.313H224.618V235.833H220.938V230.379C220.184 231.266 219.134 231.709 217.789 231.709C216.296 231.709 215.055 231.155 214.064 230.046C213.074 228.923 212.579 227.526 212.579 225.856C212.579 224.171 213.074 222.781 214.064 221.687C215.055 220.564 216.296 220.002 217.789 220.002C219.134 220.002 220.184 220.446 220.938 221.333ZM216.924 227.607C217.338 228.051 217.9 228.273 218.61 228.273C219.319 228.273 219.881 228.051 220.295 227.607C220.723 227.149 220.938 226.565 220.938 225.856C220.938 225.146 220.723 224.562 220.295 224.104C219.881 223.661 219.319 223.439 218.61 223.439C217.9 223.439 217.338 223.661 216.924 224.104C216.496 224.562 216.281 225.146 216.281 225.856C216.281 226.565 216.496 227.149 216.924 227.607Z" fill="white"/>
<defs>
<filter id="filter0_d_460_146" x="24.0932" y="125.189" width="568.581" height="433.922" filterUnits="userSpaceOnUse" color-interpolation-filters="sRGB">
<feFlood flood-opacity="0" result="BackgroundImageFix"/>
<feColorMatrix in="SourceAlpha" type="matrix" values="0 0 0 0 0 0 0 0 0 0 0 0 0 0 0 0 0 0 127 0" result="hardAlpha"/>
<feOffset dx="7" dy="14"/>
<feGaussianBlur stdDeviation="18.95"/>
<feComposite in2="hardAlpha" operator="out"/>
<feColorMatrix type="matrix" values="0 0 0 0 0.85098 0 0 0 0 0 0 0 0 0 0.776471 0 0 0 0.42 0"/>
<feBlend mode="normal" in2="BackgroundImageFix" result="effect1_dropShadow_460_146"/>
<feBlend mode="normal" in="SourceGraphic" in2="effect1_dropShadow_460_146" result="shape"/>
</filter>
</defs>
</svg>
