<svg width="700" height="380" viewBox="0 0 700 380" fill="none" xmlns="http://www.w3.org/2000/svg">
<path d="M381.421 13.6074L379.969 13.8311L378.927 14.8206L377.709 15.2637L375.967 15.4702L374.805 15.0443L374.222 13.9817L371.754 13.0395L367.403 12.2178L364.897 11.5166L364.236 10.9358L363.877 10.312L363.786 9.31397L363.782 9.30964L362.684 6.74991L362.209 4.61609L361.993 2.04783L362.066 1.20024L361.816 0.93359L361.034 0.374302L358.415 0L358.381 3.07162L358.333 6.95643L355.472 6.93057H350.305H345.132H339.96H334.792H329.62H324.447H319.275H314.107H308.935H303.762H298.603H293.431H288.258H283.086H277.918H272.746H267.573H262.405H257.233H252.061H246.888H241.72H236.548H231.376H226.208H221.035H215.863H210.695H205.523H200.351H195.178H190.01H184.838H179.666H174.498H169.325H164.153H158.981H153.813H148.64H143.468H138.3H133.128H127.955H122.783H117.615H112.443H107.27H102.102H96.9302H91.7577H86.5855H81.4175H76.2451H71.0729H65.9048H60.7325H55.5602H50.388H45.2199H40.0476H34.8752H29.7073H24.535H23.2904L24.0942 9.49462L24.5392 10.5701L24.9412 11.1251L25.5893 11.0648L25.8226 10.8369L26.043 10.867L26.246 11.1553L26.6393 12.8502L26.6133 14.9324L26.7819 15.255L26.8337 15.8358L26.2764 16.1542L25.2436 15.9736L24.885 16.1198L24.7424 16.5672L24.8201 16.907L25.1183 17.1437L25.788 17.2297L26.285 17.5524L26.9288 18.2149L27.8968 19.6689L27.9616 20.1164L27.188 20.31L26.5399 20.8434L26.4363 21.3812L26.5831 22.0996L26.8641 22.6288L28.0652 23.4634L28.1646 23.3601L27.7024 21.8114L27.8103 21.6652L28.1387 21.9835L28.5707 22.93L29.0029 23.5365L29.6857 24.2249L29.919 24.7884L28.9943 26.1866L28.8517 26.8061L28.0912 28.2086L27.9831 28.8582L28.2251 29.4303L28.2035 30.0713L27.9227 30.7811L27.8795 31.2114L28.2381 31.6545L28.3894 32.0804L28.303 33.4269L28.5967 35.7974L28.5622 36.219L27.7584 37.2773L27.2184 37.5655L26.6609 37.5785L26.285 37.9226L25.5331 39.8455L25.2566 40.2457L24.3491 40.8394L24.0121 40.8222L23.0183 40.2155L21.778 40.4736L20.4039 40.3446L20.8879 39.7467L21.2682 38.4732L21.7133 37.6731L22.8151 36.8385L23.0096 36.9761L23.3639 38.8044L23.5498 38.9378L24.1201 37.3977L24.28 37.1998L24.9972 37.8194L25.5374 37.9398L25.8528 37.6085L26.1467 35.6253L26.0992 34.5885L25.7535 33.4269L24.6689 31.9298L24.8028 31.8395L25.2393 32.0029L25.4165 31.8695L25.2177 30.4886L25.3603 30.1315L26.5097 29.1206L26.6695 28.2904L26.4016 26.4232L25.7577 26.2769L25.6757 26.4834L25.7319 27.5675L25.4856 27.9332L24.1547 29.2497L23.6794 30.3509L22.9879 31.1039L21.791 32.0159L20.9485 32.8719L20.1447 34.3002L20.0065 34.7563L19.9244 35.7199L20.5121 35.6941L21.7393 35.3929L21.6744 35.5779L20.3564 36.4212L19.4663 36.632L19.0774 36.4986L19.0428 35.9609L19.138 35.0445L20.1145 33.0096L22.8973 28.6989L23.0918 28.871L23.1349 29.7358L23.4157 29.6799L24.8936 27.1244L24.6171 26.2167L23.8868 24.754L23.5325 23.6225L23.5498 22.8267L23.4157 22.5083L22.4176 23.3644L21.8342 23.601L21.0436 23.6656L20.4343 23.515L19.22 22.2632L18.7664 22.1943L17.6991 22.7407L17.1589 22.8267L8.89708 21.9448L7.40621 21.3769L6.47715 20.6112L3.40492 19.5571L0.937632 18.2106L0 18.1116L0.362891 19.8238L0.0993299 22.2502L0.566035 25.4467L1.07588 26.7028L3.02897 28.8538L4.04878 31.0995L4.8611 35.6296L6.20067 39.1099L6.54641 41.2653L6.63281 42.5258L6.92658 43.597L7.19885 42.7924L7.26361 42.1773L8.10627 42.2762L8.78905 43.0721L10.5261 43.4464L7.25504 45.2189L7.75195 47.2925L9.13466 47.9249L9.96425 48.7767L9.68341 50.9965L9.2729 52.756L8.42167 51.203L8.08464 49.7403L8.01116 51.7451L8.07171 53.8015L7.73467 55.4276L9.10445 55.0576L9.8822 55.6298L12.3971 55.0705L12.8551 55.6298L15.1063 55.5695L15.8366 56.4429L17.1243 57.3162L17.6991 57.3808L18.0707 57.6174L16.8477 57.7851L15.8668 57.5958L15.089 56.6494L14.4193 56.4213L12.5786 57.1183L9.69212 57.1269L9.06989 56.3741L8.75013 56.4816L8.92294 57.1958L9.26433 57.8539L9.09152 63.0078L9.47605 67.5895L9.06554 69.3233L9.24269 70.6138L7.8989 81.2356L8.08028 83.4296L7.82543 85.5935L8.04572 87.1896L7.41914 88.7341L7.03897 93.4018L6.81854 99.4763L6.38653 100.143L5.72103 101.997L5.12901 104.157L5.79451 103.714L6.23523 103.929L5.28031 104.854L4.73578 104.841L4.42038 105.284L3.11115 110.717L2.57532 111.961L2.07841 113.996L3.24069 116.332L3.69447 117.747L3.52166 121.051L3.64685 122.299L4.31234 125.246L6.05372 127.487L6.08828 129.04L5.65191 130.666L6.63703 131.776L7.19014 133.342L7.74325 135.949L7.78651 137.158L6.918 140.81L7.00441 143.779L6.19209 146.128L5.95874 146.627L5.91983 146.876L6.3087 146.928L6.08828 147.332L5.94568 148.119L5.57408 148.003L5.67354 147.625L5.53095 147.427L5.17228 147.9L4.67536 149.685L4.10498 151.376L4.28649 153.273L4.67972 155.153L7.29395 157.631L10.0119 161.301L10.6385 162.635L11.2391 165.087L11.3082 166.704L10.794 168.984L12.0168 172.981L12.2372 176.13L15.5903 179.705L17.228 181.856L19.2718 183.185L20.1793 185.397L20.901 185.827L21.8515 187.062L22.2318 188.18L21.0089 186.588L21.1213 188.58L20.7195 189.768L20.7497 190.237L21.5621 189.217L22.2793 189.664L23.6447 190.891L24.6127 191.549L25.7837 191.979L26.5485 192.702L27.2053 192.521L26.8641 190.761L26.9979 188.391L28.0955 187.84L28.7782 187.978L30.3424 188.946L31.0036 189.054L32.4858 188.167L32.9523 188.219L33.6653 188.727L34.3135 188.907L35.9167 188.821L36.7246 188.912L37.4074 188.77L38.626 189.2L38.0469 189.251L37.2562 189.118L36.3012 189.535L31.8159 189.294L30.2344 189.432L29.0547 189.94L28.1906 190.654L28.4325 191.256L28.8214 191.63L29.2751 193.248L30.1696 194.134L30.9474 195.739L31.3579 196.995L31.6949 197.382L32.0103 197.989L31.4227 197.92L30.8523 197.636L30.0918 196.694L29.2579 196.268L28.3807 195.296L28.1301 194.001L28.2035 193.282L27.4603 193.136L26.6264 193.532L26.7948 195.343L26.8079 197.017L27.9054 199.581L28.0696 202.084L30.8654 205.35L34.305 206.133L35.195 207.449L35.3505 208.206L35.4067 209.234L34.8623 210.357L33.8512 211.631L33.9505 213.717L34.3481 215.24L36.932 217.877L39.3519 221.246L39.7321 222.188L40.821 223.251L41.5469 224.967L43.3187 225.991L44.7143 227.858L46.2094 228.68L46.6847 229.562L46.3865 230.895L46.7194 231.855L48.5428 232.62L49.1261 233.141L49.4373 233.816L49.0786 235.683L49.541 237.692L49.3854 238.609L49.515 239.783L49.2989 241.082L50.3274 241.612L51.2823 242.666L52.3107 242.842L55.0633 242.597L56.4762 242.7L58.9004 243.535L60.5985 243.715L61.8992 243.444L64.2325 244.602L66.0043 245.78L66.3888 247.136L67.5037 247.893L71.2846 249.162L74.1149 249.007L75.2384 249.265L76.6125 251.571L76.4007 253.227L77.8093 253.683L78.168 253.016L79.4125 253.128L80.4021 253.541L81.9576 255.021L83.941 256.191L87.8343 259.689L89.6361 262.494L90.3146 264.804L90.4009 265.742L90.2194 266.701L90.5479 268.732L91.2695 268.392L91.8312 268.943L91.9176 270.504L91.9436 270.595L95.4134 270.289L98.8832 269.984L102.353 269.678L105.823 269.373L109.293 269.067L112.763 268.762L116.232 268.456L119.702 268.151L121.089 267.996L120.32 270.147L119.741 270.952L125.492 273.06L131.244 275.163L136.995 277.263L142.746 279.358L148.498 281.453L154.249 283.544L160 285.63L165.752 287.712L170.038 287.704L174.325 287.695L178.611 287.687L182.898 287.678L187.184 287.669L191.471 287.661L195.757 287.652L200.044 287.644L200.052 286.06L200.057 284.477L200.1 282.877L200.109 281.289L202.775 281.307L205.441 281.324L208.107 281.337L210.773 281.354L213.439 281.367L216.105 281.384L218.771 281.401L221.437 281.419L221.532 281.444L221.645 281.5L222.725 282.709L223.831 284.602L225.136 285.923L226.64 286.671L229.202 288.874L232.823 292.526L235.71 294.953L237.866 296.166L239.309 297.207L240.048 298.08L241.042 299.973L242.917 304.331V306.327L243.635 308.216L245.069 310.66L246.322 312.096L247.394 312.531L248.565 313.396L249.835 314.691L251.3 315.56L252.96 316.003L255.25 317.164L258.171 319.04L260.176 319.995L261.26 320.038L262.211 319.436L263.023 318.192L263.823 317.392L264.609 317.035L264.929 316.463L264.782 315.671L265.313 313.899L266.523 311.137L267.967 309.64L269.647 309.408L270.745 308.887L271.264 308.078L272.162 307.992L273.446 308.625L275.533 309.033L278.424 309.214L280.13 309.154L280.653 308.844L280.925 308.861L280.947 309.201L281.375 309.347L282.209 309.296L282.935 309.769L283.868 311.27L287.074 313.671H287.079L287.351 314.493L288.466 315.676L290.523 317.495L291.685 319.061L291.957 320.378L293.007 322.456L294.835 325.291L295.647 326.818L295.449 327.037L295.591 327.833L296.079 329.206L296.983 330.367L298.309 331.318L299.649 333.022L301.001 335.478L302.643 337.345L304.57 338.618L305.659 339.806L305.914 340.903L305.897 341.841L305.603 342.619L305.728 343.359L306.269 344.061L306.45 344.921L306.238 346.113L306.251 346.448L306.407 346.719L308.118 348.767L309 350.419L309.699 353.052L309.704 353.073L310.482 354.648L311.605 355.289L313.329 355.53L314.638 356.076L315.533 356.932L316.665 357.449L318.026 357.625L319.331 358.193L320.584 359.144L322.918 359.767L326.331 360.068L328.928 360.843L330.713 362.09L331.495 362.344L331.707 362.362L331.806 362.172L331.94 361.819L332.631 361.415L334.273 361.148L334.347 360.236L334.226 359.763L333.457 359.729L331.171 355.332L330.773 354.136L330.402 351.37L330.06 350.458L329.663 348.466L329.321 347.661L329.784 346.504L330.281 345.631L330.294 344.891L330.164 344.018L327.649 343.346L326.725 341.045L327.77 341.892L329.689 342.985L330.233 342.946L330.726 342.787L331.439 341.553L332.553 338.15L330.821 335.891L331.149 335.59L331.517 335.444L333.003 335.654L333.975 335.315L335.168 333.865L335.639 332.398L334.342 332.849L334.174 332.277L334.157 331.709L334.887 331.52L335.863 331.447L336.455 331.09L336.862 330.617L337.026 331.15L337.367 331.529L337.998 331.025L338.391 330.673L338.543 329.3L338.798 327.924L339.973 329.021L341.364 328.668L342.25 328.134L343.071 327.433L342.414 327.136L341.818 327.007L340.418 323.996L340.798 323.798L341.196 323.901L341.39 324.331L341.796 324.826L342.734 325.562L343.637 325.058L343.642 324.701L344.83 324.727L346.774 325.175L348.036 325.041L346.567 326.014L345.327 326.999L345.979 326.822L347.924 325.661L349.946 324.929L351.415 323.953L352.344 323.505L355.598 321.397L356.98 320.498L358.454 318.915L358.614 317.698L360.079 316.437L361.656 314.91L361.077 313.667L360.386 312.694L360.023 310.324L360.515 310.182L361.15 310.629L361.634 310.672L362.334 309.627L363.432 309.661L363.644 310.974L362.991 312.458L363.544 312.63L365.087 312.182L366.046 312.458L363.333 314.252L363.216 314.716L365.463 313.331L371.223 310.763L373.759 310.5L373.807 310.04L373.081 308.762L374.351 306.478L374.926 306.512L375.228 306.857L375.177 307.39L374.745 308.268L374.265 308.711L373.833 308.831L374.053 309.584L374.528 310.006L375.263 309.623L376.123 309.386L379.839 309.296L381.114 309.119L382.419 309.266L385.124 310.16L387.077 311.262L388.533 311.782L393.511 312.337L395.658 311.843L395.961 311.503L395.291 310.806L395.032 310.367L395.702 309.519L396.462 308.973L397.97 308.478L398.804 309.657L400.645 309.722L401.95 311.666L402.564 312.359L404.785 312.935L405.428 312.256L405.779 312.238L405.64 313.047L405.834 313.71L406.911 315.181L406.967 315.633L405.912 315.452L405.363 315.594L405.273 316.033L408.756 317.349L411.811 318.21L412.705 317.939L413.811 316.274L414.827 315.887L416.322 315.951L417.264 316.489L417.929 318.205L418.34 318.562L419.273 318.137L419.692 317.508L419.921 316.708L420.029 315.925L420.284 315.375L420.289 314.071L419.701 313.632L419.208 313.404L418.97 313.064L418.992 312.613L422.41 313.705L423.127 314.282L423.382 314.772L423.443 315.426L424.359 315.706L424.899 315.654L425.534 315.848L426.057 316.325L426.731 316.579L427.686 317.336L428.339 318.562L428.771 319.04L428.499 320.262L429.052 320.021L430.197 318.889L430.689 319.264L431.173 319.776L431.441 319.371L431.731 318.648L432.802 318.042L432.871 317.216L432.271 317.005L431.644 316.592L430.871 315.387L430.084 315.422L426.835 314.226L426.027 313.314L424.882 312.591L424.324 311.477L424.709 311.111L424.787 310.711L425.042 310.591L425.543 310.724L426.286 310.393L425.902 310.019L426.632 309.369L427.543 309.201L428.767 308.706L428.667 308.435L428.728 307.308L428.205 306.521L428.045 306.061L428.205 305.57L427.068 305.402L426.23 306.181L425.915 307.386L425.405 307.541L424.044 307.179L423.179 306.108L423.637 305.574L424.398 305.123L424.999 304.585L424.968 304.202L424.121 303.824L423.689 304.305L423.214 304.49L422.224 304.46L421.01 305.385L418.815 305.803L417.484 305.303L415.933 304.258L416.918 302.352L418.21 300.937L419.416 301.079L420.396 301.324L421.498 302.473L425.932 303.905L427.69 303.109L429.181 301.41L429.873 301.432L430.357 301.591L432.413 301.092L434.215 300.438L434.609 300.421L435.252 300.558L436.799 301.272L440.948 301.019L442.17 301.165L443.549 301.118L443.778 300.438L444.24 298.334L444.798 296.725L445.052 296.544L445.809 297.482L446.124 298.394L446.107 299.952L446.431 300.447L446.923 300.541L447.455 301.384L447.736 302.15L446.358 302.602L445.372 302.671L445.117 302.998L449.771 302.529L451.094 301.092L451.88 300.73L451.936 301.152L451.245 301.914L451.547 302.12L453.911 301.492L454.274 300.692L455.082 299.896L455.255 298.713L455.881 298.708L456.447 299.246L456.91 298.502L457.35 298.274L457.743 299.229L457.493 300.218L455.821 300.696L455.337 301.01L454.883 301.496L457.713 301.036L461.205 300.61L462.099 300.309L463.102 299.719L464.014 299.319L464.908 299.509L466.325 299.358L467.436 299.758L467.777 300.077L467.946 300.576L466.537 300.253L463.936 300.67L467.323 301.599L471.195 303.243L471.982 303.832L472.405 303.901L472.56 303.423L472.586 302.825L473.377 302.339L474.254 302.236L473.801 302.929L473.528 303.587L474.172 304.159L474.012 304.594L473.377 304.525L475.456 306.551L477.283 307.936L477.85 309.016L477.755 309.567L477.491 309.816L476.92 309.193L476.553 308.397V309.433L477.007 310.436L477.703 310.642L479.314 310.259L481.216 310.079L481.946 309.743L482.918 309.296L483.99 309.36L487.027 307.635L488.19 307.463L489.054 307.502L489.344 307.196L489.145 306.461L489.382 305.815L489.94 305.321L493.159 304.779L497.402 307.244L502.298 313.8L508.62 319.311L510.05 321.561L510.141 322.598L510.059 323.174L509.938 327.063L508.87 330.462L507.717 335.779L508.153 336.721L508.542 337.294L508.935 337.633L509.268 337.311L509.929 337.513L510.352 337.139L510.534 336.717L510.711 335.414L510.262 335.078L509.761 334.183L510.236 333.947L510.919 334.256L511.636 335.353L511.908 335.487L512.543 335.013L513.027 335.555L513.092 335.93L512.729 336.803L511.636 338.064L510.24 340.146L509.622 340.271L509.281 340.481L510.003 341.165L510.426 341.815L512.599 346.427L513.658 348.096L514.432 348.974L515.006 349.266L515.758 349.387L515.905 348.926L515.754 348.087L516.787 347.73L517.785 347.756L517.137 348.698L517.003 351.215L517.465 353.263L517.867 353.426L518.308 353.263L518.908 352.196L519.379 351.748L520.019 351.447L519.206 352.656L518.437 354.097L518.77 354.398L519.556 354.833L520.226 358.7L521.393 360.877L523.177 362.103L525.645 362.912L525.887 364.237L527.317 366.212L528.695 369.086L529.378 369.473L530.307 369.826L530.791 370.454L530.489 370.987L528.886 369.727L528.419 369.851L528.147 370.389L528.043 370.927L528.734 372.127L529.927 372.192L531.742 371.624L533.267 371.886L535.436 370.875L536.322 370.91L537.752 369.563L538.228 368.29L538.556 365.743L539.546 364.104L540.271 362.284L540.466 362.34L540.548 362.762L540.669 362.882L540.859 358.903L541.697 353.048L541.594 349.834L541.127 347.326L540.678 346.126L539.459 344.452L534.317 331.245L533.876 330.002L533.12 328.517L532.654 326.061L532.278 325.037L532.036 323.363L532.394 323.346L532.848 323.708L532.74 324.387L532.909 325.071L533.708 325.51L533.85 325.816L533.358 326.667L533.323 327.394L533.786 329.008L534.127 328.599L534.27 327.545L534.525 326.646L534.84 326.577L534.65 329.343L534.806 331.288L536.145 334.6L536.664 335.056L535.739 332.751L535.259 331.241L535.112 330.002L535.16 328.732L535.32 327.889L535.851 327.076L535.363 326.117L531.292 319.354L528.812 313.748L527.054 309.094L525.99 304.275L525.399 302.486L524.53 297.319L523.964 296.054L523.813 295.069L523.761 294.049L524.003 293.503L524.357 292.169L524.578 291.055L524.491 290.513L524.716 289.493L525.07 289.777L525.649 289.885L526.574 288.59L526.081 287.889L525.494 287.626L525.455 287.329L526.496 287.076L526.945 286.164L527.416 285.656L527.943 284.821L527.697 284.714L527.36 284.86L526.924 284.714L527.131 284.215L528.008 283.707L528.065 283.204L527.81 282.911L527.671 282.382L528.104 281.827L528.877 281.689L529.266 281.199L529.279 280.838L528.911 280.451L528.695 279.917L529.063 279.698L529.512 279.728L530.994 278.979L531.616 277.779L531.5 277.224L531.897 276.583L532.606 276.415L533.004 276.183L533.777 275.138L533.682 274.707L533.297 274.432L532.917 273.963L532.524 273.038L532.468 271.834L533.6 273.412L533.92 273.245L533.984 272.784L534.356 272.574L534.615 273.563L534.827 274.036L535.177 274.114L535.976 273.584L536.314 273.197L536.452 272.186L535.773 271.438L534.512 270.917L535.264 270.603L536.612 270.78L537.8 271.072L538.945 270.547L539.416 269.988L540.012 269.756L540.712 269.812L541.935 269.373L542.921 268.697L543.491 267.815L543.011 266.654L544.567 266.977L545.414 266.443L546.87 265.234L547.207 263.922L548.279 263.544L549.234 263.328L550.979 261.995L551.545 261.281L550.914 259.405L551.576 258.179L551.567 258.781L551.433 259.512L551.973 260.489L552.647 258.162L555.292 254.518L556.247 253.571L559.444 251.416L561.527 250.775L566.289 250.857L566.807 249.678L567.019 247.131L567.347 248.521L567.265 249.734L567.326 250.452L567.81 248.852L568.138 247.415L569.473 245.44L570.126 244.756L570.701 244.386L572.304 243.018L573.976 241.921L573.704 241.513L573.57 240.966L573.578 238.94L573.915 239.474L574.231 240.558L574.983 240.812L575.523 240.627L576.953 239.28L577.977 239.435L579.84 239.375L581.045 239.336L581.814 239.293L582.134 238.635L583.214 238.372L584.442 238.265L585.375 237.305L586.317 235.933L585.167 235.159L581.672 235.868L579.805 235.438L578.881 234.634L577.722 232.732L580.259 234.931L581.248 235.146L583.08 233.928L583.258 233.476L583.331 232.758L583.837 231.842L584.476 231.029L583.992 230.512L583.474 230.155L578.881 228.258L578.085 227.243L579.939 228.189L581.706 228.658L583.007 228.336L583.284 227.208L583.694 227.17L584.234 227.522L584.437 228.585L584.753 229.17L585.271 229.011L585.958 229.106L587.354 229.579L588.581 229.798L589.437 229.415L591.105 227.527L593.434 225.479L593.788 223.724L593.615 222.571L593.451 221.732L592.967 220.906L592.457 220.837L590.94 221.792L590.668 224.369L590.128 224.829L589.67 224.838L589.765 223.405L589.955 222.055L589.839 220.695L588.179 220.385L587.488 220.742L586.339 220.953L584.576 220.906L583.271 221.087L581.875 220.88L581.966 219.753L581.706 218.269L581.784 216.84L581.979 218.049L582.445 219.133L583.897 220.024L584.874 219.835L585.535 219.245L586.028 218.269L586.788 218.2L587.924 218.527L587.397 217.43L587.989 217.774L588.858 218.088L588.966 217.056L588.884 216.1L590.012 216.767L591.278 217.146L592.09 217.641L592.855 218.579L592.289 216.268L591.58 214.552L590.932 213.863L590.759 213.197L591.161 211.742L590.992 211.308L591.092 210.744L591.321 210.422L591.671 210.818L591.965 211.807L592.98 216.221L593.97 218.716L595.763 222.158L596.325 222.945L596.027 222.05L593.611 216.849L592.003 210.456L591.381 208.83L591.083 207.385L590.681 206.623L588.927 206.352L587.713 206.021L585.829 206.963L584.757 206.855L584.554 205.892L582.985 204.588L582.527 202.695L581.391 202.528L579.455 201.908L578.526 201.211L576.171 200.841L575.799 200.639L575.51 200.334L578.47 200.51L582.151 202.02L583.033 201.96L583.383 203.151L584.541 204.214L585.085 204.842L585.824 205.436L586.585 205.104L587.25 204.511L587.039 203.633L586.719 203.057L585.82 202.097L584.653 201.581L583.275 200.437L581.732 198.527L581.516 198.066L581.495 197.671L584.152 200.639L585.176 201.181L585.911 200.781L585.76 200.299L585.816 199.477L587.484 199.921L587.592 198.806L587.419 197.83L586.218 197.296L586.969 196.668L584.805 195.799L584.01 195.188L583.158 193.88L582 193.042L580.38 191.063L579.459 189.647L577.204 187.621L577.697 187.599L579.282 188.696L580.635 190.74L581.071 191.097L584.714 194.99L585.392 195.171L586.511 195.089L586.978 194.392L587.129 193.287L587.509 192.469L587.479 191.777L586.377 190.714L584.96 189.983L584.018 188.709L582.86 188.107L579.688 187.143L577.986 184.7L577.221 184.493L575.743 184.954L575.242 184.773L574.754 184.085L575.117 182.05L575.398 180.961L576.56 179.783L577.446 179.12L578.008 178.255L578.189 176.505L578.336 178.225L577.904 179.335L576.919 180.196L575.877 181.873L575.627 182.583L575.735 183.921L576.664 184.085L577.623 183.396L578.539 183.345L578.695 184.132L579.157 184.85L579.892 185.694L580.159 185.001L580.155 184.188L581.356 186.141L583.487 186.67L585.176 187.509L585.812 188.249L586.55 188.83L586.65 188.012L586.252 187.152L585.729 186.059L582.903 183.203L582.579 181.925L582.476 180.781L582.696 181.28L582.843 181.912L583.746 183.491L584.507 183.986L585.371 184.631L585.911 184.519L585.639 183.732L585.129 182.893L584.61 182.011L584.178 178.772L584.368 178.066L584.437 177.257L584.39 176.362L584.701 175.64L584.398 174.775L583.915 173.786L584.066 173.743L584.951 174.319L585.595 173.648L585.505 172.839L584.757 172.332L583.733 170.847L583.776 170.615L585.587 171.303L585.807 170.869L585.772 170.077L586.339 169.755L586.507 169.135L586.481 168.778L586.68 168.524L587.341 169.785L587.579 169.329L587.691 167.982L587.989 168.266L588.076 168.894L588.979 168.533L589.515 168.068L589.713 167.487L589.661 166.601L589.93 166.068L590.617 165.952L591.191 165.693L591.053 166.95L592.232 166.851L591.74 167.513L591.239 167.651L590.651 168.412L591.433 168.602L592.194 168.954L590.984 169.088L589.791 169.062L588.836 169.901L587.838 171.815L588.067 173.799L589.082 172.878L589.057 173.51L588.443 174.926L587.721 174.642H586.9L586.697 175.515L586.684 176.199L587.773 175.666L588.378 176.091L588.655 177.064L587.7 177.528L587.051 177.597L586.559 179.271L586.961 179.068L587.32 178.303L588.11 178.522L588.572 179.318L590.003 180.634L590.487 180.574L590.681 180.931H589.324L588.287 180.669L587.488 180.957L587.116 182.575L587.484 183.469L588.123 184.622L589.277 185.289L590.068 185.874L590.444 185.642L590.608 185.212L590.863 185.07L591.083 185.694L591.446 185.414L592.034 184.708L592.397 184.61L592.176 185.276L592.332 186.158L592.077 186.881L591.554 187.565L591.999 187.901L592.431 188.004L593.162 188.825L592.751 189.647L592.487 190.581L593.892 190.546L594.812 190.847L594.086 192.869L593.2 193.859L592.038 195.941L590.984 199.284L590.711 201.323L590.867 202.102L591.476 203.009L592.453 200.824L592.963 198.879L593.511 198.157L594.337 197.498L595.149 197.21L595.689 196.857L595.577 195.756L598.52 189.148L599.267 188.167L600.075 186.438L600.87 186.244L601.095 185.586L601.186 184.265L601.397 183.93L601.726 183.637L601.925 183.874L601.916 184.554L602.197 184.287L602.348 183.624L602.383 182.441L601.933 181.28L601.475 180.961L600.551 181.09L601.263 180.454L601.804 179.06L601.743 178.217L600.576 177.571L599.055 175.3L598.066 173.347L597.815 170.421L596.519 168.533L595.862 167.38L595.944 166.192L595.771 165.625L595.698 164.824L596.735 163.628L597.193 162.635L597.967 161.843L598.934 161.322L600.728 160.849L601.925 159.46L601.566 160.268L600.961 161.228L598.541 161.865L597.707 162.493L597.107 163.702L596.476 165.427L596.528 166.519L596.467 167.169L598.537 169.509L600.019 170.37L601.173 171.557L602.214 171.51L603.122 171.863L604.072 172.525L603.791 174.048L603.381 175.554L603.752 175.691L605.317 174.754L607.119 171.561L607.62 170.946L607.641 170.245L607.935 169.879L608.678 169.402L609.197 169.466L609.75 168.774L609.966 167.724L610.221 167.221L610.014 166.253L610.943 166.455L611.841 165.237L612.818 163.478L613.527 160.165L613.79 159.572L614.171 159.301L613.933 161.873L613.985 162.514L614.361 160.402L614.611 158.049L614.905 156.5L615.294 155.252L615.471 154.022L615.29 152.886L614.974 152.069L614.348 152.422L612.023 152.004L611.747 150.86L612.2 149.604L612.68 148.971L613.095 148.571L613.544 148.352L614.136 147.836L614.642 147.255L615.834 144.747L616.055 143.443L615.951 141.215L615.32 139.395L615.86 139.903L616.383 140.66L616.508 142.501L616.085 144.777L615.579 145.947L615.113 147.332L615.596 146.928L616.042 146.304L616.763 146.059L617.64 145.31L618.945 143.921L620.017 143.026L624.878 140.57L626.801 139.92L628.002 138.823L628.944 139.133L633.404 138.973L634.717 138.393L636.001 138.72L638.321 138.169L640.067 137.928L642.016 138.091L645.006 137.321L645.965 136.125L646.172 133.239L646.937 132.12L646.613 130.627L646.989 130.774L647.335 131.161L647.577 131.845L648.056 132.469L649.18 131.458L649.539 131.432L648.865 133.118L649.054 135.123L649.297 135.558L650.372 134.775L651.652 134.607L654.966 131.927L655.385 132.004L655.519 133.647L655.363 134.448L655.497 134.835L657.628 134.061L658.557 133.346L662.744 132.533L663.625 132.426L664.087 132.538L664.269 132L664.174 130.429L663.733 127.952L662.143 126.054L661.525 125.749L660.994 125.684L660.54 125.844L660.596 126.17L661.084 126.751L661.37 126.304L662.126 126.833L662.372 127.646L663.392 129.384L663.448 130.128L661.828 131.036L659.879 131.694L658.289 131.238L657.221 130.494L656.807 128.309L655.506 127.526L655.64 126.966L655.973 126.661L654.512 123.606L653.544 123.021L651.379 122.453L650.779 121.946L652.183 120.302L652.905 119.248L653.384 118.337L654.348 118.044L655.445 117.287L656.033 117.179L656.137 116.745L655.895 116.383L655.523 116.349L655.013 116.504L654.542 116.426L653.989 115.574L653.76 114.71L653.41 113.867L654.033 111.978L654.573 109.848L655.082 109.203L655.675 108.79L657.148 105.25L659.101 103.073L661.006 100.651L660.579 100.152L660.199 99.8892L661.296 98.3147L662.709 97.1747L663.885 96.8348L663.772 97.4544V97.9576L664.364 97.8071L665.008 97.4328L665.397 97.9275L665.786 98.22L665.989 97.6737L665.851 96.6455L665.946 95.9142L666.227 96.1077L666.352 96.7445L666.741 96.8907L667.112 95.17L667.674 94.5203L667.869 95.2731L668.024 96.4132L668.435 96.3143L668.841 94.7053L669.022 95.0409L669.273 96.1293L669.757 96.0002L670.314 95.1441L671.412 94.3998L672.851 94.6407L673.931 93.7804L674.765 92.7823L674.825 91.526L676.126 88.5748L676.061 87.1293L677.444 86.2647L678.014 85.1806L678.468 84.8235L678.433 85.8516L678.075 86.7852L678.291 86.9272L678.788 86.7852L679.103 86.9831L678.088 88.007L677.867 88.7212L678.943 88.6738L680.292 89.2072L680.771 89.8741L681.255 90.0764L681.476 89.3149L681.389 88.0329L681.899 86.9315L682.249 85.886L682.66 86.5357L683.182 86.9402L683.874 86.454L684.353 85.8904L684.738 85.7657L685.313 85.757L685.874 85.9807L686.298 86.17L686.583 87.0434L687.032 87.9597L687.551 87.6844L687.905 87.3574L688.173 86.6131L688.847 86.7939L689.673 84.7245L690.26 84.5654L691.034 84.888L691.928 84.9569L692.581 84.7117L693.104 83.563L694.292 83.3651L695.428 82.681L697.524 83.0381L700 80.4612L699.948 80.0912L699.676 79.7815L698.552 79.4889L698.466 78.4823L698.872 77.7208L698.609 76.043L698.267 75.1697L698.336 74.6491L697.779 74.434L697.265 74.2534L696.824 74.1113L696.569 74.3523L696.327 74.675L696.029 74.9159L695.402 74.576L695.005 73.9566L694.365 73.3155L694.123 72.8336L694.249 72.2745L694.534 71.7324L694.663 71.0871L694.352 70.347L694.067 69.9255L693.868 69.4437L693.942 68.979L694.339 68.7596L694.707 68.4757L694.836 67.8691L694.607 67.2238L693.955 66.9614L693.415 67.0604L692.632 66.9183L691.876 66.514L691.38 66.0493L690.995 65.7869H690.697L690.342 65.5246L690.131 65.0771L690.156 64.3501L690.256 63.9026L690.455 63.5198L690.468 63.0939L690.381 62.7884L690.368 62.5432L690.424 62.2378L690.554 61.6312L690.342 61.1838L690.321 59.635L690.282 56.7312L690.252 54.5027L690.213 51.6892L690.191 49.637L690.161 46.7547L690.131 44.01L690.083 41.4115L688.532 39.9101L686.566 38.0086L684.88 36.7481L683.969 36.5976L683.398 36.7739L683.169 37.2773L681.912 37.815L679.63 38.3915L677.686 39.2821L676.973 39.2906L676.368 39.14L675.569 38.6927L675.016 38.0344L674.825 36.8901L674.998 35.3156L673.832 34.9929L672.661 34.666L671.943 35.75L671.256 36.6621L669.891 38.6496L667.972 41.4331L666.905 42.9602L665.034 45.6405L663.383 47.9937L663.016 50.4028L662.662 52.6829L661.3 54.4123L660.471 55.9954L660.099 57.7507L659.788 59.3597L659.766 60.7062L660 61.4117L659.892 61.9839L659.442 62.6421L658.539 63.7822L658.379 64.8792L657.831 65.4212L656.258 66.5011L654.974 68.0972L654.91 68.9962L655.091 69.7448L655.121 70.2051L654.862 70.5278L654.348 70.5063L653.79 70.6053L653.324 71.2678L653.337 72.2186L652.995 72.9026L652.593 73.0445L652.252 72.5627L651.841 71.8399L651.362 71.7668L650.632 72.2486L649.729 73.0402L648.916 73.0832L647.391 72.5755L646.28 74.1113L645.083 77.3981L640.041 77.4068L634.994 77.4153L629.947 77.424L624.904 77.4325L619.857 77.4412L614.81 77.4455L609.763 77.4541L606.941 77.4584H606.388L605.74 77.5402L604.595 77.4584L602.901 78.0306L600.68 79.2351L597.988 81.3905L593.248 86.0453L593.175 86.1528L593.313 86.2603L593.447 86.6906L593.261 87.1811L592.76 87.7274L587.842 91.3282L586.451 92.6188L586.969 93.3458L587.013 93.6729L587.324 93.6169L588.331 92.9974L588.624 93.0662L588.771 93.234L588.858 93.6341L588.395 94.3397L588.599 94.4988L589.493 94.3397L589.869 94.417L589.527 94.9462L589.069 95.2861L588.992 95.6174L588.318 96.4949L588.024 96.6757L587.86 96.5552L587.907 96.1637L587.276 96.5854L587.233 96.9251L587.596 97.2522L587.881 97.7597L588.084 98.4437L588.184 99.8979L588.309 100.186L588.361 100.324L588.3 100.492L588.24 100.831L588.378 101.137L588.27 101.49L587.916 101.89L587.216 102.105L586.166 102.144L584.995 102.604L583.699 103.49L582.808 104.299L582.324 105.03L581.966 105.331L581.732 105.207L579.987 105.805L579.364 106.205L579.205 106.566L579.045 106.635L578.881 106.407L577.636 106.235L575.307 106.123L573.488 106.235L572.174 106.57L571.016 106.377L570.014 105.654L568.428 105.086L564.344 104.462L560.918 104.578L558.105 105.013L553.693 106.274L553.594 106.308L553.619 106.39L553.537 109.229L555.451 109.818L555.616 110.025L555.551 110.425L555.257 111.019L555.313 111.828L555.719 112.856L555.892 113.673L555.823 114.275L555.331 114.852L554.419 115.398L553.585 116.233L552.829 117.351L551.809 118.268L550.521 118.982L549.294 119.877L548.132 120.952L545.807 122.432L541.296 124.936L540.708 125.22L540.181 125.534L539.165 126.08L538.163 126.635L531.681 129.023L527.321 131.006L524.673 132.602L522.365 134.581L521.319 135.183L520.179 135.347L518.372 135.239L516.493 135.476L514.54 136.057L513.273 136.526L512.699 136.887L512.141 136.994L511.606 136.852L510.171 135.893L510.063 135.966L509.795 136.108L508.953 135.94L507.993 135.923L507.159 136.276L506.33 136.332L505.509 136.095L506.196 135.755L509.48 135.024L509.441 134.891L508.257 134.469L507.894 134.082L507.596 134.112L507.362 134.56L506.926 134.753L506.291 134.693L505.651 134.357L505.007 133.746L502.903 132.761L502.32 132.258L501.572 131.922L500.475 131.746L500.315 131.462L500.496 131.079L501.455 129.246L502.013 128.545L502.242 128.356L502.54 128.365L502.67 128.175L502.627 127.784L502.743 127.539L503.361 126.867L503.702 126.51L503.56 125.951L503.72 124.932L504.121 123.611L504.571 122.656L504.774 122.759L504.956 122.428L505.798 121.916L507.445 121.047L508.944 119.283L510.145 118.229L511.355 117.14L512.046 115.26L512.906 110.696L512.729 110.348L512.37 109.651L511.705 106.372L510.728 100.492L509.921 96.8305L509.281 95.4152L508.412 94.3354L507.315 93.5954L506.477 93.2727L505.902 93.3717L504.994 93.9739L503.3 94.5031L502.605 94.8472L502.207 95.3119L501.741 95.583L501.201 95.6646L501.14 95.7894L501.559 95.9615V96.4089L500.414 98.4266L500.151 98.8826L499.455 99.0504L498.885 99.4461L498.297 100.453L497.735 100.711L496.918 100.616L495.553 100.001L494.732 99.3859L494.46 98.7708L494.443 98.0308L494.684 97.1661L494.663 96.4692L495.181 95.015L495.877 94.4988L496.892 94.3784L497.45 94.146L497.554 93.8019L497.869 93.5567L498.392 93.4104L498.833 92.4855L499.196 90.7818L499.619 89.8483L499.921 89.6805L500.202 89.7365L500.22 89.943L501.391 88.8503L501.823 88.0888L501.849 87.3101L501.961 85.03L502.099 83.5544L502.264 82.8832L502.199 81.1581L501.857 79.7298L500.544 78.1639L500.358 77.6434L500.401 77.0884L500.673 76.5033L501.257 76.3657L502.285 76.8175L502.462 76.7098L502.177 76.4431L502.008 75.9183L501.961 75.1353L501.827 74.705L501.611 74.6234L501.041 73.7285L500.963 73.2682L501.028 72.838L500.812 72.3992L500.042 71.7194L498.647 71.0225L495.311 69.7018L494.71 69.1899L493.885 68.8887L492.835 68.7984L492.169 68.3983L491.889 67.6885L491.426 67.0474L490.787 66.4752L489.767 66.1009L488.371 65.9246L486.898 65.3051L485.347 64.2425L484.478 63.9198L484.366 63.8768L483.955 64.2167L483.229 64.3285L482.192 64.2123L481.829 64.3586L482.145 64.7673L481.877 65.3997L481.03 66.2645L480.542 67.1464L480.408 68.0412L480.542 68.8371L480.939 69.5298L481.527 69.9771L482.296 70.1794L482.456 70.4547L482.002 70.7945L481.202 70.9881L480.057 71.0354L478.9 71.4184L477.728 72.1324L477.046 72.7735L476.856 73.3413L476.825 74.1631L476.977 76.1635L476.886 76.9378L476.385 78.3575L475.728 80.2074L474.941 81.3689L474.794 81.2098L474.924 80.6462L475.577 78.792L475.676 78.0048L475.615 77.5918L475.391 77.5487L475.132 77.9102L474.842 78.6673L474.777 79.0803L474.946 79.1448L474.821 79.661L474.41 80.629L474.055 80.8269L473.757 80.259L473.779 79.5104L474.272 78.009L474.095 77.7165L474.38 76.7829L474.509 76.0989L474.362 75.3934L474.479 74.7438L474.859 74.1544L474.743 73.9737L474.125 74.206L473.243 75.3117L472.094 77.2863L471.199 78.1467L470.56 77.893L470.046 78.0606L469.657 78.6414L469.233 78.9254L468.775 78.9125L468.499 79.6008L468.404 80.9861L467.95 81.7733L466.602 82.2379L466.338 82.595L466.316 83.1069L466.537 83.7695L466.541 85.0945L466.338 87.0777L465.889 88.8115L465.197 90.2957L464.437 91.5175L463.18 93.1221L463.158 93.4405L463.776 94.6967L464.035 95.6302L464.165 97.4888L464.134 97.7985L462.924 100.083L462.907 100.41L464.203 104.23L465.353 106.966L465.487 107.254L465.828 108.343L466.463 110.472L466.792 112.58L466.809 114.671L466.654 116.689L466.329 118.629L465.846 120.479L465.206 122.243L464.541 123.632L463.175 125.93L462.505 127.461L461.81 128.696L461.092 129.634L459.8 130.679L456.473 132.598L455.427 132.968L454.278 133.11L453.029 133.019L452.347 132.804L452.195 132.447L451.927 132.413L451.564 132.176L451.106 131.772L450.596 131.04L450.048 129.535L449.451 127.255L448.924 125.895L448.466 125.452L448.051 124.764L447.68 123.83L447.498 121.722L447.503 118.431L447.628 116.186L447.874 114.989L447.805 114.073L447.421 113.445L447.183 112.658L447.092 111.716L446.893 111.075L446.582 110.739L446.513 110.27L446.69 109.663V109.246L446.522 109.018L446.483 108.678L446.569 108.231L446.414 106.906L446.453 106.097L446.669 105.215L447.356 103.628L447.58 102.845L447.637 102.049L447.961 101.042L448.859 98.9643L448.881 98.4868L448.57 97.5404L448.496 96.8391L448.566 95.9012L448.851 94.744L449.356 93.363L450.026 92.2575L450.856 91.4314L451.128 90.4893L450.843 89.4353L450.947 87.8736L451.443 85.8044L451.997 84.2514L452.606 83.2146L453.025 82.2251L453.25 81.2872L453.15 80.8656L452.697 80.4182L452.251 79.7643L451.517 79.6223L450.605 80.0569L450.476 80.031L450.009 80.0869L449.132 81.0462L448.349 82.7112L447.788 83.3952L447.014 83.8599L446.444 84.3804L446.072 84.9526L445.584 85.0773L444.984 84.7547L444.867 83.9631L445.234 82.7069L445.796 81.498L446.945 79.5234L446.984 79.0458L447.265 78.4651L449.05 77.6133L449.732 76.9378L449.966 76.0774L450.031 74.8083L450.147 74.4556L450.411 74.305L451.197 73.2423L452.502 71.2634L453.673 69.2114L454.71 67.0948L455.471 65.8987L455.95 65.6278L456.305 64.9868L456.858 63.0078L457.273 62.1001L457.549 61.7516L457.683 61.9625L457.419 63.0508V63.9499L457.644 65.0987L458.085 65.4944L458.737 65.1373L459.299 64.3801L459.77 63.223L460.315 62.7453L460.933 62.9433L461.447 62.8659L461.853 62.5174L462.626 62.3453L462.769 62.7841L462.674 63.6617L462.428 64.0876L462.03 64.0576L461.576 64.5179L461.071 65.4728L461.092 66.23L461.641 66.7936L461.913 66.8237L461.909 66.3204L462.168 65.8084L462.985 64.8792L463.063 64.5781L464.614 63.7607L465.197 63.2358L465.357 62.6335L466.165 61.4075L466.926 61.016L467.967 60.8482L468.974 60.9557L469.951 61.3344L470.504 61.3257L470.633 60.9257L471.463 60.6546L472.997 60.517L474.125 59.949L474.846 58.951L475.771 58.4391L476.894 58.4219L478.424 58.7789L480.356 59.5059L481.916 60.4955L483.977 62.4787L484.521 62.6765L484.88 62.6981L485.053 62.539L485.061 62.3496L484.906 62.1216L485.005 61.2827L484.91 61.0375L485.519 59.7253L486.042 59.3897L486.651 59.5146L487.032 59.7984L487.192 60.2415L487.382 60.4008L487.758 60.4137L487.965 60.4783L488.086 60.4439L488.276 60.1986L489.568 60.3061L493.958 60.9686L494.559 60.8654L494.901 60.6374L494.983 60.2803L494.702 59.9447L493.552 59.2392L493.202 58.7747L493.112 58.3314L493.276 57.9185L493.034 57.5442L492.381 57.2087L490.947 57.114L490.692 56.7741L490.804 56.4343L491.228 56.0084L491.245 55.3803L491.111 55.0232L490.921 53.9434L490.61 53.2163L489.979 52.1408L489.728 51.7493L489.357 51.5171L489.006 51.5601L488.557 51.7623L488.034 52.2226L487.291 52.713L486.526 52.5882L485.999 51.9042L485.243 51.7536L484.253 52.1451L483.376 52.1279L482.611 51.6977L481.155 51.4912L480.982 51.1728L481.008 50.8374L481.237 50.4846L481.367 49.65L481.393 48.3249L481.592 47.3913L481.959 46.845L481.393 46.6213L479.893 46.716L478.169 47.1634L476.22 47.9678L474.103 48.2475L471.817 48.0065L470.093 48.0409L468.179 48.4411L467.846 48.312L466.641 48.8455L464.562 50.0457L463.007 51.1556L461.715 52.4032L461.516 52.4161L461.213 52.1408L460.561 51.758L459.865 51.7493L459.126 52.1064L458.375 51.8784L457.61 51.0611L456.914 50.8287L456.287 51.1858L455.259 51.3449L452.986 51.1556L452.744 50.889L452.545 50.0028L452.295 49.6198L451.854 49.3488L451.145 48.368L449.594 45.8555L449.162 45.5543L447.896 44.7757L446.69 44.4272L443.631 43.9369L442.97 43.5841L442.577 43.6529L440.554 45.0124L440.468 45.3092L440.347 45.6017L440.014 46.0749L439.751 46.2901L439.587 46.0664L439.422 45.6705L439.448 44.7972L439.664 43.4507L439.543 42.5731L439.077 42.1687L438.878 41.6825L438.943 41.1104L438.606 40.6501L437.867 40.3016L437.521 39.8499L437.573 39.2864L437.499 38.9034L437.305 38.6969L436.514 39.1358L435.131 40.2198L434.189 41.1878L433.692 42.0396L432.953 42.5215L431.968 42.6333L431.186 42.999L429.795 44.2422L428.758 44.879L427.038 45.3436L424.631 45.6405L422.626 46.4492L421.019 47.7656L419.074 48.8755L416.797 49.7876L415.25 50.1103L414.434 49.8435L413.461 49.2842L412.001 48.2733L411.789 48.368L411.901 48.5745L411.871 48.7465L411.599 49.0348L409.745 49.7747L409.494 49.4994L410.186 48.4712L410.458 47.714L410.441 47.0128L410.748 46.148L411.378 45.1199L411.616 44.423L411.452 44.0616L410.748 43.4636L410.182 43.4249L409.46 43.6185L407.265 45.1371L407.044 45.0209L406.34 44.78L406.167 44.8231L404.478 46.1395L402.758 46.9225L398.674 48.0496L397.642 48.183L396.834 48.1012L395.797 47.4473L395.382 46.9956L395.412 46.5138L395.896 45.9976L400.982 41.9192L404.124 39.0067L409.33 33.5173L410.67 32.4203L413.695 30.5876L418.547 28.8194L420.941 27.8386L423.015 26.7674L424.342 25.9457L424.916 25.3692L425.379 25.0982L425.733 25.1369L426.062 24.9562L423.663 24.711L422.138 25.068L421.014 24.711L420.453 23.5796L419.822 22.8611L417.052 23.201L413.574 22.9601L411.906 23.102L411.266 22.6245L410.743 21.3727L409.827 21.2134L408.28 21.493L406.133 23.102L404.115 23.9324L402.525 23.9366L400.961 23.102L398.402 21.4242L396.622 19.5399L394.6 18.8774L393.062 19.0495L392.457 19.996H391.653L391.091 18.3827L390.607 17.1222L389.605 16.5844L387.794 15.3712L386.532 14.7173L384.597 13.9172L383.927 13.7709L382.669 13.6719L381.421 13.6074Z" fill="#D900C6"/>
<path d="M23.5411 13.203L23.3812 12.8072L21.9768 12.1275L21.7306 12.1877L21.0176 12.6954L20.7022 13.1858L20.9095 13.6504L22.0374 14.2354L22.1065 13.9085L21.9121 12.9535L22.154 13.0309L22.7071 13.6504L23.0528 13.5902L23.5411 13.203Z" fill="#D900C6"/>
<path d="M20.901 16.5328L20.5812 15.9348L20.4515 15.2508L19.3626 13.8913L18.7793 14.0161L18.6885 14.3732L18.883 15.4702L19.0472 15.8058L19.596 16.1499L20.901 16.5328Z" fill="#D900C6"/>
<path d="M22.7202 17.376L22.9103 17.1953L22.9923 16.821L22.4176 15.922L22.3312 15.07L22.1281 15.0141L21.804 15.2637L21.5621 16.2317L21.6916 16.735L22.0719 17.1394L22.7202 17.376Z" fill="#D900C6"/>
<path d="M26.514 24.5303L25.9221 22.1685L25.6152 21.3769L25.2911 21.1359L24.4096 20.865L24.4701 20.6412L26.285 19.6819L26.3714 19.1914L25.9221 18.4946L25.5461 18.1116L25.2436 18.0471L24.7553 18.6493L24.0812 19.9185L23.7873 20.6756L23.8739 20.9252L24.4961 21.8545L24.8979 22.1685L25.3171 22.2588L25.5158 22.6717L25.5547 23.9968L25.6973 24.4528L26.1078 25.1239L26.8986 25.3219L27.2702 25.6316L27.5596 26.221L27.8752 26.4662L28.2208 26.3672L28.4196 26.0876V25.2488L26.7689 23.5451L26.514 24.5303Z" fill="#D900C6"/>
<path d="M433.541 26.6168L433.602 26.32L434.138 26.1435L437.607 24.2421L437.992 23.7043L437.949 23.4247L438.134 23.0073L439.306 21.9835L439.133 21.8286L438.052 22.1427L436.026 23.1322L431.281 25.8467L430.724 26.2726L430.633 26.4878H431.009V26.7544L430.642 27.2922L430.689 27.6579L431.156 27.8558L432.064 27.6793L433.42 27.1287L433.9 26.8577L433.982 26.7071L433.541 26.6168Z" fill="#D900C6"/>
<path d="M26.7732 32.5966L26.8381 32.2525L26.7084 30.6823L26.596 30.5402L26.2029 30.2993L26.0776 30.4112L25.909 30.9618L25.8832 31.8094L26.1035 32.1879L26.7732 32.5966Z" fill="#D900C6"/>
<path d="M28.0307 36.2103L28.0869 35.8059L27.5036 34.9025L27.1837 34.1195L26.9676 34.1411L26.7215 35.3328L26.6825 36.4642L27.1837 35.8921L27.3091 35.9652L27.3264 36.4427L27.5683 36.5243L28.0307 36.2103Z" fill="#D900C6"/>
<path d="M442.27 39.6564L442.494 39.0841L445.001 37.131L445.493 36.5243L445.394 36.2921L444.858 35.9652L444.936 35.8575L447.727 35.5178L448.328 35.1219L447.693 34.5239L446.669 34.2229H445.256L443.851 34.4336L441.302 35.3456L440.403 35.9221L438.368 37.9914L437.802 38.968L437.715 39.7295L438.221 40.2758L439.915 40.6501L440.001 40.3963L439.928 40.2758L439.677 40.1252L440.127 39.424L440.265 39.708L440.222 40.4866L439.863 41.0501L439.5 41.4459V41.9708L439.859 42.6204L440.304 42.4699L440.839 41.5147L442.313 40.0005L442.27 39.6564Z" fill="#D900C6"/>
<path d="M22.4046 39.5358L22.5214 39.1874L22.5645 38.9852L22.1281 37.9484L21.804 38.3097L21.8515 38.8088L22.2318 39.5186L22.4046 39.5358Z" fill="#D900C6"/>
<path d="M415.358 42.6246L415.756 42.3493L415.954 42.0353L415.959 41.6825L415.808 41.5491L415.501 41.6396L415.302 41.9536L415.207 42.4956L415.358 42.6246Z" fill="#D900C6"/>
<path d="M412.165 44.2122L412.346 44.0875L412.281 43.8379L411.979 43.4808L411.763 43.4249L411.638 43.6701L411.703 43.9153L412.165 44.2122Z" fill="#D900C6"/>
<path d="M413.898 44.3284L414.304 44.2294L414.442 43.6098L414.347 43.4592L413.945 43.5582L413.042 43.9153L413.029 44.1735L413.898 44.3284Z" fill="#D900C6"/>
<path d="M411.62 46.8622L412.316 46.6213L412.679 46.3717L412.714 46.1008L413.008 45.8427L413.79 45.3565L413.703 45.1199L413.422 45.1027L411.806 46.0921L411.448 46.4879L411.331 46.8192L411.62 46.8622Z" fill="#D900C6"/>
<path d="M492.083 54.3693V53.995L491.707 53.1604L491.69 52.343L492.027 51.5429L491.962 51.0481L491.504 50.8588L491.076 50.9578L490.363 51.8052L490.839 52.5538L491.15 53.6078L491.4 54.0294L491.711 54.2833L492.083 54.3693Z" fill="#D900C6"/>
<path d="M492.057 56.1159L492.23 56.0213L492.286 55.7632L492.238 55.3416L492.022 54.9716L491.642 54.6533L491.409 54.6705L491.318 55.0189L491.448 55.4363L492.057 56.1159Z" fill="#D900C6"/>
<path d="M499.831 60.4524L499.714 60.0652L499.403 59.8888L498.785 58.9079L498.444 58.6241L497.528 58.452L497.342 58.6369L497.575 59.0757L497.541 59.3037L497.156 59.6479L496.426 60.104L495.877 60.2071L495.51 59.962L495.259 59.9921L495.212 60.4439L495.324 60.6546L495.838 61.0589L496.957 61.2785L498.686 61.3085L499.537 61.0202L499.831 60.4524Z" fill="#D900C6"/>
<path d="M488.488 63.6359L486.937 63.395L486.863 63.6833L487.779 64.5523L488.341 64.8792L488.691 64.8491L488.963 64.6684L489.149 64.3457L489.08 63.9586L488.639 63.5026L488.488 63.6359Z" fill="#D900C6"/>
<path d="M474.462 67.241L474.876 67.155L475.395 66.7721L475.598 66.1139L475.486 64.6082L475.598 64.4361L475.036 64.1736L474.622 64.819L474.198 66.23L474.146 67.0388L474.462 67.241Z" fill="#D900C6"/>
<path d="M458.625 71.6205L458.988 71.4484L459.053 70.7214L458.988 70.4762L458.789 70.3816L458.21 70.3686L458.068 70.1879L457.718 71.1731L457.96 71.5603L458.625 71.6205Z" fill="#D900C6"/>
<path d="M457.186 73.5694L457.411 73.35L457.493 72.7692L457.26 72.4164L456.724 72.2959L456.248 72.7004L455.838 73.6338L455.298 74.2319L454.632 74.4986L454.179 75.1137L453.928 76.0774L453.492 76.9335L452.507 78.2457L452.429 78.607L452.485 79.1147L452.679 79.7729L453.012 80.2031L453.483 80.4096L453.915 80.2676L455.034 78.7877L455.138 78.4608L454.995 78.3059L455.151 77.7424L455.6 76.7657L455.933 76.2926L456.145 76.3226L456.369 76.1291L456.598 75.7117L456.568 75.3289L456.274 74.9805L456.292 74.8341L456.624 74.8943L456.75 74.533L456.663 73.7457L456.81 73.4231L457.186 73.5694Z" fill="#D900C6"/>
<path d="M469.583 75.9613L469.726 75.7204L469.683 75.217L469.454 74.8987L468.801 74.7912L468.715 74.9546L468.978 75.7074L469.246 75.9398L469.583 75.9613Z" fill="#D900C6"/>
<path d="M684.747 89.0825L685.455 88.7556L685.408 88.2178L684.837 86.9702L684.094 86.6647L683.515 87.1079L682.759 88.2222L682.733 89.3966L683.048 89.6891L683.904 90.1452L683.99 89.8268L683.973 88.9406L684.747 89.0825Z" fill="#D900C6"/>
<path d="M588.979 89.8181L589.359 89.6805L589.735 89.388L589.796 89.203H589.264L588.948 89.4353L588.888 89.6203L588.979 89.8181Z" fill="#D900C6"/>
<path d="M679.708 91.3798L680.166 91.0486L679.773 90.2742L679.518 90.0418L679.35 90.1667L679.198 90.4463L679.216 91.2723L679.708 91.3798Z" fill="#D900C6"/>
<path d="M587.35 94.5461L587.531 94.4945L587.899 94.0342L587.907 93.8535L587.553 93.9567L587.367 94.1891L587.35 94.5461Z" fill="#D900C6"/>
<path d="M554.808 111.113L555.179 110.55L555.378 110.227L555.348 110.046L554.479 109.874L554.159 110.072L554.095 110.52L554.186 110.877L554.449 111.057L554.808 111.113Z" fill="#D900C6"/>
<path d="M647.819 135.863L648.419 135.424L648.536 132.809L648.143 133.067L647.953 133.359L647.62 134.319L647.49 135.192L647.149 135.786L647.819 135.863Z" fill="#D900C6"/>
<path d="M646.578 135.829L646.916 135.532L647.05 134.615L646.929 134.142L646.691 134.159L646.453 135.054L646.578 135.829Z" fill="#D900C6"/>
<path d="M653.946 138.061L657.286 137.278L657.096 136.663L655.999 135.983L655.299 136.121L654.248 137.321L653.414 137.558L653.946 138.061Z" fill="#D900C6"/>
<path d="M662.804 139.313L663.738 139.055L663.647 138.526L662.973 136.943L662.942 137.313L662.709 138.048L662.42 138.225L660.644 138.724L662.804 139.313Z" fill="#D900C6"/>
<path d="M632.177 144.549L633.036 143.521L634.039 142.686L635.897 140.858L634.704 141.296L632.63 142.871L631.641 143.43L629.173 143.744L626.689 143.839L625.747 143.985L624.844 144.415L623.724 144.506L622.575 144.192L622.156 144.235L621.75 144.463L621.184 144.57L620.138 144.575L619.702 144.79L619.3 145.186L619.187 145.874L618.664 145.366L617.913 145.943L616.43 146.61L615.398 147.664L614.927 148.335L614.577 149.04L614.784 149.948L615.826 149.668L616.478 148.834L617.113 148.765L617.398 149.001L617.373 149.307L616.18 150.12L617.792 149.767L619.559 149.655L623.871 148.649L624.321 148.838L624.736 148.795L629.968 146.833L631.018 146.631L632.479 146.072L634.026 145.28L635.106 144.983L640.391 142.329L639.168 142.591L637.98 143.056L637.379 142.475L636.986 142.553L635.728 142.914L634.255 143.74L633.624 144.351L632.954 144.652L632.177 144.549Z" fill="#D900C6"/>
<path d="M612.105 150.937L612.684 150.873L613.285 150.572L613.998 149.862L614.145 149.406L614.132 148.868L613.747 148.722L612.684 149.419L612.105 150.937Z" fill="#D900C6"/>
<path d="M611.928 166.476L613.349 164.115L613.674 163.091L611.898 166.025L611.928 166.476Z" fill="#D900C6"/>
<path d="M598.243 192.013L598.796 191.764L600.369 188.95L601.181 187.298L601.648 185.5L601.168 186.391L600.093 188.959L598.243 192.013Z" fill="#D900C6"/>
<path d="M594.946 222.609L595.128 222.308L595.115 221.943L594.968 221.5L594.138 220.97L594.946 222.609Z" fill="#D900C6"/>
<path d="M594.613 231.807L596.238 231.407L596.666 230.814L597.206 228.331L597.306 226.628L597.037 224.373L596.735 223.595L596.726 224.094L597.003 226.511L596.921 227.88L596.333 230.839L594.471 231.678L594.613 231.807Z" fill="#D900C6"/>
<path d="M591.152 233.193L593.356 232.143L592.349 232.379L590.901 233.128L591.152 233.193Z" fill="#D900C6"/>
<path d="M584.299 240.33L584.602 240.162L586.369 237.809L588.192 235.83L587.601 236.187L585.409 238.506L584.299 240.33Z" fill="#D900C6"/>
<path d="M583.815 240.024L584.087 239.99L583.163 239.409L582.536 239.327L582.683 239.555L583.34 239.865L583.815 240.024Z" fill="#D900C6"/>
<path d="M524.452 296.08L524.992 292.668L524.603 293.004L524.197 293.701L524.219 294.871L524.452 296.08Z" fill="#D900C6"/>
<path d="M443.251 303.006L444.318 302.709L443.856 302.408L441.98 302.675L441.349 302.873L441.669 302.976L443.251 303.006Z" fill="#D900C6"/>
<path d="M438.264 303.372L438.42 303.217L438.221 303.028L436.419 302.542L436.536 302.813L437.188 303.084L438.264 303.372Z" fill="#D900C6"/>
<path d="M430.383 305.691L430.339 305.045L430.499 304.456L430.815 303.867L429.704 304.671L429.566 304.903L429.294 305.119L428.905 305.338L429.786 305.368L430.383 305.691Z" fill="#D900C6"/>
<path d="M434.807 309.322L435.149 308.878L435.334 307.14L435.17 306.211L434.673 305.428L435.144 307.209L434.807 309.322Z" fill="#D900C6"/>
<path d="M433.744 310.918L434.401 310.195L434.604 309.636L434.259 309.92L433.774 310.642L433.744 310.918Z" fill="#D900C6"/>
<path d="M481.466 311.662L482.685 311.163L484.75 309.924L483.843 310.126L483.056 310.664L481.557 311.378L480.965 311.232L480.148 311.3L481.466 311.662Z" fill="#D900C6"/>
<path d="M398.731 313.318L399.18 313.12L399.573 312.595L399.664 312.213L399.5 311.967L399.15 311.799L398.195 311.189L397.59 311.146L396.601 311.61L396.726 312.122L398.731 313.318Z" fill="#D900C6"/>
<path d="M359.21 318.145L359.815 318.012L361.937 316.536L363.116 315.353L362.408 315.323L361.855 316.028L359.21 318.145Z" fill="#D900C6"/>
<path d="M338.452 331.662L338.897 331.606L341.58 329.933L343.162 329.081L343.278 328.483L343.097 328.556L342.678 329.042L341.874 329.141L339.904 330.556L339.005 330.926L338.452 331.662Z" fill="#D900C6"/>
<path d="M335.604 335.056L335.868 335.022L336.996 333.465L337.985 332.475L337.774 331.873L337.264 332.084L336.3 333.495L336.192 333.942L335.604 335.056Z" fill="#D900C6"/>
<path d="M540.133 344.461L539.935 343.467L537.891 338.046L537.402 336.476L536.906 335.715L537.64 338.524L539.019 342.151L540.133 344.461Z" fill="#D900C6"/>
<path d="M331.374 343.953L331.754 343.174L332.999 339.913L335.306 336.106L334.464 336.687L332.463 340.159L331.478 342.796L331.374 343.953Z" fill="#D900C6"/>
<path d="M333.802 359.135L333.971 358.511L333.591 356.631L331.784 349.899L331.365 344.573L331.106 345.872L331.167 349.64L332.8 356.231L333.802 359.135Z" fill="#D900C6"/>
<path d="M516.916 354.033L516.934 353.245L516.48 351.723L515.896 351.249L516.303 352.712L516.916 354.033Z" fill="#D900C6"/>
<path d="M517.063 354.923L517.495 354.571L516.536 354.476L516.264 354.261L515.503 353.306L515.711 354.205L516.186 354.665L517.063 354.923Z" fill="#D900C6"/>
<path d="M535.16 374.553L537.571 372.063L539.083 369.335L538.802 369.421L537.943 370.011L537.899 370.854L537.307 371.572L536.672 371.968L536.37 372.596L535.428 373.93L535.16 374.553Z" fill="#D900C6"/>
<path d="M534.136 375.293L534.46 375.229L534.749 374.773L534.615 374.73L534.136 375.293Z" fill="#D900C6"/>
<path d="M531.915 376.545H532.144L532.662 376.317L532.68 376.128L532.507 375.982L532.027 376.356L531.915 376.545Z" fill="#D900C6"/>
<path d="M528.985 378.008L529.538 377.694L530.212 377.543L530.921 377.126L529.041 377.462L528.41 377.776L528.985 378.008Z" fill="#D900C6"/>
<path d="M525.653 378.843L526.016 378.572L526.193 378.344L526.163 378.111L524.979 377.255L524.962 377.483L525.481 378.361V378.757L525.653 378.843Z" fill="#D900C6"/>
<path d="M522.417 379.368L523.203 379.239L523.623 379.045L523.627 378.671L523.255 378.055L523.052 378.847L522.417 379.368Z" fill="#D900C6"/>
<path d="M520.261 380L520.567 379.97L521.108 379.841L521.121 379.565L520.766 379.548L520.235 379.798L520.261 380Z" fill="#D900C6"/>
</svg>
