<svg width="1176" height="340" viewBox="0 0 1176 340" fill="none" xmlns="http://www.w3.org/2000/svg">
<path d="M47.3887 72.4H129.589C135.989 72.4 141.722 73.8 146.789 76.6C151.855 79.2667 156.055 82.8 159.389 87.2C162.722 91.4667 165.055 96.2 166.389 101.4C167.855 106.6 168.189 111.667 167.389 116.6L164.189 125.4H150.589C152.722 130.467 153.989 135.933 154.389 141.8C154.922 147.667 154.255 153.067 152.389 158H117.589C118.389 151.2 118.789 146.2 118.789 143C118.789 139.667 118.589 137.533 118.189 136.6C117.255 134.2 115.655 132 113.389 130C111.255 127.867 109.189 126.667 107.189 126.4H67.3887L75.3887 104.2H126.389C126.122 101.533 125.122 99.4 123.389 97.8C121.655 96.0667 120.122 94.8667 118.789 94.2H71.5887L48.3887 158H16.1887L47.3887 72.4ZM161.892 158C162.825 155.2 164.358 152.133 166.492 148.8C168.758 145.467 171.358 142.133 174.292 138.8C177.225 135.333 180.425 131.933 183.892 128.6C187.358 125.267 190.958 122.2 194.692 119.4H175.092C178.292 114.067 182.558 108.667 187.892 103.2C193.358 97.6 199.292 92.5333 205.692 88C212.225 83.4667 219.025 79.7333 226.092 76.8C233.292 73.8667 240.292 72.4 247.092 72.4H327.892L319.892 94.2H243.892C242.825 94.4667 241.558 94.9333 240.092 95.6C238.758 96.2667 237.292 97.0667 235.692 98C234.225 98.9333 232.825 99.9333 231.492 101C230.158 102.067 229.092 103.133 228.292 104.2H306.892L298.892 126.4H228.492C224.092 128 219.492 131.2 214.692 136H307.692L299.692 158H161.892ZM375.753 94.4C371.619 95.4667 368.619 96.5333 366.753 97.6C364.886 98.5333 363.219 100.133 361.753 102.4L357.153 115.2H424.553L432.153 94.4H375.753ZM408.953 158L416.553 137.2H349.153L341.553 158H309.353L333.553 91.4C335.286 88.8667 337.619 86.4667 340.553 84.2C343.486 81.8 346.486 79.7333 349.553 78C352.753 76.2667 355.819 74.9333 358.753 74C361.686 72.9333 364.153 72.4 366.153 72.4H472.353L441.153 158H408.953ZM481.959 72.4H513.759L492.559 130.4C492.826 133.333 495.359 135.2 500.159 136H564.359L556.359 158H478.359C475.826 158 473.226 157.267 470.559 155.8C467.892 154.2 465.559 152.2 463.559 149.8C461.692 147.4 460.292 144.8 459.359 142C458.559 139.2 458.626 136.467 459.559 133.8L481.959 72.4ZM685.582 120.4H717.982L721.782 110H689.382L685.582 120.4ZM753.182 110L749.382 120.4H765.382L757.982 140.8H741.982L735.782 158H704.382L710.582 140.8H678.182L671.982 158H640.582L646.782 140.8H630.982L638.382 120.4H654.182L657.982 110H642.182L649.782 89.4H665.582L671.782 72.4H703.182L696.982 89.4H729.382L735.582 72.4H766.982L760.782 89.4H776.782L769.182 110H753.182ZM801.306 158H771.706L792.706 100.4C792.173 97.0667 789.373 94.8667 784.306 93.8L792.106 72.4H806.506C811.039 72.4 814.639 73.2 817.306 74.8C820.106 76.2667 822.106 78.2 823.306 80.6C824.639 82.8667 825.239 85.4667 825.106 88.4C825.106 91.2 824.639 93.9333 823.706 96.6L801.306 158Z" fill="#D900C6"/>
<path d="M37 62.4H119.2C125.6 62.4 131.333 63.8 136.4 66.6C141.467 69.2667 145.667 72.8 149 77.2C152.333 81.4667 154.667 86.2 156 91.4C157.467 96.6 157.8 101.667 157 106.6L153.8 115.4H140.2C142.333 120.467 143.6 125.933 144 131.8C144.533 137.667 143.867 143.067 142 148H107.2C108 141.2 108.4 136.2 108.4 133C108.4 129.667 108.2 127.533 107.8 126.6C106.867 124.2 105.267 122 103 120C100.867 117.867 98.8 116.667 96.8 116.4H57L65 94.2H116C115.733 91.5333 114.733 89.4 113 87.8C111.267 86.0667 109.733 84.8667 108.4 84.2H61.2L38 148H5.8L37 62.4ZM151.503 148C152.436 145.2 153.97 142.133 156.103 138.8C158.37 135.467 160.97 132.133 163.903 128.8C166.836 125.333 170.036 121.933 173.503 118.6C176.97 115.267 180.57 112.2 184.303 109.4H164.703C167.903 104.067 172.17 98.6667 177.503 93.2C182.97 87.6 188.903 82.5333 195.303 78C201.836 73.4667 208.636 69.7333 215.703 66.8C222.903 63.8667 229.903 62.4 236.703 62.4H317.503L309.503 84.2H233.503C232.436 84.4667 231.17 84.9333 229.703 85.6C228.37 86.2667 226.903 87.0667 225.303 88C223.836 88.9333 222.436 89.9333 221.103 91C219.77 92.0667 218.703 93.1333 217.903 94.2H296.503L288.503 116.4H218.103C213.703 118 209.103 121.2 204.303 126H297.303L289.303 148H151.503ZM365.364 84.4C361.231 85.4667 358.231 86.5333 356.364 87.6C354.497 88.5333 352.831 90.1333 351.364 92.4L346.764 105.2H414.164L421.764 84.4H365.364ZM398.564 148L406.164 127.2H338.764L331.164 148H298.964L323.164 81.4C324.897 78.8667 327.231 76.4667 330.164 74.2C333.097 71.8 336.097 69.7333 339.164 68C342.364 66.2667 345.431 64.9333 348.364 64C351.297 62.9333 353.764 62.4 355.764 62.4H461.964L430.764 148H398.564ZM471.57 62.4H503.37L482.17 120.4C482.437 123.333 484.97 125.2 489.77 126H553.97L545.97 148H467.97C465.437 148 462.837 147.267 460.17 145.8C457.504 144.2 455.17 142.2 453.17 139.8C451.304 137.4 449.904 134.8 448.97 132C448.17 129.2 448.237 126.467 449.17 123.8L471.57 62.4ZM675.194 110.4H707.594L711.394 100H678.994L675.194 110.4ZM742.794 100L738.994 110.4H754.994L747.594 130.8H731.594L725.394 148H693.994L700.194 130.8H667.794L661.594 148H630.194L636.394 130.8H620.594L627.994 110.4H643.794L647.594 100H631.794L639.394 79.4H655.194L661.394 62.4H692.794L686.594 79.4H718.994L725.194 62.4H756.594L750.394 79.4H766.394L758.794 100H742.794ZM790.917 148H761.317L782.317 90.4C781.784 87.0667 778.984 84.8667 773.917 83.8L781.717 62.4H796.117C800.651 62.4 804.251 63.2 806.917 64.8C809.717 66.2667 811.717 68.2 812.917 70.6C814.251 72.8667 814.851 75.4667 814.717 78.4C814.717 81.2 814.251 83.9333 813.317 86.6L790.917 148Z" fill="white"/>
<path d="M43.0096 259.02H83.7096L100.43 212.82H59.9496L68.7496 188.84H184.69L175.89 212.82H135.41L118.69 259.02H158.95L150.15 283H34.2096L43.0096 259.02ZM305.738 283H270.318L292.318 222.28C292.318 219.787 291.878 217.733 290.998 216.12C290.264 214.36 287.771 213.333 283.518 213.04H221.698L196.178 283H160.758L195.078 188.84H311.238C318.571 188.84 323.851 190.893 327.078 195C330.451 199.107 332.284 203.947 332.578 209.52L305.738 283ZM531.007 283H501.747C500.134 275.373 497.347 268.187 493.387 261.44C489.574 254.547 484.807 248.46 479.087 243.18C473.514 237.753 467.207 233.28 460.167 229.76C453.274 226.24 446.014 224.04 438.387 223.16L416.607 283H381.187L415.507 188.84H435.747C442.641 188.84 449.974 189.867 457.747 191.92C465.667 193.973 473.294 196.76 480.627 200.28C488.107 203.653 494.927 207.613 501.087 212.16C507.394 216.707 512.454 221.547 516.267 226.68L530.127 188.84H565.327L531.007 283ZM575.781 188.84H611.201L589.201 249.34C588.467 252.273 588.467 254.4 589.201 255.72C590.081 256.893 592.354 257.993 596.021 259.02H660.041L685.561 188.84H720.981L686.661 283H568.521C564.854 283 561.627 282.267 558.841 280.8C556.201 279.187 554.074 277.28 552.461 275.08C550.847 272.88 549.674 270.607 548.941 268.26C548.354 265.913 548.354 264.007 548.941 262.54L575.781 188.84ZM838.683 212.82H798.203L772.683 283H737.703L763.223 212.82H722.743L731.543 188.84H847.483L838.683 212.82ZM942.791 217.66C941.764 216.193 940.737 215.167 939.711 214.58C938.684 213.847 937.657 213.26 936.631 212.82H884.491L880.531 223.82H944.771C944.624 222.793 944.404 221.767 944.111 220.74C943.964 219.713 943.524 218.687 942.791 217.66ZM857.871 188.84H948.291C955.477 188.84 961.784 190.453 967.211 193.68C972.637 196.76 977.111 200.793 980.631 205.78C984.297 210.767 986.864 216.34 988.331 222.5C989.944 228.66 990.384 234.673 989.651 240.54H967.871C969.631 243.62 971.097 246.993 972.271 250.66C973.444 254.18 974.324 257.847 974.911 261.66C975.497 265.327 975.644 269.067 975.351 272.88C975.204 276.547 974.544 279.92 973.371 283H935.091C935.971 275.52 936.411 270.02 936.411 266.5C936.411 262.833 936.191 260.487 935.751 259.46C934.724 256.82 932.964 254.327 930.471 251.98C928.124 249.487 925.851 248.24 923.651 248.24H871.731L858.971 283H823.551L857.871 188.84ZM1056.86 213.04C1052.32 214.213 1049.02 215.387 1046.96 216.56C1044.91 217.587 1043.08 219.347 1041.46 221.84L1036.4 235.92H1110.54L1118.9 213.04H1056.86ZM1093.38 283L1101.74 260.12H1027.6L1019.24 283H983.824L1010.44 209.74C1012.35 206.953 1014.92 204.313 1018.14 201.82C1021.37 199.18 1024.67 196.907 1028.04 195C1031.56 193.093 1034.94 191.627 1038.16 190.6C1041.39 189.427 1044.1 188.84 1046.3 188.84H1163.12L1128.8 283H1093.38Z" fill="#D900C6"/>
<path d="M32.6209 249.02H73.3209L90.0409 202.82H49.5609L58.3609 178.84H174.301L165.501 202.82H125.021L108.301 249.02H148.561L139.761 273H23.8209L32.6209 249.02ZM295.349 273H259.929L281.929 212.28C281.929 209.787 281.489 207.733 280.609 206.12C279.876 204.36 277.382 203.333 273.129 203.04H211.309L185.789 273H150.369L184.689 178.84H300.849C308.182 178.84 313.462 180.893 316.689 185C320.062 189.107 321.896 193.947 322.189 199.52L295.349 273ZM520.619 273H491.359C489.745 265.373 486.959 258.187 482.999 251.44C479.185 244.547 474.419 238.46 468.699 233.18C463.125 227.753 456.819 223.28 449.779 219.76C442.885 216.24 435.625 214.04 427.999 213.16L406.219 273H370.799L405.119 178.84H425.359C432.252 178.84 439.585 179.867 447.359 181.92C455.279 183.973 462.905 186.76 470.239 190.28C477.719 193.653 484.539 197.613 490.699 202.16C497.005 206.707 502.065 211.547 505.879 216.68L519.739 178.84H554.939L520.619 273ZM565.392 178.84H600.812L578.812 239.34C578.079 242.273 578.079 244.4 578.812 245.72C579.692 246.893 581.965 247.993 585.632 249.02H649.652L675.172 178.84H710.592L676.272 273H558.132C554.465 273 551.239 272.267 548.452 270.8C545.812 269.187 543.685 267.28 542.072 265.08C540.459 262.88 539.285 260.607 538.552 258.26C537.965 255.913 537.965 254.007 538.552 252.54L565.392 178.84ZM828.294 202.82H787.814L762.294 273H727.314L752.834 202.82H712.354L721.154 178.84H837.094L828.294 202.82ZM932.402 207.66C931.375 206.193 930.349 205.167 929.322 204.58C928.295 203.847 927.269 203.26 926.242 202.82H874.102L870.142 213.82H934.382C934.235 212.793 934.015 211.767 933.722 210.74C933.575 209.713 933.135 208.687 932.402 207.66ZM847.482 178.84H937.902C945.089 178.84 951.395 180.453 956.822 183.68C962.249 186.76 966.722 190.793 970.242 195.78C973.909 200.767 976.475 206.34 977.942 212.5C979.555 218.66 979.995 224.673 979.262 230.54H957.482C959.242 233.62 960.709 236.993 961.882 240.66C963.055 244.18 963.935 247.847 964.522 251.66C965.109 255.327 965.255 259.067 964.962 262.88C964.815 266.547 964.155 269.92 962.982 273H924.702C925.582 265.52 926.022 260.02 926.022 256.5C926.022 252.833 925.802 250.487 925.362 249.46C924.335 246.82 922.575 244.327 920.082 241.98C917.735 239.487 915.462 238.24 913.262 238.24H861.342L848.582 273H813.162L847.482 178.84ZM1046.48 203.04C1041.93 204.213 1038.63 205.387 1036.58 206.56C1034.52 207.587 1032.69 209.347 1031.08 211.84L1026.02 225.92H1100.16L1108.52 203.04H1046.48ZM1083 273L1091.36 250.12H1017.22L1008.86 273H973.435L1000.06 199.74C1001.96 196.953 1004.53 194.313 1007.76 191.82C1010.98 189.18 1014.28 186.907 1017.66 185C1021.18 183.093 1024.55 181.627 1027.78 180.6C1031 179.427 1033.72 178.84 1035.92 178.84H1152.74L1118.42 273H1083Z" fill="white"/>
</svg>
